STARTFONT 2.1
COMMENT
COMMENT Converted from OpenType font "bsk1.ttf" by "otf2bdf 3.0".
COMMENT
FONT -FreeType-Libre Baskerville-Medium-I-Normal--54-540-72-72-P-320-ISO10646-1
SIZE 54 72 72
FONTBOUNDINGBOX 99 66 -16 -14
STARTPROPERTIES 19
FOUNDRY "FreeType"
FAMILY_NAME "Libre Baskerville"
WEIGHT_NAME "Medium"
SLANT "I"
SETWIDTH_NAME "Normal"
ADD_STYLE_NAME ""
PIXEL_SIZE 54
POINT_SIZE 540
RESOLUTION_X 72
RESOLUTION_Y 72
SPACING "P"
AVERAGE_WIDTH 320
CHARSET_REGISTRY "ISO10646"
CHARSET_ENCODING "1"
FONT_ASCENT 52
FONT_DESCENT 14
COPYRIGHT "Copyright (c) 2012, Pablo Impallari (www.impallari.com|impallari@gmail.com), Copyright (c) 2012, Rodrigo Fuenzalida (www.rfuenzalida.com|hello@rfuenzalida.com), with Reserved Font Name Libre Baskerville."
_OTF_FONTFILE "bsk1.ttf"
_OTF_PSNAME "LibreBaskerville-Italic"
ENDPROPERTIES
CHARS 442
STARTCHAR 0020
ENCODING 32
SWIDTH 259 0
DWIDTH 14 0
BBX 0 0 0 0
BITMAP
ENDCHAR
STARTCHAR 0021
ENCODING 33
SWIDTH 314 0
DWIDTH 17 0
BBX 14 43 3 -1
BITMAP
0078
00F8
01F8
01FC
01FC
01F8
01F8
03F8
03F8
03F0
03F0
03F0
03E0
03E0
03C0
03C0
07C0
0780
0780
0780
0700
0700
0700
0600
0600
0600
0E00
0C00
0C00
0C00
0C00
0000
0000
0000
0000
0000
7C00
FC00
FE00
FE00
FE00
7C00
1000
ENDCHAR
STARTCHAR 0022
ENCODING 34
SWIDTH 351 0
DWIDTH 19 0
BBX 15 15 8 30
BITMAP
1C0C
3E1E
3E3E
3C3E
7C3C
7C7C
7878
7878
7078
7070
7070
6060
6060
C060
C040
ENDCHAR
STARTCHAR 0023
ENCODING 35
SWIDTH 666 0
DWIDTH 36 0
BBX 32 42 3 0
BITMAP
000E01E0
000E01E0
000E01C0
000E01C0
001E01C0
001E01C0
001C01C0
001C03C0
001C03C0
001C0380
001C0380
003C0380
003C0380
00380380
3FFFFFFF
3FFFFFFF
00380700
00380700
00780700
00780700
00700F00
00700F00
00700F00
00700E00
00700E00
00F00E00
7FFFFFFC
FFFFFFFC
00E01E00
00E01C00
00E01C00
01E01C00
01C01C00
01C01C00
01C03C00
01C03C00
01C03800
03C03800
03C03800
03803800
03803800
03807800
ENDCHAR
STARTCHAR 0024
ENCODING 36
SWIDTH 574 0
DWIDTH 31 0
BBX 29 55 1 -8
BITMAP
00000E00
00000E00
00001C00
00001C00
00001C00
0001FE00
000FFFC0
001FFFE0
007E39F0
007838F8
00F07078
01F07078
01F07078
03E07078
03E0E0F8
03F0E1F0
03F0E3F0
03F8E0C0
03F9E000
01FDC000
01FFC000
00FFC000
007FC000
007FF000
003FF800
000FFC00
0007FE00
0007FF00
0007FF00
00077F80
00073F80
000E1FC0
1E0E0FC0
3F0E0FC0
7C0E07C0
7C1C07C0
F81C07C0
F81C07C0
F81C0780
F8380780
78380F00
78380F00
7C381E00
3E707C00
1FF3F800
07FFE000
03FF8000
00F00000
00E00000
00E00000
00E00000
01E00000
01C00000
01C00000
01C00000
ENDCHAR
STARTCHAR 0025
ENCODING 37
SWIDTH 666 0
DWIDTH 36 0
BBX 36 43 1 -1
BITMAP
001F000070
0039C000F0
0070C000E0
00E0C001C0
01C0E00380
01C0E00700
03C0E00F00
0381E00E00
0381C01C00
0381C03800
0381C07000
030380F000
030300E000
038701C000
038E038000
01FC070000
00F00F0000
00000E0000
00001C0000
0000380000
0000700000
0000F00000
0001E00000
0001C00000
0003800000
0007000000
000F00FC00
001E018E00
001C030600
0038070700
00700E0700
00F00E0700
01E01C0700
01C01C0E00
03801C0E00
07801C0E00
0F001C0C00
1E001C1C00
1C001C1800
38001C3800
78000C7000
F0000FC000
0000030000
ENDCHAR
STARTCHAR 0026
ENCODING 38
SWIDTH 888 0
DWIDTH 48 0
BBX 46 43 3 -1
BITMAP
0003FC000000
000FFE000F80
001FFF003FE0
003FFF803FF0
007FFF807E78
007C0F807C38
007803803C1C
00F00380181C
00F00180001C
00F00000003C
00F00000003C
0070000000FC
00700003FFF8
0078007FFFF8
00FE01FFFFF0
03FF83FFFFE0
0FFFC7FFFF80
1F1FCF01FC00
1C0FCE007000
3C078E003800
78001C183C00
78001C3C1C00
78000C3E1C00
F8000E3E1E00
F8000E3E0E00
F80007FC1E00
F80007FC1E00
FC0001F01E00
FC0000001E00
FC0000003C00
7E0000003C00
7F0000007C00
7F800000F800
3FC00001F800
1FF00007F000
1FFC001FE000
0FFF80FFC000
07FFFFFF8000
03FFFFFF0000
00FFFFFE0000
003FFFF80000
000FFFC00000
000030000000
ENDCHAR
STARTCHAR 0027
ENCODING 39
SWIDTH 203 0
DWIDTH 11 0
BBX 7 15 8 30
BITMAP
1C
3E
3E
3C
7C
7C
78
78
70
70
70
60
60
C0
C0
ENDCHAR
STARTCHAR 0028
ENCODING 40
SWIDTH 333 0
DWIDTH 18 0
BBX 22 55 2 -10
BITMAP
000008
00001C
000038
000070
0000E0
0003C0
000780
000780
000F00
001E00
003C00
007800
00F800
00F000
01E000
03E000
03C000
07C000
0F8000
0F8000
1F0000
1F0000
3E0000
3E0000
3E0000
7C0000
7C0000
7C0000
7C0000
F80000
F80000
F80000
F80000
F80000
F80000
F80000
F80000
F80000
F80000
F80000
F80000
F80000
F80000
780000
780000
780000
380000
3C0000
3C0000
1C0000
1E0000
0E0000
070000
070000
030000
ENDCHAR
STARTCHAR 0029
ENCODING 41
SWIDTH 333 0
DWIDTH 18 0
BBX 23 55 -6 -10
BITMAP
000080
000380
0001C0
0001E0
0000E0
0000F0
0000F0
000078
000078
000078
00007C
00003C
00003C
00003C
00003C
00003E
00003E
00003E
00003E
00003E
00003E
00003E
00003E
00007C
00007C
00007C
00007C
0000FC
0000F8
0000F8
0000F8
0001F0
0001F0
0003E0
0003E0
0003C0
0007C0
000780
000F80
001F00
001E00
003E00
003C00
007800
00F000
00F000
01E000
03C000
078000
0F0000
1E0000
3C0000
780000
E00000
C00000
ENDCHAR
STARTCHAR 002A
ENCODING 42
SWIDTH 518 0
DWIDTH 28 0
BBX 23 23 6 19
BITMAP
000200
000780
0E0F80
1F0F80
1F0F80
1F8F00
0F8E00
03CC00
00CC3E
0078FE
003FFE
7FFFFE
FFFC00
FE3E00
787700
0063C0
00E3E0
01E1F0
01E1F0
03E1F0
03E0E0
03C000
008000
ENDCHAR
STARTCHAR 002B
ENCODING 43
SWIDTH 574 0
DWIDTH 31 0
BBX 25 25 3 6
BITMAP
001C0000
001C0000
001C0000
001C0000
001C0000
001C0000
001C0000
001C0000
001C0000
001C0000
001C0000
FFFFFF80
FFFFFF80
FFFFFF80
001C0000
001C0000
001C0000
001C0000
001C0000
001C0000
001C0000
001C0000
001C0000
001C0000
001C0000
ENDCHAR
STARTCHAR 002C
ENCODING 44
SWIDTH 259 0
DWIDTH 14 0
BBX 9 16 -2 -9
BITMAP
0F00
1F80
3F80
3F80
3F80
3F80
1F80
0380
0700
0700
0E00
0C00
1C00
7800
F000
C000
ENDCHAR
STARTCHAR 002D
ENCODING 45
SWIDTH 462 0
DWIDTH 25 0
BBX 18 5 3 13
BITMAP
7FFFC0
7FFFC0
7FFFC0
7FFF80
FFFF80
ENDCHAR
STARTCHAR 002E
ENCODING 46
SWIDTH 259 0
DWIDTH 14 0
BBX 7 8 0 -1
BITMAP
3C
7E
FE
FE
FE
FE
7C
10
ENDCHAR
STARTCHAR 002F
ENCODING 47
SWIDTH 388 0
DWIDTH 21 0
BBX 26 42 -1 0
BITMAP
000003C0
00000380
00000780
00000700
00000E00
00000E00
00001C00
00003C00
00003800
00007800
00007000
0000F000
0000E000
0001E000
0001C000
0003C000
00078000
00070000
000F0000
000E0000
001E0000
001C0000
003C0000
00380000
00780000
00700000
00F00000
01E00000
01C00000
03C00000
03800000
07800000
07000000
0F000000
0E000000
1E000000
3C000000
3C000000
78000000
78000000
F0000000
E0000000
ENDCHAR
STARTCHAR 0030
ENCODING 48
SWIDTH 648 0
DWIDTH 35 0
BBX 30 42 4 -1
BITMAP
0000FE00
0003FF80
000FFFC0
001F83E0
003E01F0
007C01F0
00F800F8
01F800F8
03F000F8
03E000FC
07E000FC
0FC000FC
0FC000FC
1FC000FC
1F8000FC
3F8000FC
3F0001FC
3F0001FC
7F0001FC
7F0001F8
7E0001F8
FE0003F8
FE0003F8
FE0003F0
FC0003F0
FC0007F0
FC0007E0
FC0007E0
FC000FC0
FC000FC0
FC001F80
FC001F80
FC003F00
FC003E00
7C007E00
7C007C00
7C00F800
3E01F000
1F03E000
1FCFC000
0FFF0000
03FC0000
ENDCHAR
STARTCHAR 0031
ENCODING 49
SWIDTH 462 0
DWIDTH 25 0
BBX 23 42 0 0
BITMAP
00000E
00001E
00003C
00007C
0001FC
0003FC
001FF8
03FFF8
03FFF8
0001F8
0001F0
0003F0
0003F0
0003F0
0003E0
0007E0
0007E0
0007E0
0007C0
000FC0
000FC0
000FC0
000F80
001F80
001F80
001F80
001F00
003F00
003F00
003F00
003E00
007E00
007E00
007E00
007E00
00FE00
00FE00
01FE00
03FF00
0FFFC0
FFFFF0
FFFFF0
ENDCHAR
STARTCHAR 0032
ENCODING 50
SWIDTH 611 0
DWIDTH 33 0
BBX 31 42 1 0
BITMAP
0001FF00
000FFFC0
001FFFF0
007E03F8
00F801F8
01F001FC
01F000FC
03E000FE
03E000FE
03E000FE
07E000FE
07E000FE
07E000FE
03F000FC
03F800FC
03FF01FC
01FE01F8
007C03F8
000007F0
000007E0
00000FC0
00001FC0
00003F80
00003F00
00007E00
0000FC00
0001F800
0003E000
0007C000
001F8000
003F0000
007E0000
00F80000
01F00070
03E00060
078000E0
1F0007E0
3FFFFFC0
7FFFFFC0
FFFFFFC0
FFFFFF80
FFFFFF80
ENDCHAR
STARTCHAR 0033
ENCODING 51
SWIDTH 611 0
DWIDTH 33 0
BBX 30 43 1 -1
BITMAP
0001FF00
000FFFC0
001FFFE0
003E03F0
007C01F8
00F801F8
00F801F8
01F001F8
01F000FC
01F000F8
00F801F8
00FC01F8
007E01F0
001801F0
000003E0
000007C0
00000F80
00003F00
0001FE00
001FF000
007FFC00
007FFF00
00003F80
00001FC0
00000FC0
00000FE0
000007E0
0FC007E0
1FC007F0
3F8007F0
7E0007E0
7E0007E0
FC0007E0
FC0007E0
FC000FC0
FC000FC0
7C001F80
7C003F00
3E007E00
1FC3FC00
0FFFF000
03FFC000
00100000
ENDCHAR
STARTCHAR 0034
ENCODING 52
SWIDTH 574 0
DWIDTH 31 0
BBX 28 42 1 0
BITMAP
00000070
000000E0
000001E0
000003E0
000007E0
00000FC0
00001FC0
00003FC0
0000FFC0
0001FF80
0003EF80
0007CF80
000F8F80
001F1F00
003E1F00
007C1F00
00F83F00
01E03E00
03C03E00
07803E00
0F007E00
1E007C00
3C007C00
7FFFFFF0
FFFFFFF0
FFFFFFF0
FFFFFFF0
0001F800
0001F800
0001F000
0001F000
0003F000
0003F000
0003E000
0003E000
0007E000
0007E000
0007C000
0007C000
000FC000
000FC000
000F8000
ENDCHAR
STARTCHAR 0035
ENCODING 53
SWIDTH 592 0
DWIDTH 32 0
BBX 30 43 2 -1
BITMAP
000E003C
001FFFF8
001FFFF8
001FFFF0
003FFFE0
003BFF80
00780000
00700000
00700000
00F00000
00E00000
00E00000
01E00000
01C00000
01C00000
03C30000
03FFF800
03FFFE00
07F0FF00
07801F80
06000FC0
00000FC0
000007E0
000007E0
000007E0
000007F0
000007F0
1F0007F0
3F8007F0
7E0007F0
FC0007F0
F80007E0
F80007E0
F8000FC0
F8000FC0
F8001F80
F8003F00
FC007F00
7E00FC00
3F87F800
1FFFE000
07FF8000
00200000
ENDCHAR
STARTCHAR 0036
ENCODING 54
SWIDTH 629 0
DWIDTH 34 0
BBX 30 43 4 -1
BITMAP
00007F80
0003FFE0
0007F3F0
001F80F8
003E00FC
007C00FC
00F800FC
01F000F8
03F00030
07E00000
07C00000
0FC00000
0F800000
1F800000
1F000000
3F000000
3F3FF000
7EFFFC00
7FF1FE00
7FC07F00
7F803F00
FF001F80
FE001F80
FE001FC0
FC000FC0
FC000FC0
FC000FC0
FC000FC0
F8000FC0
F8000FC0
F8001FC0
F8001FC0
F8001F80
78001F80
7C003F00
7C003F00
3C007E00
3E00FC00
1E01F800
0F83F000
07FFC000
01FF0000
00180000
ENDCHAR
STARTCHAR 0037
ENCODING 55
SWIDTH 518 0
DWIDTH 28 0
BBX 29 45 3 -1
BITMAP
01800000
01800000
01FFFFF8
03FFFFF8
03FFFFF8
07FFFFF0
07FFFFE0
07C000E0
0F0001C0
0E000380
0C000380
1C000700
18000F00
00000E00
00001C00
00003C00
00007800
00007800
0000F000
0001F000
0001E000
0003C000
0007C000
00078000
000F8000
001F0000
003F0000
003E0000
007E0000
00FC0000
00FC0000
01F80000
03F00000
03F00000
07E00000
0FE00000
1FC00000
1FC00000
3F800000
7F000000
7F000000
FE000000
FC000000
78000000
10000000
ENDCHAR
STARTCHAR 0038
ENCODING 56
SWIDTH 629 0
DWIDTH 34 0
BBX 30 43 2 -1
BITMAP
0001FE00
000FFFC0
001FFFE0
007E03F0
00FC00F8
00F800FC
01F0007C
01F0007C
03F0007C
03F0007C
03F0007C
03F0007C
03F000F8
03F800F8
01FC01F0
01FE03E0
00FF8FC0
007FDF00
003FFC00
001FF800
001FFE00
00FBFF00
03E1FF80
07C07F80
1F803FC0
1F001FC0
3E000FE0
7E0007E0
7C0007E0
7C0007E0
FC0003E0
FC0003E0
FC0003E0
FC0007E0
7C0007C0
7C0007C0
7E000F80
3E001F80
3F003F00
1FF1FE00
0FFFF800
03FFE000
00080000
ENDCHAR
STARTCHAR 0039
ENCODING 57
SWIDTH 629 0
DWIDTH 34 0
BBX 29 43 3 -1
BITMAP
0003FC00
001FFF00
003F8F80
007E03C0
01F803E0
01F001E0
03F001F0
07E000F0
07E000F8
0FC000F8
0FC000F8
1FC000F8
1FC000F8
1FC000F8
1FC000F8
1FC000F8
1FC001F8
1FC001F8
0FC001F8
0FC003F8
0FC007F8
07E00FF8
03F01FF8
01FCFFF0
00FFFBF0
003FE3F0
000007E0
000007E0
000007C0
00000FC0
00000F80
00001F80
00003F00
00003E00
F0007E00
F800FC00
F801F800
F803F000
F807E000
7C1F8000
7FFF0000
1FF80000
00800000
ENDCHAR
STARTCHAR 003A
ENCODING 58
SWIDTH 296 0
DWIDTH 16 0
BBX 12 25 1 -1
BITMAP
0180
07E0
07E0
0FF0
0FF0
0FF0
07E0
0380
0000
0000
0000
0000
0000
0000
0000
0000
0000
3800
7E00
FE00
FE00
FE00
FE00
7C00
1000
ENDCHAR
STARTCHAR 003B
ENCODING 59
SWIDTH 296 0
DWIDTH 16 0
BBX 14 33 -1 -9
BITMAP
0060
01F8
01F8
03FC
03FC
03FC
01F8
00E0
0000
0000
0000
0000
0000
0000
0000
0000
0000
0E00
1F80
3F80
3F80
3F80
3F80
1F80
0380
0700
0700
0E00
1C00
3800
7000
E000
C000
ENDCHAR
STARTCHAR 003C
ENCODING 60
SWIDTH 611 0
DWIDTH 33 0
BBX 25 28 3 4
BITMAP
00000180
00000780
00001F80
00007E00
0001F800
0007E000
001F8000
007E0000
01F80000
07E00000
1F800000
7E000000
F8000000
E0000000
F0000000
FC000000
3F000000
0FC00000
03F00000
00FC0000
003F0000
000F8000
0003E000
0000F800
00003E00
00000F80
00000380
00000080
ENDCHAR
STARTCHAR 003D
ENCODING 61
SWIDTH 629 0
DWIDTH 34 0
BBX 27 11 4 14
BITMAP
1FFFFFE0
1FFFFFE0
00000000
00000000
00000000
00000000
00000000
00000000
00000000
FFFFFF80
FFFFFF80
ENDCHAR
STARTCHAR 003E
ENCODING 62
SWIDTH 611 0
DWIDTH 33 0
BBX 24 28 7 4
BITMAP
800000
E00000
F80000
7E0000
1F8000
07E000
01F800
007E00
001F80
0007E0
0001F8
00007E
00001F
000007
000007
00001F
00007E
0001F8
0007E0
001F80
007E00
01F800
07E000
1F8000
7E0000
F80000
E00000
800000
ENDCHAR
STARTCHAR 003F
ENCODING 63
SWIDTH 462 0
DWIDTH 25 0
BBX 19 43 7 -1
BITMAP
03FC00
0FFF00
1FBF80
3C03C0
7801C0
7801E0
F800E0
F800E0
FE00E0
FF01E0
7F01E0
3F03E0
1F07C0
000FC0
003F80
007F00
01FF00
03FC00
07F800
0FF000
1FC000
3F8000
7E0000
7C0000
780000
700000
700000
707000
706000
7FC000
3F8000
0E0000
000000
000000
000000
000000
7C0000
7E0000
FE0000
FE0000
FE0000
7C0000
100000
ENDCHAR
STARTCHAR 0040
ENCODING 64
SWIDTH 1018 0
DWIDTH 55 0
BBX 49 49 4 -7
BITMAP
000007FF800000
00007FFFF80000
0001FFC3FE0000
0007F0001F8000
001FC00007C000
003F000001E000
007C000000F000
01F80000007800
03F00000003C00
03E00000001C00
07C00000000E00
0F800000000E00
1F000000000700
1F0001FC3E0700
3E0007FE3E0300
3E001F873E0380
7C003E037C0380
7C007C03FC0380
7C00F801FC0380
F801F001FC0380
F801F001F80380
F803E001F80380
F807E001F80380
F807E001F80380
F807C003F00300
F00FC003F00700
F00FC003F00700
F80FC007E00600
F80F8007E00E00
F80F800FE00E00
F80F800FE01C00
F80F801FE03800
F807C03FC03800
7C07C073C07000
7C03E0E3E1E000
3E01FFC3FFC000
3E00FF81FF0000
1F003C007C0000
1F000000000000
0F800000000000
07C00000000000
03E00000001000
01F00000007000
00FC000000F000
007F000007C000
001FE0001F0000
0007FF8FFC0000
0001FFFFF00000
00003FFF000000
ENDCHAR
STARTCHAR 0041
ENCODING 65
SWIDTH 759 0
DWIDTH 41 0
BBX 43 42 -6 0
BITMAP
0000000003E0
0000000007E0
0000000007E0
000000000FC0
000000001FC0
000000003FC0
000000007FC0
00000000F7C0
00000001EF80
00000001EF80
00000003CF80
000000078F80
0000000F1F00
0000001E1F00
0000003C1F00
0000003C1F00
000000783F00
000000F03E00
000001E03E00
000003C03E00
000007807E00
000007807C00
00000F007C00
00001E007C00
00003FFFFC00
00007FFFF800
0000F000F800
0000E000F800
0001C000F800
00038001F800
00070001F000
000E0001F000
001E0001F000
003C0003F000
00780003E000
00F00003E000
01E00003E000
03E00007E000
07E00007E000
1FF0001FF800
7FFE00FFFF00
FFFC00FFFF00
ENDCHAR
STARTCHAR 0042
ENCODING 66
SWIDTH 722 0
DWIDTH 39 0
BBX 38 42 -1 0
BITMAP
003FFF8000
003FFFFF00
007FFFFFC0
0007FC07E0
0003F803F0
0003F001F8
0003F000F8
0003F000FC
0003E000FC
0003E000FC
0007E000FC
0007E000FC
0007C000FC
0007C001F8
000FC001F8
000FC003F0
000F800FE0
000F803FC0
001FFFFF00
001FFFF000
001FFFF800
003F03FE00
003F003F80
003F000FC0
003E0007E0
007E0007E0
007E0003F0
007C0003F0
007C0003F0
00FC0003F0
00FC0003F0
00F80003F0
00F80007F0
01F80007F0
01F8000FE0
01F0000FE0
03F0001FC0
03F8003F80
07F801FF00
1FFF3FFC00
FFFFFFF000
FFFFFF8000
ENDCHAR
STARTCHAR 0043
ENCODING 67
SWIDTH 722 0
DWIDTH 39 0
BBX 37 43 4 -1
BITMAP
00003FE018
0001FFFC30
0007FFFF70
000FE01FF0
003F8007F0
007E0003F0
00FC0003F0
01F80001E0
03F00001E0
07E00001E0
07E00000E0
0FC00000E0
1F800000C0
1F800000C0
3F80000000
3F00000000
3F00000000
7F00000000
7E00000000
7E00000000
FE00000000
FE00000000
FE00000000
FE00000000
FC00000000
FC00000000
FC00000000
FE00000000
FE00000000
FE00000000
FE00000000
7E00000600
7E00000600
7F00000E00
3F00001C00
3F80003800
1FC0007000
0FE001F000
07F807C000
03FFFF8000
01FFFF0000
007FFC0000
0001000000
ENDCHAR
STARTCHAR 0044
ENCODING 68
SWIDTH 833 0
DWIDTH 45 0
BBX 44 42 -1 0
BITMAP
003FFFC00000
003FFFFF0000
007FFFFFE000
0003FC0FF800
0001F801FC00
0001F0007E00
0003F0003F00
0003F0001F80
0003E0001FC0
0003E0000FC0
0007E00007E0
0007E00007E0
0007C00007E0
000FC00007F0
000FC00003F0
000FC00003F0
000F800003F0
001F800003F0
001F800003F0
001F800003F0
001F000003F0
003F000007F0
003F000007F0
003E000007E0
003E000007E0
007E00000FE0
007E00000FC0
007C00000FC0
007C00001F80
00FC00001F80
00FC00003F00
00F800007F00
00F800007E00
01F80000FC00
01F80001F800
01F00003F800
03F80007E000
03F8001FC000
07FC007F8000
1FFF0FFE0000
FFFFFFF80000
FFFFFF800000
ENDCHAR
STARTCHAR 0045
ENCODING 69
SWIDTH 722 0
DWIDTH 39 0
BBX 39 42 -1 0
BITMAP
003FFFFFFE
007FFFFFFE
007FFFFFFE
0003F800FE
0003F8003E
0003F0003E
0003F0001E
0003F0000E
0003E0000E
0003E00006
0007E00006
0007E00000
0007C00000
0007C01C00
000FC01800
000FC03800
000F803800
000F807800
001F81F800
001FFFF000
001FFFF000
001F03F000
003F00F000
003E00E000
003E00E000
007E00E000
007E00E000
007C00E000
007C00C000
00FC000000
00FC000000
00F8000038
00F8000038
01F8000070
01F8000070
01F80000F0
03F80001E0
03F80003E0
07FC000FE0
1FFFC3FFC0
FFFFFFFFC0
FFFFFFFF80
ENDCHAR
STARTCHAR 0046
ENCODING 70
SWIDTH 648 0
DWIDTH 35 0
BBX 39 42 -1 0
BITMAP
003FFFFFFE
007FFFFFFE
007FFFFFFE
0003F800FE
0003F8003E
0003F0003E
0003F0001E
0003F0000E
0003E0000E
0003E00006
0007E00006
0007E00000
0007C00000
0007C00C00
000FC01C00
000FC03800
000F803800
000F807800
001F81F800
001FFFF000
001FFFF000
001F03F000
003F01F000
003E00F000
003E00E000
007E00E000
007E00E000
007C00E000
007C00C000
00FC00C000
00FC000000
00F8000000
00F8000000
01F8000000
01F8000000
01F8000000
03F8000000
03F8000000
07FC000000
1FFF800000
FFFFE00000
FFFFE00000
ENDCHAR
STARTCHAR 0047
ENCODING 71
SWIDTH 796 0
DWIDTH 43 0
BBX 39 43 4 -1
BITMAP
00001FF806
0000FFFF0E
0003FFFFDC
000FF007FC
001F8001FC
003F0000FC
00FC00007C
01F800003C
03F0000038
03F0000038
07E0000038
0FC0000018
0FC0000000
1F80000000
1F80000000
3F00000000
3F00000000
7F00000000
7E00000000
7E00000000
FE00000000
FE00000000
FE00000000
FE00000000
FC0001FFFC
FC0001FFFC
FC00003FE0
FE00001FC0
FE00001F80
FE00001F80
FE00001F80
7E00001F00
7E00001F00
7F00001F00
3F00003F00
3F80003E00
1F80007E00
0FC000FE00
07F003FE00
03FE1FFC00
01FFFFE000
007FFF0000
0001000000
ENDCHAR
STARTCHAR 0048
ENCODING 72
SWIDTH 907 0
DWIDTH 49 0
BBX 54 42 -1 0
BITMAP
003FFFE00FFFFC
007FFFE00FFFFC
007FFFE00FFFF8
0003FE0000FF80
0003F800007F00
0003F800007E00
0003F000007E00
0003F000007C00
0003F00000FC00
0003E00000FC00
0007E00000FC00
0007E00000F800
0007E00001F800
0007C00001F800
000FC00001F000
000FC00001F000
000F800003F000
000F800003F000
001F800003E000
001FFFFFFFE000
001FFFFFFFE000
001FFFFFFFE000
003F000007C000
003F00000FC000
003E00000FC000
007E00000FC000
007E00000F8000
007E00001F8000
007C00001F8000
00FC00001F8000
00FC00001F0000
00F800003F0000
00F800003F0000
01F800003E0000
01F800003E0000
01F800007E0000
03F000007E0000
03F80000FE0000
07F80001FE0000
1FFE0003FF8000
FFFF803FFFF000
FFFF803FFFE000
ENDCHAR
STARTCHAR 0049
ENCODING 73
SWIDTH 407 0
DWIDTH 22 0
BBX 27 42 -1 0
BITMAP
003FFFE0
007FFFE0
007FFFE0
0003FE00
0003F800
0003F800
0003F000
0003F000
0003F000
0003E000
0007E000
0007E000
0007E000
0007C000
000FC000
000FC000
000F8000
000F8000
001F8000
001F8000
001F0000
001F0000
003F0000
003F0000
003E0000
007E0000
007E0000
007E0000
007C0000
00FC0000
00FC0000
00F80000
00F80000
01F80000
01F80000
01F80000
03F00000
03F80000
07F80000
1FFE0000
FFFF8000
FFFF8000
ENDCHAR
STARTCHAR 004A
ENCODING 74
SWIDTH 537 0
DWIDTH 29 0
BBX 35 43 -1 -1
BITMAP
00007FFFE0
00007FFFC0
00007FFFC0
000003FC00
000003F800
000003F800
000003F000
000003F000
000003E000
000003E000
000007E000
000007E000
000007C000
000007C000
00000FC000
00000FC000
00000F8000
00001F8000
00001F8000
00001F8000
00001F0000
00003F0000
00003F0000
00003E0000
00003E0000
00007E0000
00007E0000
00007C0000
00007C0000
0000FC0000
3E00FC0000
7F00F80000
FF01F80000
FF01F80000
FE01F00000
FC03F00000
F807E00000
F807E00000
F80FC00000
7E3F800000
3FFF000000
1FFC000000
0080000000
ENDCHAR
STARTCHAR 004B
ENCODING 75
SWIDTH 814 0
DWIDTH 44 0
BBX 47 42 -1 0
BITMAP
003FFFE1FFFE
007FFFE1FFFC
007FFFE1FFFC
0003FC003FE0
0003F8003FC0
0003F8003F00
0003F0007E00
0003F000F800
0003F001F000
0003E003E000
0007E00F8000
0007E01F0000
0007C03C0000
0007C0F80000
000FC1E00000
000FC3C00000
000F8F800000
000F9E000000
001FFE000000
001FFF000000
001FFF000000
003FBF800000
003F1FC00000
003F0FE00000
003E0FE00000
007E07F00000
007E03F80000
007C01FC0000
007C01FE0000
00FC00FE0000
00FC007F0000
00F8003F8000
00F8003FC000
01F8001FC000
01F8000FE000
01F0000FF000
03F00007F800
03F00007F800
07F80007FE00
1FFE0007FF00
FFFFC07FFFC0
FFFF807FFFC0
ENDCHAR
STARTCHAR 004C
ENCODING 76
SWIDTH 685 0
DWIDTH 37 0
BBX 36 42 -1 0
BITMAP
003FFFE000
007FFFE000
007FFFE000
0003FC0000
0003F80000
0003F80000
0003F00000
0003F00000
0003E00000
0003E00000
0007E00000
0007E00000
0007C00000
0007C00000
000FC00000
000FC00000
000F800000
000F800000
001F800000
001F800000
001F000000
001F000000
003F000000
003F000000
003E000000
003E000000
007E000000
007C000000
007C000000
00FC000000
00FC000070
00F8000070
00F80000E0
01F80000E0
01F80001E0
01F80003C0
03F80007C0
03F8000F80
07FC003F80
1FFF03FF80
FFFFFFFF00
FFFFFFFF00
ENDCHAR
STARTCHAR 004D
ENCODING 77
SWIDTH 1018 0
DWIDTH 55 0
BBX 59 42 -1 0
BITMAP
003FFE000001FFE0
007FFE000003FFC0
007FFE000003FFC0
0003FE000007FC00
0003FE000007FC00
0001FE00000FF800
0003FE00001FF800
0003FF00001DF000
0003BF00003BF000
0003BF00007BF000
0007BF000073E000
00071F0000F3E000
00071F0000E7E000
00071F0001C7E000
000F1F0003C7C000
000E1F80038FC000
000E1F80070FC000
000E1F800F0FC000
001E1F800E0F8000
001C1F801E1F8000
001C0F803C1F8000
001C0F80381F0000
003C0F80781F0000
00380FC0703F0000
00380FC0E03F0000
00380FC1E03E0000
00780FC1C03E0000
00700FC3C07E0000
007007C7807E0000
00F007C7007C0000
00E007CF00FC0000
00E007DE00FC0000
00E007FC00FC0000
01E007FC00F80000
01E007F801F80000
01C007F801F80000
03E003F001F80000
07E003E003F80000
0FF003E007F80000
3FF803C00FFE0000
FFFE03807FFFC000
FFFE03807FFFC000
ENDCHAR
STARTCHAR 004E
ENCODING 78
SWIDTH 833 0
DWIDTH 45 0
BBX 49 42 0 0
BITMAP
01FFE0001FFF80
03FFF0001FFF80
03FFF0001FFF00
001FF80007FC00
0007F80003F800
0007FC0001F000
0003FC0001E000
0003FC0001E000
0003FE0001C000
0003FE0001C000
0007BF0001C000
00073F0003C000
00073F80038000
00071F80038000
000F1FC0078000
000E0FC0078000
000E0FC0070000
000E07E0070000
001E07E00F0000
001C03F00E0000
001C03F00E0000
001C03F80E0000
003C01F81E0000
003801F81C0000
003800FC1C0000
007800FC1C0000
0078007E3C0000
0070007E380000
0070007F380000
00F0003F380000
00E0003FF80000
00E0001FF00000
00E0001FF00000
01E0000FF00000
01E0000FE00000
01C0000FE00000
03E00007E00000
07E00007E00000
0FF00003C00000
3FF80003C00000
FFFE0001C00000
FFFE0001C00000
ENDCHAR
STARTCHAR 004F
ENCODING 79
SWIDTH 814 0
DWIDTH 44 0
BBX 38 43 4 -1
BITMAP
00003FF000
0001FFFC00
0007FFFF00
000FE01F80
003F8007C0
007E0003E0
00FC0003F0
01F80001F0
03F00001F8
07E00001F8
07E00001FC
0FC00000FC
1FC00000FC
1F800000FC
3F800000FC
3F000000FC
3F000000FC
7F000000FC
7E000000FC
7E000000FC
FE000001FC
FE000001FC
FE000001FC
FE000001F8
FE000001F8
FE000003F8
FE000003F8
FE000003F0
FE000007F0
FE000007E0
FE000007E0
7E00000FC0
7E00001F80
7F00001F80
3F00003F00
3F80007E00
1F8000FC00
0FC001F800
07E007E000
03FE7FC000
01FFFF0000
007FFC0000
0001800000
ENDCHAR
STARTCHAR 0050
ENCODING 80
SWIDTH 666 0
DWIDTH 36 0
BBX 39 42 -1 0
BITMAP
007FFFC000
007FFFFF00
007FFFFFE0
0003FC07F0
0003F801F8
0003F000FC
0003F0007E
0003F0007E
0003F0007E
0003E0007E
0003E0007E
0007E0007E
0007E0007E
0007C000FC
000FC000FC
000FC001F8
000F8003F8
000F800FF0
001F801FC0
001F81FF80
001FFFFE00
001FFFF000
003FFE0000
003F000000
003E000000
003E000000
007E000000
007E000000
007C000000
00FC000000
00FC000000
00F8000000
00F8000000
01F8000000
01F8000000
01F8000000
03F8000000
03F8000000
07FC000000
1FFFC00000
FFFFC00000
FFFFC00000
ENDCHAR
STARTCHAR 0051
ENCODING 81
SWIDTH 833 0
DWIDTH 45 0
BBX 40 56 3 -14
BITMAP
00000FF800
00007FFF00
0001FFFFC0
0007F007E0
001FC003F0
003F0001F8
007E0000F8
00FC0000FC
01F800007E
03F000007E
03F000007E
07E000007E
0FE000007F
0FC000007F
1FC000003F
1F8000003F
1F8000003F
3F8000007F
3F0000007F
3F0000007F
7F0000007F
7F0000007F
7F0000007E
7F0000007E
7F000000FE
7F000000FE
7F000000FC
7F000001FC
7F000001F8
7F000001F8
7F000003F0
3F000007F0
3F000007E0
3F80000FC0
1F80001FC0
1FC0003F80
0FE0007F00
07F000FC00
03FC07F800
01FFFFE000
00FFFFC000
003FFF0000
0001FC0000
0007F00000
001FC00000
007F000000
03FFC00003
0FFFF80006
3FFFFE000E
7F87FF801E
FF01FFE07C
FE00FFFFF8
FC003FFFF0
78001FFFE0
000007FFC0
000001FE00
ENDCHAR
STARTCHAR 0052
ENCODING 82
SWIDTH 759 0
DWIDTH 41 0
BBX 39 42 -1 0
BITMAP
007FFFE000
007FFFFF00
007FFFFFC0
0003FC07F0
0003F803F8
0003F001F8
0003F000FC
0003F000FC
0003F000FC
0003E000FC
0003E000FC
0007E000FC
0007E000FC
0007C001FC
000FC001F8
000FC003F8
000F8007F0
000F801FE0
001F80FF80
001FFFFF00
001FFFF800
001FFFE000
003F07E000
003F03F000
003E03F000
003E03F000
007E01F800
007E01F800
007C00FC00
00FC00FC00
00FC00FC00
00F8007E00
00F8007E00
01F8007F00
01F8003F00
01F8003F80
03F8001F80
03F8001FC0
07FC001FE0
1FFFC00FF8
FFFFC00FFE
FFFFC007FE
ENDCHAR
STARTCHAR 0053
ENCODING 83
SWIDTH 592 0
DWIDTH 32 0
BBX 31 43 1 -1
BITMAP
0001FF00
0007FFC6
001FFFE4
003F01FC
007C007C
0078007C
00F8003C
00F00038
01F00038
01F00038
01F00018
01F80018
01F80000
01FC0000
00FE0000
00FF0000
007FC000
007FE000
003FF000
001FFC00
000FFE00
0003FF00
0001FF80
0000FF80
00003FC0
00001FC0
00000FE0
00000FE0
300007E0
300003E0
300003E0
300003E0
780003E0
780003C0
780003C0
7C000780
7C000780
7E000F00
FF803E00
C7E1FC00
C3FFF800
C0FFE000
00040000
ENDCHAR
STARTCHAR 0054
ENCODING 84
SWIDTH 777 0
DWIDTH 42 0
BBX 41 42 4 0
BITMAP
07FFFFFFFF80
07FFFFFFFF80
0FFFFFFFFF80
0FE01FE01F80
0F801FC00F80
1F001FC00780
1C001F800780
38001F800380
38001F800380
70001F000380
60003F000300
E0003F000300
00003E000000
00003E000000
00007E000000
00007E000000
00007C000000
00007C000000
0000FC000000
0000FC000000
0000F8000000
0000F8000000
0001F8000000
0001F8000000
0001F0000000
0003F0000000
0003F0000000
0003E0000000
0003E0000000
0007E0000000
0007E0000000
0007C0000000
0007C0000000
000FC0000000
000FC0000000
000F80000000
001F80000000
001F80000000
003FC0000000
00FFF0000000
0FFFFE000000
0FFFFE000000
ENDCHAR
STARTCHAR 0055
ENCODING 85
SWIDTH 796 0
DWIDTH 43 0
BBX 41 43 6 -1
BITMAP
7FFFC01FFF80
7FFFC01FFF80
FFFFC03FFF80
07F80003F800
07F00000F000
07F00000F000
07E00000F000
07E00000E000
07E00000E000
07C00001E000
07C00001E000
0FC00001C000
0FC00001C000
0F800001C000
1F800001C000
1F800003C000
1F0000038000
1F0000038000
3F0000038000
3F0000078000
3E0000070000
3E0000070000
7E0000070000
7E00000F0000
7C00000E0000
7C00000E0000
FC00000E0000
FC00001C0000
FC00001C0000
FC00003C0000
FC0000380000
FC0000380000
FC0000700000
FC0000F00000
7C0000E00000
7E0001E00000
7E0003C00000
3F0007800000
1FC01F000000
0FFFFE000000
07FFF8000000
01FFE0000000
000400000000
ENDCHAR
STARTCHAR 0056
ENCODING 86
SWIDTH 740 0
DWIDTH 40 0
BBX 42 43 6 -1
BITMAP
0FFFF00FFFC0
1FFFE00FFFC0
1FFFE00FFFC0
00FE0000FE00
00FC0000F800
00FC0001F000
00F80001E000
00F80003C000
00F800078000
01F8000F0000
01F0001E0000
01F0003C0000
01F000380000
01F000700000
03F000F00000
03E001E00000
03E003C00000
03E007800000
07E007000000
07C00E000000
07C01E000000
07C03C000000
0FC078000000
0FC0F0000000
0F80E0000000
0F81C0000000
0F83C0000000
1F8780000000
1F0F00000000
1F1E00000000
1F1C00000000
3F3C00000000
3F7800000000
3EF000000000
3FE000000000
3FC000000000
7F8000000000
7F8000000000
7F0000000000
7E0000000000
FC0000000000
F80000000000
F80000000000
ENDCHAR
STARTCHAR 0057
ENCODING 87
SWIDTH 1055 0
DWIDTH 57 0
BBX 59 43 6 -1
BITMAP
1FFFC3FFFC07FFE0
1FFFC3FFFC07FFE0
1FFFC3FFF807FFE0
01FE003F8000FE00
00FC003F8000F800
00FC003F0001F000
00F8003F0001E000
00F8003E0003C000
00F8003E00078000
01F8003E00070000
01F0007E000E0000
01F0007E001E0000
01F000FC003C0000
03F001FC00380000
03E003FC00700000
03E003FC00F00000
03E007F801E00000
07E00FF803C00000
07E01EF803800000
07C03DF807800000
07C039F80F000000
07C079F01E000000
0FC0F1F01C000000
0F81E1F038000000
0F81C3F078000000
0F8383E0F0000000
1F8783E1E0000000
1F0F03E1C0000000
1F1E07E3C0000000
1F1C07E780000000
1F3C07CF00000000
3F7807CE00000000
3EF007DE00000000
3EE00FFC00000000
3FE00FF800000000
7FC00FF000000000
7F800FE000000000
7F001FE000000000
7E001FC000000000
7E001F8000000000
FC001F0000000000
F8001F0000000000
F0003E0000000000
ENDCHAR
STARTCHAR 0058
ENCODING 88
SWIDTH 777 0
DWIDTH 42 0
BBX 46 42 -2 0
BITMAP
00FFFF80FFFC
00FFFF80FFFC
00FFFF80FFFC
000FFC001FC0
0007F8001F80
0003F8003E00
0003F8003C00
0001F8007800
0001FC00F000
0000FC00E000
0000FE01C000
00007E03C000
00007E078000
00003F0F0000
00003F1E0000
00001FBC0000
00001FF80000
00000FF00000
00000FE00000
000007E00000
000007E00000
00000FF00000
00001FF00000
00001FF00000
00003DF80000
000079F80000
0000F0FC0000
0001E0FC0000
0003C07E0000
0007807E0000
0007007F0000
000E003F0000
001E003F8000
003C001F8000
0078001FC000
00F8001FC000
01F0000FE000
03F0000FE000
07F0001FF000
1FFC003FFC00
FFFF01FFFF80
FFFF01FFFF80
ENDCHAR
STARTCHAR 0059
ENCODING 89
SWIDTH 685 0
DWIDTH 37 0
BBX 37 42 5 0
BITMAP
FFFF00FFF8
FFFE01FFF8
FFFE01FFF8
0FE0001F80
07E0001F00
07E0001E00
03F0001E00
03F0003C00
01F0003800
01F8007800
01F800F000
00FC01E000
00FC01C000
007E03C000
007E078000
007E070000
003F0F0000
003F1E0000
001F9C0000
001FB80000
000FF80000
000FF00000
000FE00000
0007E00000
0007C00000
0007C00000
000FC00000
000FC00000
000F800000
000F800000
001F800000
001F800000
001F000000
003F000000
003F000000
003F000000
007F000000
007F000000
00FF000000
03FFC00000
3FFFF80000
3FFFF80000
ENDCHAR
STARTCHAR 005A
ENCODING 90
SWIDTH 666 0
DWIDTH 36 0
BBX 38 42 0 0
BITMAP
001FFFFFFC
001FFFFFFC
003FFFFFF8
003F8007F0
007C000FE0
0078001FC0
00F0003FC0
00E0007F80
01C0007F00
018000FE00
038001FE00
000003FC00
000003F800
000007F000
00000FF000
00001FE000
00003FC000
00003F8000
00007F8000
0000FF0000
0001FE0000
0001FC0000
0003F80000
0007F80000
000FF00000
000FE00000
001FC00000
003FC00000
007F800000
00FF000000
00FE000380
01FE000300
03FC000700
07F8000F00
07F0000E00
0FE0001E00
1FE0007C00
3FC000FC00
7F8007FC00
7FFFFFF800
FFFFFFF800
FFFFFFF000
ENDCHAR
STARTCHAR 005B
ENCODING 91
SWIDTH 351 0
DWIDTH 19 0
BBX 27 52 -1 -8
BITMAP
0003FFE0
0003FFE0
0007C000
0007C000
0007C000
000F8000
000F8000
000F8000
000F8000
001F0000
001F0000
001F0000
001E0000
003E0000
003E0000
003E0000
003C0000
007C0000
007C0000
007C0000
00F80000
00F80000
00F80000
00F00000
01F00000
01F00000
01F00000
01E00000
03E00000
03E00000
03E00000
07C00000
07C00000
07C00000
07C00000
0F800000
0F800000
0F800000
0F000000
1F000000
1F000000
1F000000
3E000000
3E000000
3E000000
3E000000
7C000000
7C000000
7C000000
78000000
FFF80000
FFF80000
ENDCHAR
STARTCHAR 005C
ENCODING 92
SWIDTH 462 0
DWIDTH 25 0
BBX 11 42 8 0
BITMAP
E000
E000
E000
7000
7000
7000
7000
7000
3800
3800
3800
3800
3800
3C00
1C00
1C00
1C00
1C00
1C00
1E00
0E00
0E00
0E00
0E00
0F00
0700
0700
0700
0700
0780
0780
0380
0380
0380
03C0
03C0
01C0
01C0
01C0
01C0
01E0
01E0
ENDCHAR
STARTCHAR 005D
ENCODING 93
SWIDTH 351 0
DWIDTH 19 0
BBX 26 52 -5 -8
BITMAP
0007FFC0
0007FFC0
000007C0
000007C0
00000F80
00000F80
00000F80
00000F80
00001F00
00001F00
00001F00
00001E00
00003E00
00003E00
00003E00
00007C00
00007C00
00007C00
00007C00
0000F800
0000F800
0000F800
0000F000
0001F000
0001F000
0001F000
0001E000
0003E000
0003E000
0003E000
0007C000
0007C000
0007C000
0007C000
000F8000
000F8000
000F8000
000F0000
001F0000
001F0000
001F0000
003E0000
003E0000
003E0000
003E0000
007C0000
007C0000
007C0000
00780000
00F80000
FFF80000
FFF80000
ENDCHAR
STARTCHAR 005E
ENCODING 94
SWIDTH 462 0
DWIDTH 25 0
BBX 18 10 3 12
BITMAP
007C00
00FE00
01FE00
03DE00
078F00
0F0F00
1E0780
380380
700180
E001C0
ENDCHAR
STARTCHAR 005F
ENCODING 95
SWIDTH 722 0
DWIDTH 39 0
BBX 31 4 -2 -8
BITMAP
7FFFFFFE
FFFFFFFE
FFFFFFFE
FFFFFFFC
ENDCHAR
STARTCHAR 0060
ENCODING 96
SWIDTH 259 0
DWIDTH 14 0
BBX 10 8 2 35
BITMAP
F000
F800
FC00
FE00
3F00
0F80
03C0
01C0
ENDCHAR
STARTCHAR 0061
ENCODING 97
SWIDTH 555 0
DWIDTH 30 0
BBX 28 30 1 -1
BITMAP
0007E3E0
001FF3E0
003FFBC0
007C1FC0
01F81F80
03F01F80
03E01F80
07C01F00
0F801F00
1F801F00
1F003E00
3E003E00
3E003E00
7E007C00
7C007C00
7C007C00
F800F800
F800F800
F801F800
F801F800
F803F020
F807F070
F807F0E0
F80FF0C0
F81DF1C0
FE79FF80
FFF1FF00
7FE1FE00
3F80F800
0C002000
ENDCHAR
STARTCHAR 0062
ENCODING 98
SWIDTH 518 0
DWIDTH 28 0
BBX 25 46 2 -1
BITMAP
003F0000
07FE0000
03FE0000
007E0000
007C0000
007C0000
007C0000
00F80000
00F80000
00F80000
01F00000
01F00000
01F00000
01F00000
03E00000
03E00000
03E1F800
07C7FE00
07DFFF00
07FC3F00
0FB81F80
0FF01F80
0FE00F80
1FC00F80
1FC01F80
1F801F80
1F001F80
3F001F80
3E001F00
3E003F00
7C003F00
7C003E00
7C007E00
F8007C00
F800FC00
F800F800
F801F000
F803F000
F803E000
F807C000
F80F8000
F81F0000
FC7E0000
7FF80000
3FE00000
03000000
ENDCHAR
STARTCHAR 0063
ENCODING 99
SWIDTH 425 0
DWIDTH 23 0
BBX 22 30 1 -1
BITMAP
0007E0
001FF8
007EFC
00F87C
01F07C
03E07C
07C07C
078038
0F8000
1F0000
1F0000
3E0000
3E0000
7E0000
7C0000
7C0000
FC0000
FC0000
FC0000
F80040
F80060
F800C0
FC01C0
FC0380
FC0700
7E0F00
7FFE00
3FF800
1FF000
018000
ENDCHAR
STARTCHAR 0064
ENCODING 100
SWIDTH 592 0
DWIDTH 32 0
BBX 31 46 1 -1
BITMAP
000007FE
00000FFE
000003FE
0000007C
0000007C
0000007C
00000078
000000F8
000000F8
000000F8
000001F0
000001F0
000001F0
000001F0
000003E0
000003E0
0007E3E0
001FF7C0
003FFFC0
007C1FC0
01F81FC0
01F00F80
03E00F80
07C01F80
0F801F80
1F801F00
1F001F00
3F001F00
3E003E00
7E003E00
7C003E00
7C007E00
FC007E00
F800FC00
F800FC00
F801FC1C
F801FC18
F803F818
F8077830
F8077870
FC0E7860
FE3C7CE0
7FF87FC0
3FF07F80
1FC03F00
00000C00
ENDCHAR
STARTCHAR 0065
ENCODING 101
SWIDTH 444 0
DWIDTH 24 0
BBX 23 30 1 -1
BITMAP
0007F0
001FFC
003E7C
00F83E
01F03E
03E03E
07C03E
07807C
0F8078
1F00F8
1F01F0
3E03E0
3E0F80
7C3F00
7CFC00
FFF000
FF8000
FC0000
F80000
F80000
F80000
F80060
F800E0
F801C0
FC0380
7C0700
7FBE00
3FFC00
1FF000
010000
ENDCHAR
STARTCHAR 0066
ENCODING 102
SWIDTH 333 0
DWIDTH 18 0
BBX 39 59 -10 -14
BITMAP
00000003E0
0000001FF8
0000003FFC
0000007C7E
000000F83E
000000F03E
000001F03E
000001E01C
000003E000
000003C000
000007C000
000007C000
0000078000
00000F8000
00000F8000
00000F0000
00001F0000
00001F0000
0003FFF800
0007FFF800
0007FFF800
00003E0000
00003E0000
00003E0000
00007C0000
00007C0000
00007C0000
0000FC0000
0000F80000
0000F80000
0000F80000
0001F80000
0001F00000
0001F00000
0001F00000
0003F00000
0003E00000
0003E00000
0003E00000
0007E00000
0007C00000
0007C00000
0007C00000
000FC00000
000F800000
000F800000
000F800000
001F000000
001F000000
001F000000
001E000000
003E000000
703C000000
F07C000000
F878000000
FCF0000000
FFF0000000
7FC0000000
3F00000000
ENDCHAR
STARTCHAR 0067
ENCODING 103
SWIDTH 537 0
DWIDTH 29 0
BBX 36 43 -4 -14
BITMAP
0000FF07C0
0003FFCFE0
000FC7FFF0
001F83FFF0
003F01F1F0
007E01F0E0
007C01F000
00FC01F000
00F801F000
00F801F000
01F801F000
01F803F000
01F003F000
01F003E000
00F007E000
00F807C000
00F80F8000
00781F8000
003E7E0000
001FFC0000
007FE00000
01F8000000
03E0000000
07E0000000
07F0000000
07FE000000
07FFF00000
03FFFE0000
00FFFF8000
001FFFC000
0C01FFE000
3E001FE000
7C0007E000
F80001E000
F80001E000
F80001E000
F80001E000
F80003C000
7C0007C000
3E001F8000
1FF3FE0000
07FFFC0000
00FFE00000
ENDCHAR
STARTCHAR 0068
ENCODING 104
SWIDTH 574 0
DWIDTH 31 0
BBX 29 46 0 -1
BITMAP
01FFC000
03FF8000
00FF8000
001F8000
001F0000
001F0000
001F0000
001F0000
003E0000
003E0000
003E0000
007C0000
007C0000
007C0000
007C0000
00F80000
00F87E00
00F9FF80
01F3FF80
01F78780
01FE07C0
03FC07C0
03FC07C0
03F807C0
03F00F80
07F00F80
07E00F80
07E01F80
0FC01F80
0FC01F00
0F803F00
0F803E00
1F803E00
1F007E00
1F007C00
3E007C00
3E00FC00
3E00F818
3C00F838
7C00F870
7C00F8E0
7801FFC0
F801FF80
F800FF00
F000FC00
00006000
ENDCHAR
STARTCHAR 0069
ENCODING 105
SWIDTH 333 0
DWIDTH 18 0
BBX 16 46 2 -1
BITMAP
000E
003F
003F
003F
003F
003F
001E
0000
0000
0000
0000
0000
0000
0000
0000
0000
01F0
03F0
0FF8
1FF8
3FF0
73F0
E3F0
C3F0
83E0
03E0
07E0
07C0
07C0
0FC0
0F80
0F80
1F00
1F00
3F00
3E00
3E0C
7E0C
7C1C
7C38
7C70
7FE0
7FC0
7F80
7F00
1000
ENDCHAR
STARTCHAR 006A
ENCODING 106
SWIDTH 296 0
DWIDTH 16 0
BBX 26 59 -10 -14
BITMAP
00000700
00000FC0
00000FC0
00001FC0
00000FC0
00000FC0
00000780
00000000
00000000
00000000
00000000
00000000
00000000
00000000
00000000
00000000
00001E00
00007F00
0001FF00
0003FF00
0007FF00
000E3F00
000C3E00
00187E00
00187E00
00007E00
00007C00
0000FC00
0000FC00
0000FC00
0000F800
0001F800
0001F800
0001F000
0001F000
0003F000
0003F000
0003E000
0003E000
0007E000
0007E000
0007C000
0007C000
000FC000
000F8000
000F8000
000F8000
001F8000
001F0000
001F0000
001E0000
003E0000
703C0000
F83C0000
F8780000
FCF00000
FFE00000
7F800000
3F000000
ENDCHAR
STARTCHAR 006B
ENCODING 107
SWIDTH 500 0
DWIDTH 27 0
BBX 25 45 0 -1
BITMAP
001F8000
03FF8000
01FF0000
001F0000
001F0000
001F0000
003E0000
003E0000
003E0000
007C0000
007C0000
007C0000
007C0000
00F80000
00F80000
00F80000
00F8FE00
01F1FF00
01F7FF80
01F7BF80
01EE1F80
03FC0F80
03F81F00
03F01F00
07E03E00
07E07C00
07C0F800
07C1F000
0F87C000
0F9F0000
0FFC0000
0FFC0000
1FFE0000
1F3E0000
1F3F0000
1F1F0000
3E1F0000
3E1F8180
3E0F8380
7C0FC700
7C07EE00
7C07FE00
7C03FC00
F803F800
F801F000
ENDCHAR
STARTCHAR 006C
ENCODING 108
SWIDTH 296 0
DWIDTH 16 0
BBX 16 46 1 -1
BITMAP
003F
03FF
01FE
007E
003E
007C
007C
007C
007C
00F8
00F8
00F8
00F8
01F0
01F0
01F0
03E0
03E0
03E0
03E0
07C0
07C0
07C0
07C0
0F80
0F80
0F80
1F00
1F00
1F00
1F00
3E00
3E00
3E00
3E00
7C00
7C0C
7C1C
7C18
F830
F870
FFE0
FFC0
FF80
7E00
0800
ENDCHAR
STARTCHAR 006D
ENCODING 109
SWIDTH 851 0
DWIDTH 46 0
BBX 44 30 1 -1
BITMAP
01F00F803F00
07F03FC07F80
0FF87FE1FF80
1CF8E1E3C780
18F9C1E30780
30FB81E70780
30FB03EE0F80
60F603FC0F80
61FE03D80F80
C1FC03F81F00
C1F807F01F00
01F807E01F00
03F007E03E00
03F00FC03E00
03E00FC03E00
07E00F807C00
07C01F807C00
07C01F007C00
0FC01F00F800
0F803F00F810
0F803E00F830
1F803E01F870
1F007E01F0E0
1F007C01F1C0
3E007C01F380
3E00FC01FF00
3E00F801FE00
7C00F801FC00
7C01F801F000
000000004000
ENDCHAR
STARTCHAR 006E
ENCODING 110
SWIDTH 611 0
DWIDTH 33 0
BBX 31 30 1 -1
BITMAP
01F00FE0
07F03FF0
0FF87FF0
1CF8F1F8
18F9C1F8
30FB81F0
30FB01F0
60F701F0
60FE01F0
C1FC03F0
C1FC03E0
01F803E0
03F007E0
03F007C0
03E00FC0
07E00FC0
07C00F80
07C01F80
0FC01F80
0F801F00
0F803F04
1F803F0E
1F003E1C
1F003E38
3E007E70
3E007FE0
3E003FC0
7C003F80
7C003E00
00000800
ENDCHAR
STARTCHAR 006F
ENCODING 111
SWIDTH 518 0
DWIDTH 28 0
BBX 25 29 1 -1
BITMAP
000FE000
003FF800
00FEFC00
01F81E00
03F01E00
07E01F00
0FC01F00
0FC01F00
1F801F80
1F801F80
3F001F80
3F001F80
7F001F80
7E001F00
7E003F00
7E003F00
FC003F00
FC007E00
FC007E00
FC007C00
FC00FC00
7C00F800
7C01F000
7C03F000
7C07E000
3E0FC000
1F1F8000
0FFE0000
07FC0000
ENDCHAR
STARTCHAR 0070
ENCODING 112
SWIDTH 555 0
DWIDTH 30 0
BBX 33 50 -5 -14
BITMAP
00003C0000
00003C0000
00007C0000
0000780000
0000780000
0000F80000
0000F00000
0000FFF000
0000FFFC00
0003FFFE00
000FE07F00
001FE03F00
007BE01F80
00E3E01F80
01C3C00F80
0383C00F80
0107C00F80
0007C00F80
0007800F80
000F801F80
000F801F80
000F001F00
001F003F00
001F003E00
001F007E00
001E007C00
003E00F800
003E01F000
003E03E000
007C07C000
007C1F8000
007C7E0000
007FF80000
00FFE00000
00FF000000
00F8000000
01F8000000
01F0000000
01F0000000
01F0000000
03E0000000
03E0000000
03E0000000
07E0000000
07C0000000
07E0000000
0FE0000000
FFFE000000
FFFE000000
FFFE000000
ENDCHAR
STARTCHAR 0071
ENCODING 113
SWIDTH 518 0
DWIDTH 28 0
BBX 27 43 1 -14
BITMAP
000FC3E0
003FF3C0
007FFBC0
00F83FC0
01F03FC0
03E01F80
07C01F80
0FC01F80
0F801F00
1F801F00
3F001F00
3F001F00
3E001E00
7E003E00
7E003E00
FC003E00
FC007C00
FC007C00
FC007C00
F800F800
F800F800
F801F800
F803F800
FC07F000
FC0FF000
7E1DF000
7FFDF000
3FFBE000
1FE3E000
0203E000
0003C000
0007C000
0007C000
0007C000
000F8000
000F8000
000F8000
000F8000
001F0000
003F8000
01FFF800
03FFF000
03FFF000
ENDCHAR
STARTCHAR 0072
ENCODING 114
SWIDTH 462 0
DWIDTH 25 0
BBX 26 30 1 0
BITMAP
00000600
00F01F80
03F07FC0
07F0FFC0
1FF1FFC0
39F3CF80
30F70700
60F70000
C1FE0000
41FC0000
01F80000
01F80000
03F00000
03F00000
03E00000
07E00000
07C00000
07C00000
0FC00000
0F800000
0F800000
1F800000
1F000000
1F000000
3F000000
3E000000
3E000000
3E000000
7C000000
7C000000
ENDCHAR
STARTCHAR 0073
ENCODING 115
SWIDTH 370 0
DWIDTH 20 0
BBX 20 30 -1 -1
BITMAP
003F80
007FE0
01F3F0
01E1F0
03C1F0
03C0F0
07C0E0
07C000
07E000
07E000
07F000
03F800
03FC00
01FC00
00FE00
00FF00
007F00
003F00
001F80
001F80
000F80
300F80
780F80
FC0F00
FC0F00
FC1E00
7C3C00
7FF800
1FF000
010000
ENDCHAR
STARTCHAR 0074
ENCODING 116
SWIDTH 351 0
DWIDTH 19 0
BBX 17 37 2 -1
BITMAP
007C00
007C00
007C00
00F800
00F800
00F800
01F000
01F000
01F000
3FFF80
7FFF80
7FFF80
03E000
07C000
07C000
07C000
0F8000
0F8000
0F8000
1F0000
1F0000
1F0000
3E0000
3E0000
3E0000
3E0000
7C0400
7C0E00
7C0C00
781C00
F83800
F87000
FFE000
FFC000
FF8000
7E0000
100000
ENDCHAR
STARTCHAR 0075
ENCODING 117
SWIDTH 592 0
DWIDTH 32 0
BBX 29 29 1 -1
BITMAP
00F001F0
03F803F0
07F803E0
0FF803E0
1CF807E0
39F807C0
71F807C0
61F00FC0
C1F00F80
03F00F80
03E01F80
07E01F00
07C03F00
07C03F00
0FC07E00
0F807E00
1F80FE00
1F80FC00
1F01FC00
3F01FC10
3E03FC18
3E07F830
3E0EF870
7E1EF860
7E3CF8E0
7F78FFC0
3FF0FF80
3FE0FF00
1FC07C00
ENDCHAR
STARTCHAR 0076
ENCODING 118
SWIDTH 574 0
DWIDTH 31 0
BBX 29 30 1 -1
BITMAP
0F80C1E0
3FE3C1F0
7FFF81F0
73FF01F8
F1FF01F8
F8FE01F8
F81C01F8
FC3C00F0
F87800F0
707800F0
00F000F0
00F000F0
01F000E0
01E001E0
03E001E0
03E001C0
03E003C0
07C00380
07C00780
07C00700
07C00F00
07E01E00
07E01C00
07E03C00
07F07800
07F9F000
03FFE000
01FF8000
00FF0000
00300000
ENDCHAR
STARTCHAR 0077
ENCODING 119
SWIDTH 833 0
DWIDTH 45 0
BBX 43 30 1 -1
BITMAP
0F81C03C03C0
1FE3C07C07E0
3FFF80FE07E0
73FF01FE07E0
71FF01DE07E0
F87E039E03E0
F81C039E03E0
FC38071C03E0
7C38071C03E0
3870071C03E0
00F0073C03E0
00E00F3803C0
01E00F3803C0
01E00F7003C0
03C00F700380
03C00FE00780
07C00FC00780
07C00FC00700
07800F800F00
07800F800E00
0F800F801E00
0F801F803C00
0FC03FC03C00
0FC07FE07800
0FE0F7F1F000
07FFE3FFE000
07FFC3FFC000
03FF81FF8000
01FE00FE0000
006000100000
ENDCHAR
STARTCHAR 0078
ENCODING 120
SWIDTH 574 0
DWIDTH 31 0
BBX 34 30 -3 -1
BITMAP
0003E03F00
000FF07F80
001FF0FF80
007CF9CFC0
00F07B0FC0
01E07F0780
01C07E0780
03807E0000
07007C0000
0000FC0000
0000F80000
0000F80000
0000F80000
0001F80000
0001F00000
0001F00000
0003F00000
0003F00000
0003F00000
0007E00000
0007E00000
0007E00700
780FE00E00
7C1DE01C00
FC1DE03C00
FC39F07800
FFF0F9F000
7FE0FFC000
3F807F8000
00000C0000
ENDCHAR
STARTCHAR 0079
ENCODING 121
SWIDTH 500 0
DWIDTH 27 0
BBX 33 43 -6 -14
BITMAP
001E000700
003F000F80
007F001F80
007F801F80
00FF801F80
01FF801F80
0187C00F80
0187C00F00
0383C00F00
0303E00F00
0303E00F00
0303E00E00
0001E01E00
0001F01C00
0001F01C00
0001F03800
0001F03800
0000F07000
0000F87000
0000F8E000
0000F8E000
0000F9C000
0000FBC000
00007F8000
00007F8000
00007F0000
00007E0000
00007E0000
00003C0000
0000780000
0000780000
0000F00000
0001E00000
0001C00000
0003C00000
0007800000
700F000000
F81E000000
FC3C000000
FCF8000000
FFE0000000
7FC0000000
3F00000000
ENDCHAR
STARTCHAR 007A
ENCODING 122
SWIDTH 518 0
DWIDTH 28 0
BBX 26 29 0 -1
BITMAP
00FE0080
03FF01C0
07FFC1C0
0F7FE3C0
1C1FFF80
1C07FF00
1E01FE00
1F00FC00
1F807800
1F80F000
0F81E000
0203C000
00078000
000F0000
001E0000
003C0000
00780000
00F00000
01E00000
03C00000
07800180
0FF00180
1FFC0380
3FFF0700
7FFFFF00
F0FFFE00
F07FFC00
E01FF800
E00FF000
ENDCHAR
STARTCHAR 007B
ENCODING 123
SWIDTH 333 0
DWIDTH 18 0
BBX 22 53 1 -8
BITMAP
00001C
0001FC
0003E0
0007C0
000F80
000F80
001F00
001F00
001F00
001E00
003E00
003E00
003E00
007C00
007C00
007C00
007800
00F800
00F800
00F800
01F000
01F000
01E000
03E000
07C000
1F0000
7C0000
3F0000
0F8000
0F8000
0F8000
0F8000
0F8000
0F8000
0F8000
1F0000
1F0000
1F0000
1F0000
3E0000
3E0000
3E0000
3C0000
7C0000
7C0000
7C0000
780000
F80000
F80000
F80000
7C0000
7F0000
1F0000
ENDCHAR
STARTCHAR 007C
ENCODING 124
SWIDTH 333 0
DWIDTH 18 0
BBX 4 58 7 -14
BITMAP
F0
F0
F0
F0
F0
F0
F0
F0
F0
F0
F0
F0
F0
F0
F0
F0
F0
F0
F0
F0
F0
F0
F0
F0
F0
F0
F0
F0
F0
F0
F0
F0
F0
F0
F0
F0
F0
F0
F0
F0
F0
F0
F0
F0
F0
F0
F0
F0
F0
F0
F0
F0
F0
F0
F0
F0
F0
F0
ENDCHAR
STARTCHAR 007D
ENCODING 125
SWIDTH 333 0
DWIDTH 18 0
BBX 21 53 -4 -8
BITMAP
0003C0
0003F0
0000F8
0000F8
000078
000078
0000F8
0000F8
0000F8
0000F8
0001F0
0001F0
0001F0
0001F0
0003E0
0003E0
0003E0
0003C0
0007C0
0007C0
0007C0
0007C0
0007C0
0007C0
0007C0
0003F0
0000F8
0003E0
000F80
001F00
001F00
003E00
003E00
007C00
007C00
007C00
00F800
00F800
00F800
00F800
01F000
01F000
01F000
01E000
03E000
03E000
03E000
07C000
07C000
0F8000
1F0000
7E0000
F80000
ENDCHAR
STARTCHAR 007E
ENCODING 126
SWIDTH 518 0
DWIDTH 28 0
BBX 20 7 4 13
BITMAP
0C0000
3FE030
7FFC30
7FFFF0
F7FFE0
C07FC0
C00780
ENDCHAR
STARTCHAR 00A0
ENCODING 160
SWIDTH 259 0
DWIDTH 14 0
BBX 0 0 0 0
BITMAP
ENDCHAR
STARTCHAR 00A1
ENCODING 161
SWIDTH 314 0
DWIDTH 17 0
BBX 13 43 3 -1
BITMAP
00F0
01F8
03F8
03F8
01F8
01F0
0060
0000
0000
0000
0000
0000
0180
0180
0180
0180
0380
0380
0380
0300
0700
0700
0700
0F00
0F00
0F00
1F00
1F00
1E00
3E00
3E00
7E00
7E00
7E00
FE00
FE00
FE00
FC00
FC00
FC00
FC00
F800
2000
ENDCHAR
STARTCHAR 00A2
ENCODING 162
SWIDTH 462 0
DWIDTH 25 0
BBX 23 46 1 -8
BITMAP
000038
000070
000070
000070
0000E0
0000E0
0000E0
0001C0
0001C0
0007F0
001FF8
003F7C
00787C
00F07E
01E07E
03C07C
07C018
0F8000
0F8000
1F0000
1F0000
3E0000
3E0000
7E0000
7C0000
7C0000
FC0000
FC0000
FC0000
FC0060
FC00E0
FC00C0
FC01C0
7E0380
7E0F00
3FFE00
1FFC00
0FF000
030000
070000
070000
070000
0E0000
0E0000
0E0000
1C0000
ENDCHAR
STARTCHAR 00A3
ENCODING 163
SWIDTH 666 0
DWIDTH 36 0
BBX 37 43 -1 -1
BITMAP
000000FF80
000003FFE0
00000FFFF0
00001F01F8
00003E00F8
00007C00F8
0000F800F8
0000F800F8
0001F000F8
0001F001F0
0003F000C0
0003F00000
0003F00000
0003F00000
0007F00000
0007F00000
0007F00000
0007F00000
0007F00000
01FFFFFE00
03FFFFFE00
0003F00000
0003F00000
0003F00000
0003E00000
0003E00000
0003E00000
0003E00000
0003E00000
0003C00000
0003C00000
0007C00000
0007800000
0FC7800000
3FF7000080
7FFE000380
78FF800F00
F01FFFFF00
F07FFFFE00
FBF3FFFC00
FFE0FFF800
7F803FF000
0800030000
ENDCHAR
STARTCHAR 00A4
ENCODING 164
SWIDTH 685 0
DWIDTH 37 0
BBX 26 26 5 1
BITMAP
60000180
F03F03C0
79FFE780
3FFFFF00
1F807E00
0F003C00
1E000E00
1C000F00
38000700
38000700
30000380
70000380
70000380
70000380
70000380
30000380
38000700
38000700
1C000E00
1E001E00
1F003E00
3FE1FF00
7BFFF780
F0FFC3C0
600001C0
00000080
ENDCHAR
STARTCHAR 00A5
ENCODING 165
SWIDTH 759 0
DWIDTH 41 0
BBX 37 42 8 0
BITMAP
FFFE01FFF8
FFFE01FFF0
FFFE01FFF0
1FE0003F80
0FE0001F00
07E0001E00
07E0003C00
03F0003C00
03F0007800
01F800F000
01F800E000
01F801E000
00FC03C000
00FC038000
007E078000
007E0F0000
003E0E0000
003F1C0000
003F3C0000
001FB80000
001FF00000
0FFFFFF800
0FFFFFF000
1FFFFFF000
000FC00000
000FC00000
000FC00000
000F800000
001F800000
3FFFFFC000
7FFFFFC000
7FFFFFC000
003F000000
003F000000
003E000000
007E000000
007E000000
007E000000
00FF000000
03FFC00000
3FFFF00000
3FFFF00000
ENDCHAR
STARTCHAR 00A6
ENCODING 166
SWIDTH 333 0
DWIDTH 18 0
BBX 4 51 7 -10
BITMAP
F0
F0
F0
F0
F0
F0
F0
F0
F0
F0
F0
F0
F0
F0
F0
F0
F0
F0
F0
F0
F0
00
00
00
00
00
00
00
00
00
F0
F0
F0
F0
F0
F0
F0
F0
F0
F0
F0
F0
F0
F0
F0
F0
F0
F0
F0
F0
F0
ENDCHAR
STARTCHAR 00A7
ENCODING 167
SWIDTH 611 0
DWIDTH 33 0
BBX 33 54 0 -9
BITMAP
00000FC000
00007FF800
0001FE7E00
0007FC1F00
000FB81F00
001E781F80
003C781F80
007CF81F80
0078F81F80
00F8F81F80
00F8F80F00
00F8F80000
00F8F80000
01F8F80000
01F8FC0000
01F8FC0000
01F87C0000
01F87C0000
01F87E0000
01F87E0000
00FC3E0000
00FC3F0000
00FC3F0000
00FC3F0000
00FC1F0000
007E1F8000
007E1F8000
007E1F8000
007E0FC000
003F0FC000
003F0FC000
003F0FC000
003F07E000
001F87E000
001F87E000
001F87E000
001F87E000
000F87E000
000F83E000
000FC3E000
000FC3E000
000FC3E000
0007C7E000
1007C7C000
7C07C7C000
FC07C78000
FC07CF8000
FE078F0000
FE0F9E0000
FE0F3E0000
7E0F780000
3F3DF00000
1FFFC00000
07FF000000
ENDCHAR
STARTCHAR 00A8
ENCODING 168
SWIDTH 314 0
DWIDTH 17 0
BBX 15 6 1 35
BITMAP
7C3E
7C3E
FC7E
FC7E
F87C
7038
ENDCHAR
STARTCHAR 00A9
ENCODING 169
SWIDTH 907 0
DWIDTH 49 0
BBX 42 43 5 -1
BITMAP
0000FFC00000
0007FFF80000
001FF7FE0000
007E001F0000
00F00007C000
01E00001E000
03800000F000
070000007800
0E0000003C00
1E003F0C1C00
1C01FFEC0E00
3803F1FC0E00
3807803C0700
700F001C0700
701E000C0380
603E000C0380
E03C000C0180
E03C00000180
E07C000001C0
E07C000001C0
E07C000001C0
E07C000001C0
E07C000001C0
E07C000001C0
E07C00000180
E07C00000180
603C000C0380
703E000C0380
701F00180300
300F00380700
380FC0700700
3803FFE00E00
1C00FF801E00
0E0004001C00
0F0000003800
078000007000
03C00001E000
01F00003C000
00FC000F8000
003F807E0000
000FFFFC0000
0003FFE00000
000008000000
ENDCHAR
STARTCHAR 00AA
ENCODING 170
SWIDTH 370 0
DWIDTH 20 0
BBX 15 15 7 27
BITMAP
03EE
07FC
0E3C
1C38
3838
7838
7070
7070
F0F0
E0F0
E1E2
F3E4
FEF8
7CF0
1040
ENDCHAR
STARTCHAR 00AB
ENCODING 171
SWIDTH 462 0
DWIDTH 25 0
BBX 21 16 2 7
BITMAP
007018
00E070
01C0E0
0781C0
0F0780
1E0F00
7C1E00
F87C00
F87C00
783C00
3C1E00
1C0E00
1E0700
0E0700
060380
030180
ENDCHAR
STARTCHAR 00AC
ENCODING 172
SWIDTH 666 0
DWIDTH 36 0
BBX 25 14 5 6
BITMAP
FFFFFF80
FFFFFF80
FFFFFF80
00000380
00000380
00000380
00000380
00000380
00000380
00000380
00000380
00000380
00000380
00000380
ENDCHAR
STARTCHAR 00AD
ENCODING 173
SWIDTH 481 0
DWIDTH 26 0
BBX 17 5 4 13
BITMAP
FFFF80
FFFF80
FFFF80
FFFF80
FFFF80
ENDCHAR
STARTCHAR 00AE
ENCODING 174
SWIDTH 907 0
DWIDTH 49 0
BBX 42 43 5 -1
BITMAP
0000FFC00000
0007FFF80000
001FF7FE0000
007E001F0000
00F00007C000
01E00001E000
03800000F000
070000007800
0E0000003C00
1E3FFF801C00
1C0F87E00E00
380781F00E00
380780F00700
700780F80700
700780F80380
600780F80380
E00780F80180
E00780F00180
E00781F001C0
E0079FC001C0
E007FF0001C0
E007BF0001C0
E0078F0001C0
E0078F8001C0
E00787C00180
E00783E00180
600781F00380
700780F80380
700780780300
3007807C0700
380FC03F0700
383FF81F8E00
1C0000001E00
0E0000001C00
0F0000003800
078000007000
03C00001E000
01F00003C000
00FC000F8000
003F807E0000
000FFFFC0000
0003FFE00000
000008000000
ENDCHAR
STARTCHAR 00AF
ENCODING 175
SWIDTH 296 0
DWIDTH 16 0
BBX 15 3 1 38
BITMAP
FFFE
FFFE
FFFC
ENDCHAR
STARTCHAR 00B0
ENCODING 176
SWIDTH 333 0
DWIDTH 18 0
BBX 13 13 7 29
BITMAP
0FC0
1FE0
3030
6018
4018
4008
C008
4008
6018
6018
3030
1FE0
0780
ENDCHAR
STARTCHAR 00B1
ENCODING 177
SWIDTH 648 0
DWIDTH 35 0
BBX 25 33 5 5
BITMAP
001C0000
001C0000
001C0000
001C0000
001C0000
001C0000
001C0000
001C0000
001C0000
001C0000
001C0000
FFFFFF80
FFFFFF80
FFFFFF80
001C0000
001C0000
001C0000
001C0000
001C0000
001C0000
001C0000
001C0000
001C0000
001C0000
001C0000
00000000
00000000
00000000
00000000
00000000
FFFFFF80
FFFFFF80
FFFFFF80
ENDCHAR
STARTCHAR 00B2
ENCODING 178
SWIDTH 277 0
DWIDTH 15 0
BBX 13 17 5 25
BITMAP
07E0
0E70
1838
3838
3838
3838
1C70
0070
00E0
01C0
0380
0700
0C00
1820
30E0
7FE0
FFC0
ENDCHAR
STARTCHAR 00B3
ENCODING 179
SWIDTH 277 0
DWIDTH 15 0
BBX 13 17 5 25
BITMAP
07E0
0E70
1C30
1838
1C30
0030
00E0
0780
0FC0
00E0
0070
7870
E070
E060
E0E0
7FC0
3F00
ENDCHAR
STARTCHAR 00B4
ENCODING 180
SWIDTH 259 0
DWIDTH 14 0
BBX 13 8 1 35
BITMAP
00F8
01F8
03F0
07F0
0FC0
1F00
3800
E000
ENDCHAR
STARTCHAR 00B5
ENCODING 181
SWIDTH 666 0
DWIDTH 36 0
BBX 32 43 0 -14
BITMAP
001E003E
007F003E
00FF003E
01FF007E
03FF007C
073F007C
0E3E00FC
1C3E00F8
183E01F8
007C01F8
007C01F0
007C03F0
00F803F0
00F803E0
00F807E0
01F007E0
01F00FC0
01F00FC0
03E01FC0
03E03F81
03E03F83
03E07F83
07E0EF86
07E1EF0E
07E3CF1C
0FE7CFF8
0FFF8FF0
0FFF0FE0
1F7E07C0
1F000200
1F000000
3F000000
3E000000
3E000000
3E000000
7E000000
7E000000
7E000000
7C000000
FC000000
FC000000
FC000000
78000000
ENDCHAR
STARTCHAR 00B6
ENCODING 182
SWIDTH 537 0
DWIDTH 29 0
BBX 33 56 0 -14
BITMAP
000007FF80
0000FFFF00
0007FFFF00
000FFFF800
003FFFF000
007FFFF000
00FFFFE000
00FFFFE000
01FFFFE000
01FFFFC000
03FFFFC000
03FFFFC000
03FFFFC000
03FFFF8000
03FFFF8000
03FFFF8000
03FFFF8000
03FFFF0000
03FFFF0000
01FFFF0000
01FFFF0000
00FFFE0000
007FFE0000
000FFE0000
00007E0000
00007C0000
00007C0000
00007C0000
0000FC0000
0000F80000
0000F80000
0000F80000
0001F80000
0001F00000
0001F00000
0001F00000
0003F00000
0003E00000
0003E00000
0003E00000
0007C00000
0007C00000
0007C00000
0007C00000
000F800000
000F800000
000F800000
001F000000
001F000000
701E000000
783E000000
FC3C000000
FC78000000
7FF0000000
7FE0000000
1F80000000
ENDCHAR
STARTCHAR 00B7
ENCODING 183
SWIDTH 259 0
DWIDTH 14 0
BBX 7 7 3 11
BITMAP
7C
7E
FE
FE
7E
7E
18
ENDCHAR
STARTCHAR 00B8
ENCODING 184
SWIDTH 222 0
DWIDTH 12 0
BBX 14 15 -1 -14
BITMAP
00E0
00E0
01C0
0380
0380
07F0
0FF8
00FC
007C
607C
7078
F0F8
79F0
7FE0
1F80
ENDCHAR
STARTCHAR 00B9
ENCODING 185
SWIDTH 259 0
DWIDTH 14 0
BBX 9 17 6 25
BITMAP
0080
0380
1F80
1B80
0300
0300
0700
0700
0600
0600
0E00
0E00
0C00
1C00
1C00
7F00
FF00
ENDCHAR
STARTCHAR 00BA
ENCODING 186
SWIDTH 333 0
DWIDTH 18 0
BBX 13 15 7 27
BITMAP
03E0
0F70
1C38
3C38
3838
7838
7038
F078
F078
F070
F0F0
70E0
71C0
3F80
0C00
ENDCHAR
STARTCHAR 00BB
ENCODING 187
SWIDTH 462 0
DWIDTH 25 0
BBX 21 17 1 6
BITMAP
040000
0E0300
060380
070380
0381C0
03C1E0
01E0F0
01E0F8
01F078
01F0F8
03C1F0
0783C0
0F0780
1C0F00
381C00
703800
C02000
ENDCHAR
STARTCHAR 00BC
ENCODING 188
SWIDTH 629 0
DWIDTH 34 0
BBX 36 42 0 0
BITMAP
0002000070
000E0000E0
007E0001C0
006E0003C0
000C000380
001C000700
001C000E00
001C001C00
0018003C00
0038003800
0038007000
003000E000
003001C000
007003C000
0070038000
01FC070000
03FC0E0000
00001C0000
00003C0000
0000780000
0000700000
0000E00000
0001C00000
0003C00000
0007800000
0007000800
000E001800
001E003800
003C007000
007801B000
0070033000
00E0067000
01E00C6000
03C0186000
078030E000
07003FF800
0E0000C000
1E0000C000
3C0001C000
780001C000
F000018000
E000018000
ENDCHAR
STARTCHAR 00BD
ENCODING 189
SWIDTH 648 0
DWIDTH 35 0
BBX 36 42 0 0
BITMAP
0002000070
000E0000E0
007E0001C0
006E0003C0
000C000380
000C000700
001C000E00
001C001C00
0018003C00
0018003800
0038007000
003800E000
003001E000
007003C000
0070038000
01FC070000
03FC0E0000
00001E0000
00003C0000
0000380000
0000700000
0000E00000
0001E00000
0003C00000
0003800000
000700F800
000E03FC00
001E070E00
003C060E00
0078060E00
0070060E00
00E0078E00
01E0001C00
03C0001800
0780003000
0700006000
0E0000C000
1E00018000
3C00070400
78000C0800
70001FF800
E0001FF800
ENDCHAR
STARTCHAR 00BE
ENCODING 190
SWIDTH 648 0
DWIDTH 35 0
BBX 36 42 1 0
BITMAP
003E000070
00E78000F0
00C38000E0
00C38001C0
00E3800380
0003000700
0006000F00
007C000E00
007E001C00
0007003800
0007007000
038700F000
070700E000
060701C000
060E038000
07BC070000
01F00F0000
00000E0000
00001C0000
0000380000
0000700000
0000F00000
0001E00000
0001C00000
0003800000
0007000C00
000F001800
001E003800
001C007800
003800F800
007001B000
00F0033000
01E0067000
01C0087000
0380106000
07803FFC00
0F0000E000
1E0000E000
1C0000C000
380000C000
780001C000
F000018000
ENDCHAR
STARTCHAR 00BF
ENCODING 191
SWIDTH 462 0
DWIDTH 25 0
BBX 19 43 1 -1
BITMAP
0003C0
0007E0
000FE0
000FE0
0007E0
0007C0
000100
000000
000000
000000
000000
001F80
007FC0
0061C0
00C0E0
0000E0
0000E0
0001E0
0003C0
0007C0
001FC0
003F80
00FF00
01FE00
07FC00
0FF800
1FE000
3FC000
3F0000
7E0F00
7C1F80
F81FC0
F01FE0
F00FE0
F003E0
F001E0
F001E0
7003C0
7803C0
3E0F80
1FFF00
0FFC00
004000
ENDCHAR
STARTCHAR 00C0
ENCODING 192
SWIDTH 759 0
DWIDTH 41 0
BBX 43 52 -6 0
BITMAP
00000000E000
00000001F800
00000001FE00
00000000FF00
000000003FC0
0000000003E0
000000000000
000000000000
000000000000
000000000000
0000000003E0
0000000007E0
0000000007E0
000000000FC0
000000001FC0
000000003FC0
000000007FC0
00000000F7C0
00000001EF80
00000001EF80
00000003CF80
000000078F80
0000000F1F00
0000001E1F00
0000003C1F00
0000003C1F00
000000783F00
000000F03E00
000001E03E00
000003C03E00
000007807E00
000007807C00
00000F007C00
00001E007C00
00003FFFFC00
00007FFFF800
0000F000F800
0000E000F800
0001C000F800
00038001F800
00070001F000
000E0001F000
001E0001F000
003C0003F000
00780003E000
00F00003E000
01E00003E000
03E00007E000
07E00007E000
1FF0001FF800
7FFE00FFFF00
FFFC00FFFF00
ENDCHAR
STARTCHAR 00C1
ENCODING 193
SWIDTH 759 0
DWIDTH 41 0
BBX 55 52 -6 0
BITMAP
0000000000001C
0000000000007E
000000000001FC
000000000007F8
00000000001FC0
00000000007C00
00000000000000
00000000000000
00000000000000
00000000000000
0000000003E000
0000000007E000
0000000007E000
000000000FC000
000000001FC000
000000003FC000
000000007FC000
00000000F7C000
00000001EF8000
00000001EF8000
00000003CF8000
000000078F8000
0000000F1F0000
0000001E1F0000
0000003C1F0000
0000003C1F0000
000000783F0000
000000F03E0000
000001E03E0000
000003C03E0000
000007807E0000
000007807C0000
00000F007C0000
00001E007C0000
00003FFFFC0000
00007FFFF80000
0000F000F80000
0000E000F80000
0001C000F80000
00038001F80000
00070001F00000
000E0001F00000
001E0001F00000
003C0003F00000
00780003E00000
00F00003E00000
01E00003E00000
03E00007E00000
07E00007E00000
1FF0001FF80000
7FFE00FFFF0000
FFFC00FFFF0000
ENDCHAR
STARTCHAR 00C2
ENCODING 194
SWIDTH 759 0
DWIDTH 41 0
BBX 51 52 -6 0
BITMAP
0000000000FE00
0000000001FF00
0000000003FF80
0000000007CF80
000000001F03C0
000000003800E0
00000000000000
00000000000000
00000000000000
00000000000000
0000000003E000
0000000007E000
0000000007E000
000000000FC000
000000001FC000
000000003FC000
000000007FC000
00000000F7C000
00000001EF8000
00000001EF8000
00000003CF8000
000000078F8000
0000000F1F0000
0000001E1F0000
0000003C1F0000
0000003C1F0000
000000783F0000
000000F03E0000
000001E03E0000
000003C03E0000
000007807E0000
000007807C0000
00000F007C0000
00001E007C0000
00003FFFFC0000
00007FFFF80000
0000F000F80000
0000E000F80000
0001C000F80000
00038001F80000
00070001F00000
000E0001F00000
001E0001F00000
003C0003F00000
00780003E00000
00F00003E00000
01E00003E00000
03E00007E00000
07E00007E00000
1FF0001FF80000
7FFE00FFFF0000
FFFC00FFFF0000
ENDCHAR
STARTCHAR 00C3
ENCODING 195
SWIDTH 759 0
DWIDTH 41 0
BBX 52 52 -6 0
BITMAP
00000000038030
000000000FF030
000000001FFE70
000000001FFFE0
0000000039FFE0
00000000303FC0
00000000000700
00000000000000
00000000000000
00000000000000
0000000003E000
0000000007E000
0000000007E000
000000000FC000
000000001FC000
000000003FC000
000000007FC000
00000000F7C000
00000001EF8000
00000001EF8000
00000003CF8000
000000078F8000
0000000F1F0000
0000001E1F0000
0000003C1F0000
0000003C1F0000
000000783F0000
000000F03E0000
000001E03E0000
000003C03E0000
000007807E0000
000007807C0000
00000F007C0000
00001E007C0000
00003FFFFC0000
00007FFFF80000
0000F000F80000
0000E000F80000
0001C000F80000
00038001F80000
00070001F00000
000E0001F00000
001E0001F00000
003C0003F00000
00780003E00000
00F00003E00000
01E00003E00000
03E00007E00000
07E00007E00000
1FF0001FF80000
7FFE00FFFF0000
FFFC00FFFF0000
ENDCHAR
STARTCHAR 00C4
ENCODING 196
SWIDTH 759 0
DWIDTH 41 0
BBX 51 52 -6 0
BITMAP
000000000300C0
000000000F83E0
000000000F83E0
000000000F87E0
000000000F03C0
00000000060100
00000000000000
00000000000000
00000000000000
00000000000000
0000000003E000
0000000007E000
0000000007E000
000000000FC000
000000001FC000
000000003FC000
000000007FC000
00000000F7C000
00000001EF8000
00000001EF8000
00000003CF8000
000000078F8000
0000000F1F0000
0000001E1F0000
0000003C1F0000
0000003C1F0000
000000783F0000
000000F03E0000
000001E03E0000
000003C03E0000
000007807E0000
000007807C0000
00000F007C0000
00001E007C0000
00003FFFFC0000
00007FFFF80000
0000F000F80000
0000E000F80000
0001C000F80000
00038001F80000
00070001F00000
000E0001F00000
001E0001F00000
003C0003F00000
00780003E00000
00F00003E00000
01E00003E00000
03E00007E00000
07E00007E00000
1FF0001FF80000
7FFE00FFFF0000
FFFC00FFFF0000
ENDCHAR
STARTCHAR 00C5
ENCODING 197
SWIDTH 759 0
DWIDTH 41 0
BBX 47 52 -6 0
BITMAP
000000000038
00000000007C
0000000000C6
000000000184
00000000018C
0000000001F8
0000000000F0
000000000000
000000000000
000000000000
0000000003E0
0000000007E0
0000000007E0
000000000FC0
000000001FC0
000000003FC0
000000007FC0
00000000F7C0
00000001EF80
00000001EF80
00000003CF80
000000078F80
0000000F1F00
0000001E1F00
0000003C1F00
0000003C1F00
000000783F00
000000F03E00
000001E03E00
000003C03E00
000007807E00
000007807C00
00000F007C00
00001E007C00
00003FFFFC00
00007FFFF800
0000F000F800
0000E000F800
0001C000F800
00038001F800
00070001F000
000E0001F000
001E0001F000
003C0003F000
00780003E000
00F00003E000
01E00003E000
03E00007E000
07E00007E000
1FF0001FF800
7FFE00FFFF00
FFFC00FFFF00
ENDCHAR
STARTCHAR 00C6
ENCODING 198
SWIDTH 1055 0
DWIDTH 57 0
BBX 60 42 -4 0
BITMAP
00000007FFFFFFF0
00000007FFFFFFF0
0000000FFFFFFFF0
000000003FC007F0
000000003F8003F0
000000007F8001F0
00000000FF8000F0
00000000EF800070
00000001EF800070
00000003DF000070
000000079F000030
0000000F1F000000
0000001E1F000000
0000003C3E00C000
0000003C3E00C000
000000783E01C000
000000F03E03C000
000001E07E03C000
000003C07C0F8000
000007807FFF8000
000007807FFF8000
00000F00FC1F8000
00001E00F8078000
00003C00F8070000
00007FFFF8070000
0000FFFFF8070000
0000F001F0070000
0001E001F0070000
0003C001F0060000
00078001F0000000
000F0003F0000000
001E0003E00001C0
003C0003E00001C0
00380003E0000380
00700007E0000380
00E00007E0000780
01C00007C0000F00
07C0000FC0001F00
0FC0000FE0007E00
3FE0003FFC1FFE00
FFFC01FFFFFFFE00
FFFC01FFFFFFFC00
ENDCHAR
STARTCHAR 00C7
ENCODING 199
SWIDTH 722 0
DWIDTH 39 0
BBX 37 56 4 -14
BITMAP
00003FE018
0001FFFC30
0007FFFF70
000FE01FF0
003F8007F0
007E0003F0
00FC0003F0
01F80001E0
03F00001E0
07E00001E0
07E00000E0
0FC00000E0
1F800000C0
1F800000C0
3F80000000
3F00000000
3F00000000
7F00000000
7E00000000
7E00000000
FE00000000
FE00000000
FE00000000
FE00000000
FC00000000
FC00000000
FC00000000
FE00000000
FE00000000
FE00000000
FE00000000
7E00000600
7E00000600
7F00000E00
3F00001C00
3F80003800
1FC0007000
0FE001E000
07F807C000
03FFFF8000
01FFFF0000
007FFC0000
0001C00000
0003800000
0003800000
0007000000
000FF00000
000FF80000
0000F80000
0000780000
0060780000
00E0780000
00F0F00000
00F1F00000
007FC00000
003F000000
ENDCHAR
STARTCHAR 00C8
ENCODING 200
SWIDTH 722 0
DWIDTH 39 0
BBX 39 52 -1 0
BITMAP
0000070000
00000FC000
00000FE000
00000FF800
000001FC00
0000001F00
0000000000
0000000000
0000000000
0000000000
003FFFFFFE
007FFFFFFE
007FFFFFFE
0003F800FE
0003F8003E
0003F0003E
0003F0001E
0003F0000E
0003E0000E
0003E00006
0007E00006
0007E00000
0007C00000
0007C01C00
000FC01800
000FC03800
000F803800
000F807800
001F81F800
001FFFF000
001FFFF000
001F03F000
003F00F000
003E00E000
003E00E000
007E00E000
007E00E000
007C00E000
007C00C000
00FC000000
00FC000000
00F8000038
00F8000038
01F8000070
01F8000070
01F80000F0
03F80001E0
03F80003E0
07FC000FE0
1FFFC3FFC0
FFFFFFFFC0
FFFFFFFF80
ENDCHAR
STARTCHAR 00C9
ENCODING 201
SWIDTH 722 0
DWIDTH 39 0
BBX 39 52 -1 0
BITMAP
0000000070
00000003F0
0000000FF0
0000003FE0
000000FF00
000001E000
0000020000
0000000000
0000000000
0000000000
003FFFFFFE
007FFFFFFE
007FFFFFFE
0003F800FE
0003F8003E
0003F0003E
0003F0001E
0003F0000E
0003E0000E
0003E00006
0007E00006
0007E00000
0007C00000
0007C01C00
000FC01800
000FC03800
000F803800
000F807800
001F81F800
001FFFF000
001FFFF000
001F03F000
003F00F000
003E00E000
003E00E000
007E00E000
007E00E000
007C00E000
007C00C000
00FC000000
00FC000000
00F8000038
00F8000038
01F8000070
01F8000070
01F80000F0
03F80001E0
03F80003E0
07FC000FE0
1FFFC3FFC0
FFFFFFFFC0
FFFFFFFF80
ENDCHAR
STARTCHAR 00CA
ENCODING 202
SWIDTH 722 0
DWIDTH 39 0
BBX 39 52 -1 0
BITMAP
0000007F00
000000FF00
000003FF80
000007EFC0
00000F03E0
00001C00E0
0000000000
0000000000
0000000000
0000000000
003FFFFFFE
007FFFFFFE
007FFFFFFE
0003F800FE
0003F8003E
0003F0003E
0003F0001E
0003F0000E
0003E0000E
0003E00006
0007E00006
0007E00000
0007C00000
0007C01C00
000FC01800
000FC03800
000F803800
000F807800
001F81F800
001FFFF000
001FFFF000
001F03F000
003F00F000
003E00E000
003E00E000
007E00E000
007E00E000
007C00E000
007C00C000
00FC000000
00FC000000
00F8000038
00F8000038
01F8000070
01F8000070
01F80000F0
03F80001E0
03F80003E0
07FC000FE0
1FFFC3FFC0
FFFFFFFFC0
FFFFFFFF80
ENDCHAR
STARTCHAR 00CB
ENCODING 203
SWIDTH 722 0
DWIDTH 39 0
BBX 39 52 -1 0
BITMAP
00000380C0
00000781E0
00000FC3E0
00000F83E0
00000F83C0
0000040100
0000000000
0000000000
0000000000
0000000000
003FFFFFFE
007FFFFFFE
007FFFFFFE
0003F800FE
0003F8003E
0003F0003E
0003F0001E
0003F0000E
0003E0000E
0003E00006
0007E00006
0007E00000
0007C00000
0007C01C00
000FC01800
000FC03800
000F803800
000F807800
001F81F800
001FFFF000
001FFFF000
001F03F000
003F00F000
003E00E000
003E00E000
007E00E000
007E00E000
007C00E000
007C00C000
00FC000000
00FC000000
00F8000038
00F8000038
01F8000070
01F8000070
01F80000F0
03F80001E0
03F80003E0
07FC000FE0
1FFFC3FFC0
FFFFFFFFC0
FFFFFFFF80
ENDCHAR
STARTCHAR 00CC
ENCODING 204
SWIDTH 407 0
DWIDTH 22 0
BBX 27 52 -1 0
BITMAP
00078000
000FC000
000FF000
0007F800
0001FE00
00001F00
00000000
00000000
00000000
00000000
003FFFE0
007FFFE0
007FFFE0
0003FE00
0003F800
0003F800
0003F000
0003F000
0003F000
0003E000
0007E000
0007E000
0007E000
0007C000
000FC000
000FC000
000F8000
000F8000
001F8000
001F8000
001F0000
001F0000
003F0000
003F0000
003E0000
007E0000
007E0000
007E0000
007C0000
00FC0000
00FC0000
00F80000
00F80000
01F80000
01F80000
01F80000
03F00000
03F80000
07F80000
1FFE0000
FFFF8000
FFFF8000
ENDCHAR
STARTCHAR 00CD
ENCODING 205
SWIDTH 407 0
DWIDTH 22 0
BBX 29 52 -1 0
BITMAP
00000070
000001F8
000007F0
00001FE0
00007F00
0001F000
00000000
00000000
00000000
00000000
003FFFE0
007FFFE0
007FFFE0
0003FE00
0003F800
0003F800
0003F000
0003F000
0003F000
0003E000
0007E000
0007E000
0007E000
0007C000
000FC000
000FC000
000F8000
000F8000
001F8000
001F8000
001F0000
001F0000
003F0000
003F0000
003E0000
007E0000
007E0000
007E0000
007C0000
00FC0000
00FC0000
00F80000
00F80000
01F80000
01F80000
01F80000
03F00000
03F80000
07F80000
1FFE0000
FFFF8000
FFFF8000
ENDCHAR
STARTCHAR 00CE
ENCODING 206
SWIDTH 407 0
DWIDTH 22 0
BBX 28 52 -1 0
BITMAP
00003F00
0000FF80
0001FFC0
0003E7E0
000781E0
001E0070
00000000
00000000
00000000
00000000
003FFFE0
007FFFE0
007FFFE0
0003FE00
0003F800
0003F800
0003F000
0003F000
0003F000
0003E000
0007E000
0007E000
0007E000
0007C000
000FC000
000FC000
000F8000
000F8000
001F8000
001F8000
001F0000
001F0000
003F0000
003F0000
003E0000
007E0000
007E0000
007E0000
007C0000
00FC0000
00FC0000
00F80000
00F80000
01F80000
01F80000
01F80000
03F00000
03F80000
07F80000
1FFE0000
FFFF8000
FFFF8000
ENDCHAR
STARTCHAR 00CF
ENCODING 207
SWIDTH 407 0
DWIDTH 22 0
BBX 29 52 -1 0
BITMAP
0001C070
0003E0F0
0007E1F8
0007C1F0
0007C1F0
000300C0
00000000
00000000
00000000
00000000
003FFFE0
007FFFE0
007FFFE0
0003FE00
0003F800
0003F800
0003F000
0003F000
0003F000
0003E000
0007E000
0007E000
0007E000
0007C000
000FC000
000FC000
000F8000
000F8000
001F8000
001F8000
001F0000
001F0000
003F0000
003F0000
003E0000
007E0000
007E0000
007E0000
007C0000
00FC0000
00FC0000
00F80000
00F80000
01F80000
01F80000
01F80000
03F00000
03F80000
07F80000
1FFE0000
FFFF8000
FFFF8000
ENDCHAR
STARTCHAR 00D0
ENCODING 208
SWIDTH 833 0
DWIDTH 45 0
BBX 44 42 -1 0
BITMAP
003FFFC00000
003FFFFF8000
007FFFFFE000
0003FC0FF800
0001F801FC00
0001F0007E00
0001F0003F00
0003F0001F80
0003F0000FC0
0003E0000FC0
0007E00007E0
0007E00007E0
0007E00007E0
0007C00003F0
000FC00003F0
000FC00003F0
000F800003F0
000F800003F0
001F800003F0
001F800003F0
03FFFE0003F0
03FFFC0003F0
003F000007F0
003F000007E0
003E000007E0
003E000007E0
007E00000FC0
007E00000FC0
007C00001FC0
00FC00001F80
00FC00003F80
00F800003F00
00F800007E00
01F80000FC00
01F80001FC00
01F80003F800
03F80007F000
03F8001FC000
07FC007F8000
1FFF0FFE0000
FFFFFFF80000
FFFFFF000000
ENDCHAR
STARTCHAR 00D1
ENCODING 209
SWIDTH 833 0
DWIDTH 45 0
BBX 49 52 0 0
BITMAP
00000078060000
000001FE060000
000003FFCE0000
000003FFFC0000
0000071FFC0000
00000607F80000
00000000E00000
00000000000000
00000000000000
00000000000000
01FFE0001FFF80
03FFF0001FFF80
03FFF0001FFF00
001FF80007FC00
0007F80003F800
0007FC0001F000
0003FC0001E000
0003FC0001E000
0003FE0001C000
0003FE0001C000
0007BF0001C000
00073F0003C000
00073F80038000
00071F80038000
000F1FC0078000
000E0FC0078000
000E0FC0070000
000E07E0070000
001E07E00F0000
001C03F00E0000
001C03F00E0000
001C03F80E0000
003C01F81E0000
003801F81C0000
003800FC1C0000
007800FC1C0000
0078007E3C0000
0070007E380000
0070007F380000
00F0003F380000
00E0003FF80000
00E0001FF00000
00E0001FF00000
01E0000FF00000
01E0000FE00000
01C0000FE00000
03E00007E00000
07E00007E00000
0FF00003C00000
3FF80003C00000
FFFE0001C00000
FFFE0001C00000
ENDCHAR
STARTCHAR 00D2
ENCODING 210
SWIDTH 814 0
DWIDTH 44 0
BBX 38 53 4 -1
BITMAP
0000380000
00007E0000
00007F8000
00003FC000
00000FE000
000000F800
0000000000
0000000000
0000000000
0000000000
00003FF000
0001FFFC00
0007FFFF00
000FE01F80
003F8007C0
007E0003E0
00FC0003F0
01F80001F0
03F00001F8
07E00001F8
07E00001FC
0FC00000FC
1FC00000FC
1F800000FC
3F800000FC
3F000000FC
3F000000FC
7F000000FC
7E000000FC
7E000000FC
FE000001FC
FE000001FC
FE000001FC
FE000001F8
FE000001F8
FE000003F8
FE000003F8
FE000003F0
FE000007F0
FE000007E0
FE000007E0
7E00000FC0
7E00001F80
7F00001F80
3F00003F00
3F80007E00
1F8000FC00
0FC001F800
07E007E000
03FE7FC000
01FFFF0000
007FFC0000
0001800000
ENDCHAR
STARTCHAR 00D3
ENCODING 211
SWIDTH 814 0
DWIDTH 44 0
BBX 38 53 4 -1
BITMAP
0000000380
0000000FC0
0000003F80
000000FF00
000003F800
00000F8000
0000000000
0000000000
0000000000
0000000000
00003FF000
0001FFFC00
0007FFFF00
000FE01F80
003F8007C0
007E0003E0
00FC0003F0
01F80001F0
03F00001F8
07E00001F8
07E00001FC
0FC00000FC
1FC00000FC
1F800000FC
3F800000FC
3F000000FC
3F000000FC
7F000000FC
7E000000FC
7E000000FC
FE000001FC
FE000001FC
FE000001FC
FE000001F8
FE000001F8
FE000003F8
FE000003F8
FE000003F0
FE000007F0
FE000007E0
FE000007E0
7E00000FC0
7E00001F80
7F00001F80
3F00003F00
3F80007E00
1F8000FC00
0FC001F800
07E007E000
03FE7FC000
01FFFF0000
007FFC0000
0001800000
ENDCHAR
STARTCHAR 00D4
ENCODING 212
SWIDTH 814 0
DWIDTH 44 0
BBX 38 53 4 -1
BITMAP
000001FC00
000003FC00
00000FFE00
00001FBF00
00003C0F80
0000700380
0000000000
0000000000
0000000000
0000000000
00003FF000
0001FFFC00
0007FFFF00
000FE01F80
003F8007C0
007E0003E0
00FC0003F0
01F80001F0
03F00001F8
07E00001F8
07E00001FC
0FC00000FC
1FC00000FC
1F800000FC
3F800000FC
3F000000FC
3F000000FC
7F000000FC
7E000000FC
7E000000FC
FE000001FC
FE000001FC
FE000001FC
FE000001F8
FE000001F8
FE000003F8
FE000003F8
FE000003F0
FE000007F0
FE000007E0
FE000007E0
7E00000FC0
7E00001F80
7F00001F80
3F00003F00
3F80007E00
1F8000FC00
0FC001F800
07E007E000
03FE7FC000
01FFFF0000
007FFC0000
0001800000
ENDCHAR
STARTCHAR 00D5
ENCODING 213
SWIDTH 814 0
DWIDTH 44 0
BBX 38 53 4 -1
BITMAP
0000070060
00001FE060
00003FFCC0
00007FFFC0
000073FF80
0000607F80
0000000E00
0000000000
0000000000
0000000000
00003FF000
0001FFFC00
0007FFFF00
000FE01F80
003F8007C0
007E0003E0
00FC0003F0
01F80001F0
03F00001F8
07E00001F8
07E00001FC
0FC00000FC
1FC00000FC
1F800000FC
3F800000FC
3F000000FC
3F000000FC
7F000000FC
7E000000FC
7E000000FC
FE000001FC
FE000001FC
FE000001FC
FE000001F8
FE000001F8
FE000003F8
FE000003F8
FE000003F0
FE000007F0
FE000007E0
FE000007E0
7E00000FC0
7E00001F80
7F00001F80
3F00003F00
3F80007E00
1F8000FC00
0FC001F800
07E007E000
03FE7FC000
01FFFF0000
007FFC0000
0001800000
ENDCHAR
STARTCHAR 00D6
ENCODING 214
SWIDTH 814 0
DWIDTH 44 0
BBX 38 53 4 -1
BITMAP
0000060380
00001F07C0
00001F0FC0
00003F0FC0
00001E0F80
0000080200
0000000000
0000000000
0000000000
0000000000
00003FF000
0001FFFC00
0007FFFF00
000FE01F80
003F8007C0
007E0003E0
00FC0003F0
01F80001F0
03F00001F8
07E00001F8
07E00001FC
0FC00000FC
1FC00000FC
1F800000FC
3F800000FC
3F000000FC
3F000000FC
7F000000FC
7E000000FC
7E000000FC
FE000001FC
FE000001FC
FE000001FC
FE000001F8
FE000001F8
FE000003F8
FE000003F8
FE000003F0
FE000007F0
FE000007E0
FE000007E0
7E00000FC0
7E00001F80
7F00001F80
3F00003F00
3F80007E00
1F8000FC00
0FC001F800
07E007E000
03FE7FC000
01FFFF0000
007FFC0000
0001800000
ENDCHAR
STARTCHAR 00D7
ENCODING 215
SWIDTH 537 0
DWIDTH 29 0
BBX 20 20 5 9
BITMAP
C00060
E000F0
7001E0
3803C0
1C0780
0E0F00
071E00
03BC00
01F800
00F000
01F000
03F800
079C00
0F0E00
1E0700
3C0380
7801C0
F000E0
E00070
400020
ENDCHAR
STARTCHAR 00D8
ENCODING 216
SWIDTH 814 0
DWIDTH 44 0
BBX 41 48 3 -3
BITMAP
000000000780
000000000F00
000000000E00
00001FF81E00
0000FFFE3C00
0003FFFFF800
0007F00FF000
001FC003E000
003F0001F000
007E0003F800
00FC0007F800
01F80007FC00
03F0000EFC00
03F0001EFC00
07E0003C7E00
0FE000787E00
0FC000707E00
1FC000F07E00
1F8001E07E00
1F8003C07E00
3F8007807E00
3F0007007E00
3F000F007E00
7F001E00FE00
7F003C00FE00
7F003800FE00
7F007000FC00
7F00F000FC00
7F01E001FC00
7F03C001FC00
7F038001F800
7F070003F800
7F0F0003F000
7F1E0003F000
3F3C0007E000
3F38000FC000
3FF8000FC000
1FF0001F8000
1FE0003F0000
0FC0007E0000
07E000FC0000
07F803F00000
0FFF3FE00000
1EFFFF800000
1C3FFE000000
3801C0000000
780000000000
F00000000000
ENDCHAR
STARTCHAR 00D9
ENCODING 217
SWIDTH 796 0
DWIDTH 43 0
BBX 41 53 6 -1
BITMAP
000070000000
0000FC000000
0001FE000000
0000FF800000
00003FC00000
000001E00000
000000100000
000000000000
000000000000
000000000000
7FFFC01FFF80
7FFFC01FFF80
FFFFC03FFF80
07F80003F800
07F00000F000
07F00000F000
07E00000F000
07E00000E000
07E00000E000
07C00001E000
07C00001E000
0FC00001C000
0FC00001C000
0F800001C000
1F800001C000
1F800003C000
1F0000038000
1F0000038000
3F0000038000
3F0000078000
3E0000070000
3E0000070000
7E0000070000
7E00000F0000
7C00000E0000
7C00000E0000
FC00000E0000
FC00001C0000
FC00001C0000
FC00003C0000
FC0000380000
FC0000380000
FC0000700000
FC0000F00000
7C0000E00000
7E0001E00000
7E0003C00000
3F0007800000
1FC01F000000
0FFFFE000000
07FFF8000000
01FFE0000000
000400000000
ENDCHAR
STARTCHAR 00DA
ENCODING 218
SWIDTH 796 0
DWIDTH 43 0
BBX 41 53 6 -1
BITMAP
000000070000
0000003F0000
000000FF0000
000003FC0000
00000FF00000
00003E000000
000000000000
000000000000
000000000000
000000000000
7FFFC01FFF80
7FFFC01FFF80
FFFFC03FFF80
07F80003F800
07F00000F000
07F00000F000
07E00000F000
07E00000E000
07E00000E000
07C00001E000
07C00001E000
0FC00001C000
0FC00001C000
0F800001C000
1F800001C000
1F800003C000
1F0000038000
1F0000038000
3F0000038000
3F0000078000
3E0000070000
3E0000070000
7E0000070000
7E00000F0000
7C00000E0000
7C00000E0000
FC00000E0000
FC00001C0000
FC00001C0000
FC00003C0000
FC0000380000
FC0000380000
FC0000700000
FC0000F00000
7C0000E00000
7E0001E00000
7E0003C00000
3F0007800000
1FC01F000000
0FFFFE000000
07FFF8000000
01FFE0000000
000400000000
ENDCHAR
STARTCHAR 00DB
ENCODING 219
SWIDTH 796 0
DWIDTH 43 0
BBX 41 53 6 -1
BITMAP
000007E00000
00001FF00000
00003FF80000
00007CFC0000
0000F03C0000
0003800E0000
000000000000
000000000000
000000000000
000000000000
7FFFC01FFF80
7FFFC01FFF80
FFFFC03FFF80
07F80003F800
07F00000F000
07F00000F000
07E00000F000
07E00000E000
07E00000E000
07C00001E000
07C00001E000
0FC00001C000
0FC00001C000
0F800001C000
1F800001C000
1F800003C000
1F0000038000
1F0000038000
3F0000038000
3F0000078000
3E0000070000
3E0000070000
7E0000070000
7E00000F0000
7C00000E0000
7C00000E0000
FC00000E0000
FC00001C0000
FC00001C0000
FC00003C0000
FC0000380000
FC0000380000
FC0000700000
FC0000F00000
7C0000E00000
7E0001E00000
7E0003C00000
3F0007800000
1FC01F000000
0FFFFE000000
07FFF8000000
01FFE0000000
000400000000
ENDCHAR
STARTCHAR 00DC
ENCODING 220
SWIDTH 796 0
DWIDTH 43 0
BBX 41 53 6 -1
BITMAP
0000300C0000
0000F83E0000
0000F83E0000
0000F87E0000
0000F03C0000
000040100000
000000000000
000000000000
000000000000
000000000000
7FFFC01FFF80
7FFFC01FFF80
FFFFC03FFF80
07F80003F800
07F00000F000
07F00000F000
07E00000F000
07E00000E000
07E00000E000
07C00001E000
07C00001E000
0FC00001C000
0FC00001C000
0F800001C000
1F800001C000
1F800003C000
1F0000038000
1F0000038000
3F0000038000
3F0000078000
3E0000070000
3E0000070000
7E0000070000
7E00000F0000
7C00000E0000
7C00000E0000
FC00000E0000
FC00001C0000
FC00001C0000
FC00003C0000
FC0000380000
FC0000380000
FC0000700000
FC0000F00000
7C0000E00000
7E0001E00000
7E0003C00000
3F0007800000
1FC01F000000
0FFFFE000000
07FFF8000000
01FFE0000000
000400000000
ENDCHAR
STARTCHAR 00DD
ENCODING 221
SWIDTH 685 0
DWIDTH 37 0
BBX 37 52 5 0
BITMAP
0000003800
000000FC00
000003F800
00000FF000
00003F8000
0000F80000
0000000000
0000000000
0000000000
0000000000
FFFF00FFF8
FFFE01FFF8
FFFE01FFF8
0FE0001F80
07E0001F00
07E0001E00
03F0001E00
03F0003C00
01F0003800
01F8007800
01F800F000
00FC01E000
00FC01C000
007E03C000
007E078000
007E070000
003F0F0000
003F1E0000
001F9C0000
001FB80000
000FF80000
000FF00000
000FE00000
0007E00000
0007C00000
0007C00000
000FC00000
000FC00000
000F800000
000F800000
001F800000
001F800000
001F000000
003F000000
003F000000
003F000000
007F000000
007F000000
00FF000000
03FFC00000
3FFFF80000
3FFFF80000
ENDCHAR
STARTCHAR 00DE
ENCODING 222
SWIDTH 703 0
DWIDTH 38 0
BBX 39 42 -2 0
BITMAP
001FFFFC00
001FFFFC00
001FFFF800
0001FE0000
0001FC0000
0001FC0000
0001F80000
0001F80000
0001F80000
0001F00000
0003FFFF00
0003FFFFE0
0003F01FF0
0003E001F8
0007E001FC
0007E000FE
0007C000FE
0007C000FE
000FC000FE
000FC000FE
000F8000FE
001F8000FE
001F8001FE
001F8001FC
001F0003FC
003F0003F8
003F0007F0
003F001FE0
003E003FC0
007E03FF80
007FFFFE00
007FFFF000
00FFF00000
00FC000000
00FC000000
00F8000000
01F8000000
01F8000000
03FC000000
0FFE000000
FFFFF00000
FFFFE00000
ENDCHAR
STARTCHAR 00DF
ENCODING 223
SWIDTH 574 0
DWIDTH 31 0
BBX 43 59 -12 -14
BITMAP
00000001F800
0000000FFE00
0000003FFF00
0000007C1F80
000000F80FC0
000000F007C0
000001E007C0
000003E007E0
000003E007E0
000007C007E0
000007C007C0
000007C007C0
00000F800FC0
00000F800F80
00000F801F80
00000F803F00
00001F003E00
00001F00FC00
00001F0FF000
00001F1F8000
00003E1FE000
00003E1FF800
00003E01FC00
00003E007E00
00007C007E00
00007C003F00
00007C003F00
00007C001F00
0000FC001F00
0000F8001F00
0000F8001F00
0000F8001F00
0001F8001F00
0001F0003F00
0001F0003F00
0001F0003E00
0003F0003E00
0003E0007C00
0003E0007C00
0003E380F800
0007E780F000
0007C781E000
0007C7C7C000
0007C7FF0000
000FC3FE0000
000F80400000
000F80000000
000F80000000
001F00000000
001F00000000
001F00000000
001E00000000
703E00000000
F83C00000000
F87800000000
FCF800000000
FFF000000000
7FE000000000
3F8000000000
ENDCHAR
STARTCHAR 00E0
ENCODING 224
SWIDTH 555 0
DWIDTH 30 0
BBX 28 44 1 -1
BITMAP
00078000
000FC000
000FE000
0007F000
0001F800
0000F800
00003C00
00000E00
00000000
00000000
00000000
00000000
00000000
00000000
0007E3E0
001FF3E0
003FFBC0
007C1FC0
01F81F80
03F01F80
03E01F80
07C01F00
0F801F00
1F801F00
1F003E00
3E003E00
3E003E00
7E007C00
7C007C00
7C007C00
F800F800
F800F800
F801F800
F801F800
F803F020
F807F070
F807F0E0
F80FF0C0
F81DF1C0
FE79FF80
FFF1FF00
7FE1FE00
3F80F800
0C002000
ENDCHAR
STARTCHAR 00E1
ENCODING 225
SWIDTH 555 0
DWIDTH 30 0
BBX 28 44 1 -1
BITMAP
000003E0
000007E0
00000FE0
00001FC0
00003F00
00007C00
0000F000
00038000
00000000
00000000
00000000
00000000
00000000
00000000
0007E3E0
001FF3E0
003FFBC0
007C1FC0
01F81F80
03F01F80
03E01F80
07C01F00
0F801F00
1F801F00
1F003E00
3E003E00
3E003E00
7E007C00
7C007C00
7C007C00
F800F800
F800F800
F801F800
F801F800
F803F020
F807F070
F807F0E0
F80FF0C0
F81DF1C0
FE79FF80
FFF1FF00
7FE1FE00
3F80F800
0C002000
ENDCHAR
STARTCHAR 00E2
ENCODING 226
SWIDTH 555 0
DWIDTH 30 0
BBX 28 43 1 -1
BITMAP
00007E00
0000FE00
0003FF00
0007DF80
000F0780
001C03C0
003000E0
00000000
00000000
00000000
00000000
00000000
00000000
0007E3E0
001FF3E0
003FFBC0
007C1FC0
01F81F80
03F01F80
03E01F80
07C01F00
0F801F00
1F801F00
1F003E00
3E003E00
3E003E00
7E007C00
7C007C00
7C007C00
F800F800
F800F800
F801F800
F801F800
F803F020
F807F070
F807F0E0
F80FF0C0
F81DF1C0
FE79FF80
FFF1FF00
7FE1FE00
3F80F800
0C002000
ENDCHAR
STARTCHAR 00E3
ENCODING 227
SWIDTH 555 0
DWIDTH 30 0
BBX 28 43 1 -1
BITMAP
00038030
000FF030
001FFE70
001FFFE0
0038FFE0
00303FC0
00000700
00000000
00000000
00000000
00000000
00000000
00000000
0007E3E0
001FF3E0
003FFBC0
007C1FC0
01F81F80
03F01F80
03E01F80
07C01F00
0F801F00
1F801F00
1F003E00
3E003E00
3E003E00
7E007C00
7C007C00
7C007C00
F800F800
F800F800
F801F800
F801F800
F803F020
F807F070
F807F0E0
F80FF0C0
F81DF1C0
FE79FF80
FFF1FF00
7FE1FE00
3F80F800
0C002000
ENDCHAR
STARTCHAR 00E4
ENCODING 228
SWIDTH 555 0
DWIDTH 30 0
BBX 28 42 1 -1
BITMAP
000783C0
000FC7E0
001FCFE0
001F8FC0
001F8FC0
000E0700
00000000
00000000
00000000
00000000
00000000
00000000
0007E3E0
001FF3E0
003FFBC0
007C1FC0
01F81F80
03F01F80
03E01F80
07C01F00
0F801F00
1F801F00
1F003E00
3E003E00
3E003E00
7E007C00
7C007C00
7C007C00
F800F800
F800F800
F801F800
F801F800
F803F020
F807F070
F807F0E0
F80FF0C0
F81DF1C0
FE79FF80
FFF1FF00
7FE1FE00
3F80F800
0C002000
ENDCHAR
STARTCHAR 00E5
ENCODING 229
SWIDTH 555 0
DWIDTH 30 0
BBX 28 46 1 -1
BITMAP
00003C00
00007E00
0000EF00
00018700
00038300
00030700
00038600
0003FC00
0001F800
00004000
00000000
00000000
00000000
00000000
00000000
00000000
0007E3E0
001FF3E0
003FFBC0
007C1FC0
01F81F80
03F01F80
03E01F80
07C01F00
0F801F00
1F801F00
1F003E00
3E003E00
3E003E00
7E007C00
7C007C00
7C007C00
F800F800
F800F800
F801F800
F801F800
F803F020
F807F070
F807F0E0
F80FF0C0
F81DF1C0
FE79FF80
FFF1FF00
7FE1FE00
3F80F800
0C002000
ENDCHAR
STARTCHAR 00E6
ENCODING 230
SWIDTH 740 0
DWIDTH 40 0
BBX 39 31 1 -1
BITMAP
000001E000
0007E3E3F0
001FF3CFFC
003FFBDE7E
007C1FF83E
01F81FF03E
03F01FE03E
03E01FC03E
07C01FC07C
0F801F807C
1F801F00F8
1F001F01F0
3E003E03E0
3E003E0F80
7E003E1F00
7C007CFC00
7C007FF000
F8007FC000
F800FC0000
F800F80000
F801F80000
F803F80000
F803F80060
F807F800E0
F80EFC01C0
F81CFC0380
FE7C7E0780
FFF07FBE00
7FE03FFC00
3F801FF800
0C00010000
ENDCHAR
STARTCHAR 00E7
ENCODING 231
SWIDTH 425 0
DWIDTH 23 0
BBX 22 43 1 -14
BITMAP
0007E0
001FF8
007EFC
00F87C
01F07C
03E07C
07C07C
078038
0F8000
1F0000
1F0000
3E0000
3E0000
7E0000
7C0000
7C0000
FC0000
FC0000
FC0000
F80040
F80060
F800C0
FC01C0
FC0380
FC0780
7E0F00
7FFE00
3FFC00
1FF000
01C000
038000
038000
070000
0FE000
0FF800
01F800
007800
607800
E07800
F0F000
F3E000
7FC000
3F0000
ENDCHAR
STARTCHAR 00E8
ENCODING 232
SWIDTH 444 0
DWIDTH 24 0
BBX 23 44 1 -1
BITMAP
000F00
000F80
000FC0
000FE0
0003F0
0000F8
00003C
00000C
000000
000000
000000
000000
000000
000000
0007F0
001FFC
003E7C
00F83E
01F03E
03E03E
07C03E
07807C
0F8078
1F00F8
1F01F0
3E03E0
3E0F80
7C3F00
7CFC00
FFF000
FF8000
FC0000
F80000
F80000
F80000
F80060
F800E0
F801C0
FC0380
7C0700
7FBE00
3FFC00
1FF000
010000
ENDCHAR
STARTCHAR 00E9
ENCODING 233
SWIDTH 444 0
DWIDTH 24 0
BBX 26 44 1 -1
BITMAP
000003C0
00000FC0
00001FC0
00003F80
00007E00
0000F800
0001E000
00038000
00000000
00000000
00000000
00000000
00000000
00000000
0007F000
001FFC00
003E7C00
00F83E00
01F03E00
03E03E00
07C03E00
07807C00
0F807800
1F00F800
1F01F000
3E03E000
3E0F8000
7C3F0000
7CFC0000
FFF00000
FF800000
FC000000
F8000000
F8000000
F8000000
F8006000
F800E000
F801C000
FC038000
7C070000
7FBE0000
3FFC0000
1FF00000
01000000
ENDCHAR
STARTCHAR 00EA
ENCODING 234
SWIDTH 444 0
DWIDTH 24 0
BBX 26 43 1 -1
BITMAP
0000FC00
0001FE00
0003FE00
0007DF00
001F0F80
003C0380
007001C0
00000000
00000000
00000000
00000000
00000000
00000000
0007F000
001FFC00
003E7C00
00F83E00
01F03E00
03E03E00
07C03E00
07807C00
0F807800
1F00F800
1F01F000
3E03E000
3E0F8000
7C3F0000
7CFC0000
FFF00000
FF800000
FC000000
F8000000
F8000000
F8000000
F8006000
F800E000
F801C000
FC038000
7C070000
7FBE0000
3FFC0000
1FF00000
01000000
ENDCHAR
STARTCHAR 00EB
ENCODING 235
SWIDTH 444 0
DWIDTH 24 0
BBX 26 42 1 -1
BITMAP
000F87C0
001F8FC0
001F8FC0
001F8FC0
001F0F80
000E0700
00000000
00000000
00000000
00000000
00000000
00000000
0007F000
001FFC00
003E7C00
00F83E00
01F03E00
03E03E00
07C03E00
07807C00
0F807800
1F00F800
1F01F000
3E03E000
3E0F8000
7C3F0000
7CFC0000
FFF00000
FF800000
FC000000
F8000000
F8000000
F8000000
F8006000
F800E000
F801C000
FC038000
7C070000
7FBE0000
3FFC0000
1FF00000
01000000
ENDCHAR
STARTCHAR 00EC
ENCODING 236
SWIDTH 333 0
DWIDTH 18 0
BBX 16 44 2 -1
BITMAP
03C0
07E0
03F0
03F8
00FC
003E
001E
0007
0000
0000
0000
0000
0000
0000
01F0
03F0
0FF8
1FF8
3FF0
73F0
E3F0
C3F0
83E0
03E0
07E0
07C0
07C0
0FC0
0F80
0F80
1F00
1F00
3F00
3E00
3E0C
7E0C
7C1C
7C38
7C70
7FE0
7FC0
7F80
7F00
1000
ENDCHAR
STARTCHAR 00ED
ENCODING 237
SWIDTH 333 0
DWIDTH 18 0
BBX 20 44 2 -1
BITMAP
0000F0
0003F0
0007F0
000FE0
001F80
003E00
007800
00E000
000000
000000
000000
000000
000000
000000
01F000
03F000
0FF800
1FF800
3FF000
73F000
E3F000
C3F000
83E000
03E000
07E000
07C000
07C000
0FC000
0F8000
0F8000
1F0000
1F0000
3F0000
3E0000
3E0C00
7E0C00
7C1C00
7C3800
7C7000
7FE000
7FC000
7F8000
7F0000
100000
ENDCHAR
STARTCHAR 00EE
ENCODING 238
SWIDTH 333 0
DWIDTH 18 0
BBX 20 43 2 -1
BITMAP
003F00
007F80
00FF80
03F7C0
07C3E0
0F00E0
1C0070
000000
000000
000000
000000
000000
000000
01F000
03F000
0FF800
1FF800
3FF000
73F000
E3F000
C3F000
83E000
03E000
07E000
07C000
07C000
0FC000
0F8000
0F8000
1F0000
1F0000
3F0000
3E0000
3E0C00
7E0C00
7C1C00
7C3800
7C7000
7FE000
7FC000
7F8000
7F0000
100000
ENDCHAR
STARTCHAR 00EF
ENCODING 239
SWIDTH 333 0
DWIDTH 18 0
BBX 20 42 2 -1
BITMAP
03E1F0
07E3F0
07E3F0
07E3F0
07C3E0
070180
000000
000000
000000
000000
000000
000000
01F000
03F000
0FF800
1FF800
3FF000
73F000
E3F000
C3F000
83E000
03E000
07E000
07C000
07C000
0FC000
0F8000
0F8000
1F0000
1F0000
3F0000
3E0000
3E0C00
7E0C00
7C1C00
7C3800
7C7000
7FE000
7FC000
7F8000
7F0000
100000
ENDCHAR
STARTCHAR 00F0
ENCODING 240
SWIDTH 574 0
DWIDTH 31 0
BBX 30 43 1 0
BITMAP
000C001C
001F807C
0007E1F0
0001FFC0
00007F00
00007E00
0001FF00
0007DF80
001F0FC0
003C07C0
001007E0
000003E0
000003F0
000003F0
000003F0
000FC3F0
003FF3F0
00FFF9F0
01F83DF0
03E01DF0
07E00FF0
0FC00FF0
1F800FF0
3F8007F0
3F0007F0
3F000FF0
7F000FE0
7E000FE0
7E000FE0
FE000FC0
FE000FC0
FE001F80
FE001F80
FE003F00
FE003F00
7E007E00
7E007C00
7E00F800
3F01F000
1F87E000
0FFF8000
07FE0000
00400000
ENDCHAR
STARTCHAR 00F1
ENCODING 241
SWIDTH 611 0
DWIDTH 33 0
BBX 31 43 1 -1
BITMAP
0001C018
0007F818
000FFE30
001FFFF0
001CFFE0
00181FE0
00000380
00000000
00000000
00000000
00000000
00000000
00000000
01F00FE0
07F03FF0
0FF87FF0
1CF8F1F8
18F9C1F8
30FB81F0
30FB01F0
60F701F0
60FE01F0
C1FC03F0
C1FC03E0
01F803E0
03F007E0
03F007C0
03E00FC0
07E00FC0
07C00F80
07C01F80
0FC01F80
0F801F00
0F803F04
1F803F0E
1F003E1C
1F003E38
3E007E70
3E007FE0
3E003FC0
7C003F80
7C003E00
00000800
ENDCHAR
STARTCHAR 00F2
ENCODING 242
SWIDTH 518 0
DWIDTH 28 0
BBX 25 43 1 -1
BITMAP
000F0000
001F8000
001FC000
000FE000
0003E000
0001F000
00007800
00001C00
00000000
00000000
00000000
00000000
00000000
00000000
000FE000
003FF800
00FEFC00
01F81E00
03F01E00
07E01F00
0FC01F00
0FC01F00
1F801F80
1F801F80
3F001F80
3F001F80
7F001F80
7E001F00
7E003F00
7E003F00
FC003F00
FC007E00
FC007E00
FC007C00
FC00FC00
7C00F800
7C01F000
7C03F000
7C07E000
3E0FC000
1F1F8000
0FFE0000
07FC0000
ENDCHAR
STARTCHAR 00F3
ENCODING 243
SWIDTH 518 0
DWIDTH 28 0
BBX 26 43 1 -1
BITMAP
000007C0
00000FC0
00001FC0
00003F80
00007E00
0000F800
0001C000
00070000
00000000
00000000
00000000
00000000
00000000
00000000
000FE000
003FF800
00FEFC00
01F81E00
03F01E00
07E01F00
0FC01F00
0FC01F00
1F801F80
1F801F80
3F001F80
3F001F80
7F001F80
7E001F00
7E003F00
7E003F00
FC003F00
FC007E00
FC007E00
FC007C00
FC00FC00
7C00F800
7C01F000
7C03F000
7C07E000
3E0FC000
1F1F8000
0FFE0000
07FC0000
ENDCHAR
STARTCHAR 00F4
ENCODING 244
SWIDTH 518 0
DWIDTH 28 0
BBX 27 42 1 -1
BITMAP
00007E00
0000FF00
0001FF80
0003EF80
000F87C0
001E01C0
003800E0
00000000
00000000
00000000
00000000
00000000
00000000
000FE000
003FF800
00FEFC00
01F81E00
03F01E00
07E01F00
0FC01F00
0FC01F00
1F801F80
1F801F80
3F001F80
3F001F80
7F001F80
7E001F00
7E003F00
7E003F00
FC003F00
FC007E00
FC007E00
FC007C00
FC00FC00
7C00F800
7C01F000
7C03F000
7C07E000
3E0FC000
1F1F8000
0FFE0000
07FC0000
ENDCHAR
STARTCHAR 00F5
ENCODING 245
SWIDTH 518 0
DWIDTH 28 0
BBX 27 42 1 -1
BITMAP
00070060
001FE060
003FFCE0
003FFFC0
0073FFC0
00607F80
00000E00
00000000
00000000
00000000
00000000
00000000
00000000
000FE000
003FF800
00FEFC00
01F81E00
03F01E00
07E01F00
0FC01F00
0FC01F00
1F801F80
1F801F80
3F001F80
3F001F80
7F001F80
7E001F00
7E003F00
7E003F00
FC003F00
FC007E00
FC007E00
FC007C00
FC00FC00
7C00F800
7C01F000
7C03F000
7C07E000
3E0FC000
1F1F8000
0FFE0000
07FC0000
ENDCHAR
STARTCHAR 00F6
ENCODING 246
SWIDTH 518 0
DWIDTH 28 0
BBX 27 41 1 -1
BITMAP
0007C3E0
000FC7E0
000FC7E0
000FC7E0
000F87C0
00070380
00000000
00000000
00000000
00000000
00000000
00000000
000FE000
003FF800
00FEFC00
01F81E00
03F01E00
07E01F00
0FC01F00
0FC01F00
1F801F80
1F801F80
3F001F80
3F001F80
7F001F80
7E001F00
7E003F00
7E003F00
FC003F00
FC007E00
FC007E00
FC007C00
FC00FC00
7C00F800
7C01F000
7C03F000
7C07E000
3E0FC000
1F1F8000
0FFE0000
07FC0000
ENDCHAR
STARTCHAR 00F7
ENCODING 247
SWIDTH 592 0
DWIDTH 32 0
BBX 25 26 4 5
BITMAP
003E0000
003F0000
007F0000
007F0000
007F0000
003E0000
001C0000
00000000
00000000
00000000
00000000
FFFFFF80
FFFFFF80
FFFFFF80
00000000
00000000
00000000
00000000
00000000
003E0000
003F0000
007F0000
007F0000
007F0000
003E0000
001C0000
ENDCHAR
STARTCHAR 00F8
ENCODING 248
SWIDTH 518 0
DWIDTH 28 0
BBX 31 35 -2 -3
BITMAP
0000001E
0000003C
00000038
0001FC78
0007FFF0
001FDFE0
003F07C0
007E03C0
00FC07E0
01F80FE0
01F81FE0
03F03FF0
03F03BF0
07E07BF0
07E0F3F0
0FE1E3F0
0FC1C3E0
0FC387E0
0FC787E0
1F8F07E0
1F9E0FC0
1F9C0FC0
1FBC0F80
1FF81F80
0FF01F00
0FE03E00
0FC07E00
0FC0FC00
07C1F800
0FE3F000
1FFFC000
1CFF8000
3C000000
78000000
F0000000
ENDCHAR
STARTCHAR 00F9
ENCODING 249
SWIDTH 592 0
DWIDTH 32 0
BBX 29 43 1 -1
BITMAP
00078000
000FC000
000FE000
0007F000
0001F800
0000F800
00003C00
00000E00
00000000
00000000
00000000
00000000
00000000
00000000
00F001F0
03F803F0
07F803E0
0FF803E0
1CF807E0
39F807C0
71F807C0
61F00FC0
C1F00F80
03F00F80
03E01F80
07E01F00
07C03F00
07C03F00
0FC07E00
0F807E00
1F80FE00
1F80FC00
1F01FC00
3F01FC10
3E03FC18
3E07F830
3E0EF870
7E1EF860
7E3CF8E0
7F78FFC0
3FF0FF80
3FE0FF00
1FC07C00
ENDCHAR
STARTCHAR 00FA
ENCODING 250
SWIDTH 592 0
DWIDTH 32 0
BBX 29 43 1 -1
BITMAP
000003E0
000007E0
00000FE0
00001FC0
00003F00
00007C00
0000F000
0001C000
00000000
00000000
00000000
00000000
00000000
00000000
00F001F0
03F803F0
07F803E0
0FF803E0
1CF807E0
39F807C0
71F807C0
61F00FC0
C1F00F80
03F00F80
03E01F80
07E01F00
07C03F00
07C03F00
0FC07E00
0F807E00
1F80FE00
1F80FC00
1F01FC00
3F01FC10
3E03FC18
3E07F830
3E0EF870
7E1EF860
7E3CF8E0
7F78FFC0
3FF0FF80
3FE0FF00
1FC07C00
ENDCHAR
STARTCHAR 00FB
ENCODING 251
SWIDTH 592 0
DWIDTH 32 0
BBX 29 42 1 -1
BITMAP
00007E00
0000FF00
0003FF00
0007CF80
000F0780
001C01C0
003000E0
00000000
00000000
00000000
00000000
00000000
00000000
00F001F0
03F803F0
07F803E0
0FF803E0
1CF807E0
39F807C0
71F807C0
61F00FC0
C1F00F80
03F00F80
03E01F80
07E01F00
07C03F00
07C03F00
0FC07E00
0F807E00
1F80FE00
1F80FC00
1F01FC00
3F01FC10
3E03FC18
3E07F830
3E0EF870
7E1EF860
7E3CF8E0
7F78FFC0
3FF0FF80
3FE0FF00
1FC07C00
ENDCHAR
STARTCHAR 00FC
ENCODING 252
SWIDTH 592 0
DWIDTH 32 0
BBX 29 41 1 -1
BITMAP
000783C0
000FC7E0
000FC7E0
001F8FC0
000F87C0
000E0700
00000000
00000000
00000000
00000000
00000000
00000000
00F001F0
03F803F0
07F803E0
0FF803E0
1CF807E0
39F807C0
71F807C0
61F00FC0
C1F00F80
03F00F80
03E01F80
07E01F00
07C03F00
07C03F00
0FC07E00
0F807E00
1F80FE00
1F80FC00
1F01FC00
3F01FC10
3E03FC18
3E07F830
3E0EF870
7E1EF860
7E3CF8E0
7F78FFC0
3FF0FF80
3FE0FF00
1FC07C00
ENDCHAR
STARTCHAR 00FD
ENCODING 253
SWIDTH 500 0
DWIDTH 27 0
BBX 33 57 -6 -14
BITMAP
0000003E00
0000007E00
000000FE00
000001FC00
000003F000
000007C000
00000F0000
0000180000
0000000000
0000000000
0000000000
0000000000
0000000000
0000000000
001E000700
003F000F80
007F001F80
007F801F80
00FF801F80
01FF801F80
0187C00F80
0187C00F00
0383C00F00
0303E00F00
0303E00F00
0303E00E00
0001E01E00
0001F01C00
0001F01C00
0001F03800
0001F03800
0000F07000
0000F87000
0000F8E000
0000F8E000
0000F9C000
0000FBC000
00007F8000
00007F8000
00007F0000
00007E0000
00007E0000
00003C0000
0000780000
0000780000
0000F00000
0001E00000
0001C00000
0003C00000
0007800000
700F000000
F81E000000
FC3C000000
FCF8000000
FFE0000000
7FC0000000
3F00000000
ENDCHAR
STARTCHAR 00FE
ENCODING 254
SWIDTH 537 0
DWIDTH 29 0
BBX 35 59 -8 -14
BITMAP
000007C000
0000FFC000
0000FF8000
00001F8000
00001F8000
00001F0000
00001F0000
00001F0000
00003E0000
00003E0000
00003E0000
00003C0000
00007C0000
00007C0000
00007C0000
0000F80000
0000F87F00
0000F9FF80
0001F3FFC0
0001F787C0
0001FE07E0
0001FC03E0
0003F803E0
0003F803E0
0003F003E0
0007E003E0
0007E003E0
0007C007E0
000FC007E0
000F8007C0
000F800FC0
000F000FC0
001F000F80
001F001F80
001E001F00
003E003E00
003E007E00
003E007C00
007E00F800
007E01F000
007E03E000
007F07C000
00FF9F8000
00FFFF0000
00FBFC0000
01F0000000
01F0000000
01F0000000
03F0000000
03E0000000
03E0000000
03E0000000
07E0000000
07C0000000
07C0000000
0FE0000000
FFFE000000
FFFE000000
FFFE000000
ENDCHAR
STARTCHAR 00FF
ENCODING 255
SWIDTH 500 0
DWIDTH 27 0
BBX 33 55 -6 -14
BITMAP
00007C3E00
0000FC7E00
0000FC7E00
0001FC7E00
0000F87C00
0000603000
0000000000
0000000000
0000000000
0000000000
0000000000
0000000000
001E000700
003F000F80
007F001F80
007F801F80
00FF801F80
01FF801F80
0187C00F80
0187C00F00
0383C00F00
0303E00F00
0303E00F00
0303E00E00
0001E01E00
0001F01C00
0001F01C00
0001F03800
0001F03800
0000F07000
0000F87000
0000F8E000
0000F8E000
0000F9C000
0000FBC000
00007F8000
00007F8000
00007F0000
00007E0000
00007E0000
00003C0000
0000780000
0000780000
0000F00000
0001E00000
0001C00000
0003C00000
0007800000
700F000000
F81E000000
FC3C000000
FCF8000000
FFE0000000
7FC0000000
3F00000000
ENDCHAR
STARTCHAR 0100
ENCODING 256
SWIDTH 759 0
DWIDTH 41 0
BBX 50 50 -6 0
BITMAP
000000000FFFC0
000000001FFFC0
00000000000000
00000000000000
00000000000000
00000000000000
00000000000000
00000000000000
0000000003E000
0000000007E000
0000000007E000
000000000FC000
000000001FC000
000000003FC000
000000007FC000
00000000F7C000
00000001EF8000
00000001EF8000
00000003CF8000
000000078F8000
0000000F1F0000
0000001E1F0000
0000003C1F0000
0000003C1F0000
000000783F0000
000000F03E0000
000001E03E0000
000003C03E0000
000007807E0000
000007807C0000
00000F007C0000
00001E007C0000
00003FFFFC0000
00007FFFF80000
0000F000F80000
0000E000F80000
0001C000F80000
00038001F80000
00070001F00000
000E0001F00000
001E0001F00000
003C0003F00000
00780003E00000
00F00003E00000
01E00003E00000
03E00007E00000
07E00007E00000
1FF0001FF80000
7FFE00FFFF0000
FFFC00FFFF0000
ENDCHAR
STARTCHAR 0101
ENCODING 257
SWIDTH 555 0
DWIDTH 30 0
BBX 28 42 1 -1
BITMAP
000FFFE0
000FFFC0
001FFFC0
00000000
00000000
00000000
00000000
00000000
00000000
00000000
00000000
00000000
0007E3E0
001FF3E0
003FFBC0
007C1FC0
01F81F80
03F01F80
03E01F80
07C01F00
0F801F00
1F801F00
1F003E00
3E003E00
3E003E00
7E007C00
7C007C00
7C007C00
F800F800
F800F800
F801F800
F801F800
F803F020
F807F070
F807F0E0
F80FF0C0
F81DF1C0
FE79FF80
FFF1FF00
7FE1FE00
3F80F800
0C002000
ENDCHAR
STARTCHAR 0102
ENCODING 258
SWIDTH 759 0
DWIDTH 41 0
BBX 51 52 -6 0
BITMAP
00000000060060
000000000600E0
0000000007C7C0
0000000007FF80
0000000003FF00
0000000001FE00
00000000000000
00000000000000
00000000000000
00000000000000
0000000003E000
0000000007E000
0000000007E000
000000000FC000
000000001FC000
000000003FC000
000000007FC000
00000000F7C000
00000001EF8000
00000001EF8000
00000003CF8000
000000078F8000
0000000F1F0000
0000001E1F0000
0000003C1F0000
0000003C1F0000
000000783F0000
000000F03E0000
000001E03E0000
000003C03E0000
000007807E0000
000007807C0000
00000F007C0000
00001E007C0000
00003FFFFC0000
00007FFFF80000
0000F000F80000
0000E000F80000
0001C000F80000
00038001F80000
00070001F00000
000E0001F00000
001E0001F00000
003C0003F00000
00780003E00000
00F00003E00000
01E00003E00000
03E00007E00000
07E00007E00000
1FF0001FF80000
7FFE00FFFF0000
FFFC00FFFF0000
ENDCHAR
STARTCHAR 0103
ENCODING 259
SWIDTH 555 0
DWIDTH 30 0
BBX 28 43 1 -1
BITMAP
000C0060
000E00E0
000F01C0
000FFF80
0007FF00
0003FE00
0001F800
00000000
00000000
00000000
00000000
00000000
00000000
0007E3E0
001FF3E0
003FFBC0
007C1FC0
01F81F80
03F01F80
03E01F80
07C01F00
0F801F00
1F801F00
1F003E00
3E003E00
3E003E00
7E007C00
7C007C00
7C007C00
F800F800
F800F800
F801F800
F801F800
F803F020
F807F070
F807F0E0
F80FF0C0
F81DF1C0
FE79FF80
FFF1FF00
7FE1FE00
3F80F800
0C002000
ENDCHAR
STARTCHAR 0104
ENCODING 260
SWIDTH 759 0
DWIDTH 41 0
BBX 43 55 -6 -13
BITMAP
0000000003E0
0000000007E0
0000000007E0
000000000FC0
000000001FC0
000000003FC0
000000007FC0
00000000F7C0
00000001EF80
00000001EF80
00000003CF80
000000078F80
0000000F1F00
0000001E1F00
0000003C1F00
0000003C1F00
000000783F00
000000F03E00
000001E03E00
000003C03E00
000007807E00
000007807C00
00000F007C00
00001E007C00
00003FFFFC00
00007FFFF800
0000F000F800
0000E000F800
0001C000F800
00038001F800
00070001F000
000E0001F000
001E0001F000
003C0003F000
00780003E000
00F00003E000
01E00003E000
03E00007E000
07E00007E000
1FF0001FF800
7FFE00FFFF00
FFFC00FFFF00
0000000E0000
0000003C0000
000000780000
000000F00000
000001E00000
000001E00000
000003C00000
000003E06000
000003E0F000
000003FFE000
000001FFC000
000000FF0000
000000380000
ENDCHAR
STARTCHAR 0105
ENCODING 261
SWIDTH 555 0
DWIDTH 30 0
BBX 28 42 1 -13
BITMAP
0007E3E0
001FF3E0
003FFBC0
007C1FC0
01F81F80
03F01F80
03E01F80
07C01F00
0F801F00
1F801F00
1F003E00
3E003E00
3E003E00
7E007C00
7C007C00
7C007C00
F800F800
F800F800
F801F800
F801F800
F803F020
F807F070
F807F0E0
F80FF0C0
F81DF1C0
FE79FF80
FFF1FF00
7FE1FE00
3F80F800
0C01C000
00078000
000F0000
001E0000
003C0000
00780000
00780000
00780C00
007C1C00
007FFC00
003FF000
003FE000
000E0000
ENDCHAR
STARTCHAR 0106
ENCODING 262
SWIDTH 722 0
DWIDTH 39 0
BBX 37 53 4 -1
BITMAP
0000000380
0000001F80
0000007F80
000001FE00
000007F800
00001F0000
0000000000
0000000000
0000000000
0000000000
00003FE018
0001FFFC30
0007FFFF70
000FE01FF0
003F8007F0
007E0003F0
00FC0003F0
01F80001E0
03F00001E0
07E00001E0
07E00000E0
0FC00000E0
1F800000C0
1F800000C0
3F80000000
3F00000000
3F00000000
7F00000000
7E00000000
7E00000000
FE00000000
FE00000000
FE00000000
FE00000000
FC00000000
FC00000000
FC00000000
FE00000000
FE00000000
FE00000000
FE00000000
7E00000600
7E00000600
7F00000E00
3F00001C00
3F80003800
1FC0007000
0FE001F000
07F807C000
03FFFF8000
01FFFF0000
007FFC0000
0001000000
ENDCHAR
STARTCHAR 0107
ENCODING 263
SWIDTH 425 0
DWIDTH 23 0
BBX 26 44 1 -1
BITMAP
00000780
00000FC0
00001F80
00003F00
00007C00
0001F000
0003C000
00070000
00000000
00000000
00000000
00000000
00000000
00000000
0007E000
001FF800
007EFC00
00F87C00
01F07C00
03E07C00
07C07C00
07803800
0F800000
1F000000
1F000000
3E000000
3E000000
7E000000
7C000000
7C000000
FC000000
FC000000
FC000000
F8004000
F8006000
F800C000
FC01C000
FC038000
FC070000
7E0F0000
7FFE0000
3FF80000
1FF00000
01800000
ENDCHAR
STARTCHAR 0108
ENCODING 264
SWIDTH 722 0
DWIDTH 39 0
BBX 37 53 4 -1
BITMAP
000001F800
000007FC00
00000FFE00
00001F3E00
00003C0F00
0000E00380
0000000000
0000000000
0000000000
0000000000
00003FE018
0001FFFC30
0007FFFF70
000FE01FF0
003F8007F0
007E0003F0
00FC0003F0
01F80001E0
03F00001E0
07E00001E0
07E00000E0
0FC00000E0
1F800000C0
1F800000C0
3F80000000
3F00000000
3F00000000
7F00000000
7E00000000
7E00000000
FE00000000
FE00000000
FE00000000
FE00000000
FC00000000
FC00000000
FC00000000
FE00000000
FE00000000
FE00000000
FE00000000
7E00000600
7E00000600
7F00000E00
3F00001C00
3F80003800
1FC0007000
0FE001F000
07F807C000
03FFFF8000
01FFFF0000
007FFC0000
0001000000
ENDCHAR
STARTCHAR 0109
ENCODING 265
SWIDTH 425 0
DWIDTH 23 0
BBX 25 43 1 -1
BITMAP
0001FC00
0003FC00
0007FE00
000FBE00
001E0F00
00780780
00E00180
00000000
00000000
00000000
00000000
00000000
00000000
0007E000
001FF800
007EFC00
00F87C00
01F07C00
03E07C00
07C07C00
07803800
0F800000
1F000000
1F000000
3E000000
3E000000
7E000000
7C000000
7C000000
FC000000
FC000000
FC000000
F8004000
F8006000
F800C000
FC01C000
FC038000
FC070000
7E0F0000
7FFE0000
3FF80000
1FF00000
01800000
ENDCHAR
STARTCHAR 010A
ENCODING 266
SWIDTH 722 0
DWIDTH 39 0
BBX 37 53 4 -1
BITMAP
0000006000
000001F000
000001F800
000001F800
000001F000
000000F000
0000000000
0000000000
0000000000
0000000000
00003FE018
0001FFFC30
0007FFFF70
000FE01FF0
003F8007F0
007E0003F0
00FC0003F0
01F80001E0
03F00001E0
07E00001E0
07E00000E0
0FC00000E0
1F800000C0
1F800000C0
3F80000000
3F00000000
3F00000000
7F00000000
7E00000000
7E00000000
FE00000000
FE00000000
FE00000000
FE00000000
FC00000000
FC00000000
FC00000000
FE00000000
FE00000000
FE00000000
FE00000000
7E00000600
7E00000600
7F00000E00
3F00001C00
3F80003800
1FC0007000
0FE001F000
07F807C000
03FFFF8000
01FFFF0000
007FFC0000
0001000000
ENDCHAR
STARTCHAR 010B
ENCODING 267
SWIDTH 425 0
DWIDTH 23 0
BBX 22 44 1 -1
BITMAP
0001F0
0001F8
0003F8
0003F8
0001F8
0000F0
000000
000000
000000
000000
000000
000000
000000
000000
0007E0
001FF8
007EFC
00F87C
01F07C
03E07C
07C07C
078038
0F8000
1F0000
1F0000
3E0000
3E0000
7E0000
7C0000
7C0000
FC0000
FC0000
FC0000
F80040
F80060
F800C0
FC01C0
FC0380
FC0700
7E0F00
7FFE00
3FF800
1FF000
018000
ENDCHAR
STARTCHAR 010C
ENCODING 268
SWIDTH 722 0
DWIDTH 39 0
BBX 37 53 4 -1
BITMAP
00007001C0
00003C0780
00001F3F00
00001FFC00
00000FF800
000007F000
0000000000
0000000000
0000000000
0000000000
00003FE018
0001FFFC30
0007FFFF70
000FE01FF0
003F8007F0
007E0003F0
00FC0003F0
01F80001E0
03F00001E0
07E00001E0
07E00000E0
0FC00000E0
1F800000C0
1F800000C0
3F80000000
3F00000000
3F00000000
7F00000000
7E00000000
7E00000000
FE00000000
FE00000000
FE00000000
FE00000000
FC00000000
FC00000000
FC00000000
FE00000000
FE00000000
FE00000000
FE00000000
7E00000600
7E00000600
7F00000E00
3F00001C00
3F80003800
1FC0007000
0FE001F000
07F807C000
03FFFF8000
01FFFF0000
007FFC0000
0001000000
ENDCHAR
STARTCHAR 010D
ENCODING 269
SWIDTH 425 0
DWIDTH 23 0
BBX 27 43 1 -1
BITMAP
003800E0
001E03C0
000F0F00
000FFE00
0007FC00
0007F800
0003F000
00000000
00000000
00000000
00000000
00000000
00000000
0007E000
001FF800
007EFC00
00F87C00
01F07C00
03E07C00
07C07C00
07803800
0F800000
1F000000
1F000000
3E000000
3E000000
7E000000
7C000000
7C000000
FC000000
FC000000
FC000000
F8004000
F8006000
F800C000
FC01C000
FC038000
FC070000
7E0F0000
7FFE0000
3FF80000
1FF00000
01800000
ENDCHAR
STARTCHAR 010E
ENCODING 270
SWIDTH 833 0
DWIDTH 45 0
BBX 44 52 -1 0
BITMAP
00000E003800
00000780F000
000003E3E000
000003FFC000
000001FF0000
000000FE0000
000000000000
000000000000
000000000000
000000000000
003FFFC00000
003FFFFF0000
007FFFFFE000
0003FC0FF800
0001F801FC00
0001F0007E00
0003F0003F00
0003F0001F80
0003E0001FC0
0003E0000FC0
0007E00007E0
0007E00007E0
0007C00007E0
000FC00007F0
000FC00003F0
000FC00003F0
000F800003F0
001F800003F0
001F800003F0
001F800003F0
001F000003F0
003F000007F0
003F000007F0
003E000007E0
003E000007E0
007E00000FE0
007E00000FC0
007C00000FC0
007C00001F80
00FC00001F80
00FC00003F00
00F800007F00
00F800007E00
01F80000FC00
01F80001F800
01F00003F800
03F80007E000
03F8001FC000
07FC007F8000
1FFF0FFE0000
FFFFFFF80000
FFFFFF800000
ENDCHAR
STARTCHAR 010F
ENCODING 271
SWIDTH 592 0
DWIDTH 32 0
BBX 40 46 1 -1
BITMAP
000007FE00
00000FFE00
000003FE00
0000007C1E
0000007C3F
0000007C7F
000000787F
000000F87E
000000F80E
000000F81C
000001F038
000001F070
000001F0E0
000001F000
000003E000
000003E000
0007E3E000
001FF7C000
003FFFC000
007C1FC000
01F81FC000
01F00F8000
03E00F8000
07C01F8000
0F801F8000
1F801F0000
1F001F0000
3F001F0000
3E003E0000
7E003E0000
7C003E0000
7C007E0000
FC007E0000
F800FC0000
F800FC0000
F801FC1C00
F801FC1800
F803F81800
F807783000
F807787000
FC0E786000
FE3C7CE000
7FF87FC000
3FF07F8000
1FC03F0000
00000C0000
ENDCHAR
STARTCHAR 0110
ENCODING 272
SWIDTH 833 0
DWIDTH 45 0
BBX 44 42 -1 0
BITMAP
003FFFC00000
003FFFFF8000
007FFFFFE000
0003FC0FF800
0001F801FC00
0001F0007E00
0001F0003F00
0003F0001F80
0003F0000FC0
0003E0000FC0
0007E00007E0
0007E00007E0
0007E00007E0
0007C00003F0
000FC00003F0
000FC00003F0
000F800003F0
000F800003F0
001F800003F0
001F800003F0
03FFFE0003F0
03FFFC0003F0
003F000007F0
003F000007E0
003E000007E0
003E000007E0
007E00000FC0
007E00000FC0
007C00001FC0
00FC00001F80
00FC00003F80
00F800003F00
00F800007E00
01F80000FC00
01F80001FC00
01F80003F800
03F80007F000
03F8001FC000
07FC007F8000
1FFF0FFE0000
FFFFFFF80000
FFFFFF000000
ENDCHAR
STARTCHAR 0111
ENCODING 273
SWIDTH 592 0
DWIDTH 32 0
BBX 33 46 1 -1
BITMAP
000007FE00
00000FFE00
000003FE00
0000007C00
0000007C00
0000007C00
0000007800
000000F800
00003FFF80
00003FFF80
00007FFF00
000001F000
000001F000
000001F000
000003E000
000003E000
0007E3E000
001FF7C000
003FFFC000
007C1FC000
01F81FC000
01F00F8000
03E00F8000
07C01F8000
0F801F8000
1F801F0000
1F001F0000
3F001F0000
3E003E0000
7E003E0000
7C003E0000
7C007E0000
FC007E0000
F800FC0000
F800FC0000
F801FC1C00
F801FC1800
F803F81800
F807783000
F807787000
FC0E786000
FE3C7CE000
7FF87FC000
3FF07F8000
1FC03F0000
00000C0000
ENDCHAR
STARTCHAR 0112
ENCODING 274
SWIDTH 722 0
DWIDTH 39 0
BBX 39 50 -1 0
BITMAP
00000FFFE0
00000FFFE0
0000000000
0000000000
0000000000
0000000000
0000000000
0000000000
003FFFFFFE
007FFFFFFE
007FFFFFFE
0003F800FE
0003F8003E
0003F0003E
0003F0001E
0003F0000E
0003E0000E
0003E00006
0007E00006
0007E00000
0007C00000
0007C01C00
000FC01800
000FC03800
000F803800
000F807800
001F81F800
001FFFF000
001FFFF000
001F03F000
003F00F000
003E00E000
003E00E000
007E00E000
007E00E000
007C00E000
007C00C000
00FC000000
00FC000000
00F8000038
00F8000038
01F8000070
01F8000070
01F80000F0
03F80001E0
03F80003E0
07FC000FE0
1FFFC3FFC0
FFFFFFFFC0
FFFFFFFF80
ENDCHAR
STARTCHAR 0113
ENCODING 275
SWIDTH 444 0
DWIDTH 24 0
BBX 26 42 1 -1
BITMAP
001FFFC0
001FFFC0
001FFFC0
00000000
00000000
00000000
00000000
00000000
00000000
00000000
00000000
00000000
0007F000
001FFC00
003E7C00
00F83E00
01F03E00
03E03E00
07C03E00
07807C00
0F807800
1F00F800
1F01F000
3E03E000
3E0F8000
7C3F0000
7CFC0000
FFF00000
FF800000
FC000000
F8000000
F8000000
F8000000
F8006000
F800E000
F801C000
FC038000
7C070000
7FBE0000
3FFC0000
1FF00000
01000000
ENDCHAR
STARTCHAR 0114
ENCODING 276
SWIDTH 722 0
DWIDTH 39 0
BBX 39 52 -1 0
BITMAP
0000070030
0000070070
000007E3E0
000003FFC0
000003FF80
000001FE00
0000000000
0000000000
0000000000
0000000000
003FFFFFFE
007FFFFFFE
007FFFFFFE
0003F800FE
0003F8003E
0003F0003E
0003F0001E
0003F0000E
0003E0000E
0003E00006
0007E00006
0007E00000
0007C00000
0007C01C00
000FC01800
000FC03800
000F803800
000F807800
001F81F800
001FFFF000
001FFFF000
001F03F000
003F00F000
003E00E000
003E00E000
007E00E000
007E00E000
007C00E000
007C00C000
00FC000000
00FC000000
00F8000038
00F8000038
01F8000070
01F8000070
01F80000F0
03F80001E0
03F80003E0
07FC000FE0
1FFFC3FFC0
FFFFFFFFC0
FFFFFFFF80
ENDCHAR
STARTCHAR 0115
ENCODING 277
SWIDTH 444 0
DWIDTH 24 0
BBX 27 43 1 -1
BITMAP
000C0060
000C00C0
000E03C0
000FFF80
000FFF00
0007FE00
0003F800
00000000
00000000
00000000
00000000
00000000
00000000
0007F000
001FFC00
003E7C00
00F83E00
01F03E00
03E03E00
07C03E00
07807C00
0F807800
1F00F800
1F01F000
3E03E000
3E0F8000
7C3F0000
7CFC0000
FFF00000
FF800000
FC000000
F8000000
F8000000
F8000000
F8006000
F800E000
F801C000
FC038000
7C070000
7FBE0000
3FFC0000
1FF00000
01000000
ENDCHAR
STARTCHAR 0116
ENCODING 278
SWIDTH 722 0
DWIDTH 39 0
BBX 39 52 -1 0
BITMAP
0000001C00
0000003E00
0000003E00
0000003E00
0000003E00
0000001C00
0000000000
0000000000
0000000000
0000000000
003FFFFFFE
007FFFFFFE
007FFFFFFE
0003F800FE
0003F8003E
0003F0003E
0003F0001E
0003F0000E
0003E0000E
0003E00006
0007E00006
0007E00000
0007C00000
0007C01C00
000FC01800
000FC03800
000F803800
000F807800
001F81F800
001FFFF000
001FFFF000
001F03F000
003F00F000
003E00E000
003E00E000
007E00E000
007E00E000
007C00E000
007C00C000
00FC000000
00FC000000
00F8000038
00F8000038
01F8000070
01F8000070
01F80000F0
03F80001E0
03F80003E0
07FC000FE0
1FFFC3FFC0
FFFFFFFFC0
FFFFFFFF80
ENDCHAR
STARTCHAR 0117
ENCODING 279
SWIDTH 444 0
DWIDTH 24 0
BBX 23 44 1 -1
BITMAP
0000F8
0001F8
0001FC
0001FC
0001F8
0000F8
000000
000000
000000
000000
000000
000000
000000
000000
0007F0
001FFC
003E7C
00F83E
01F03E
03E03E
07C03E
07807C
0F8078
1F00F8
1F01F0
3E03E0
3E0F80
7C3F00
7CFC00
FFF000
FF8000
FC0000
F80000
F80000
F80000
F80060
F800E0
F801C0
FC0380
7C0700
7FBE00
3FFC00
1FF000
010000
ENDCHAR
STARTCHAR 0118
ENCODING 280
SWIDTH 722 0
DWIDTH 39 0
BBX 39 55 -1 -13
BITMAP
003FFFFFFE
007FFFFFFE
007FFFFFFE
0003F800FE
0003F8003E
0003F0003E
0003F0001E
0003F0000E
0003E0000E
0003E00006
0007E00006
0007E00000
0007C00000
0007C01C00
000FC01800
000FC03800
000F803800
000F807800
001F81F800
001FFFF000
001FFFF000
001F03F000
003F00F000
003E00E000
003E00E000
007E00E000
007E00E000
007C00E000
007C00C000
00FC000000
00FC000000
00F8000038
00F8000038
01F8000070
01F8000070
01F80000F0
03F80001E0
03F80003E0
07FC000FE0
1FFFC3FFC0
FFFFFFFFC0
FFFFFFFF80
0003C00000
000F000000
001E000000
003C000000
0078000000
0078000000
0078000000
00F8180000
00F83C0000
007FF80000
007FF00000
003FC00000
0006000000
ENDCHAR
STARTCHAR 0119
ENCODING 281
SWIDTH 444 0
DWIDTH 24 0
BBX 25 42 -1 -13
BITMAP
0001FC00
0007FF00
000F9F00
003E0F80
007C0F80
00F80F80
01F00F80
01E01F00
03E01E00
07C03E00
07C07C00
0F80F800
0F83E000
1F0FC000
1F3F0000
3FFC0000
3FE00000
3F000000
3E000000
3E000000
3E000000
3E001800
3E003800
3E007000
3F00E000
1F01C000
1FEF8000
0FFF0000
07FC0000
03E00000
0F000000
1E000000
3C000000
78000000
78000000
F8000000
F8180000
F83C0000
FFF80000
7FF00000
3FC00000
0E000000
ENDCHAR
STARTCHAR 011A
ENCODING 282
SWIDTH 722 0
DWIDTH 39 0
BBX 39 52 -1 0
BITMAP
00000E0038
00000F81F0
000007E7C0
000003FF80
000001FF00
000001FC00
0000000000
0000000000
0000000000
0000000000
003FFFFFFE
007FFFFFFE
007FFFFFFE
0003F800FE
0003F8003E
0003F0003E
0003F0001E
0003F0000E
0003E0000E
0003E00006
0007E00006
0007E00000
0007C00000
0007C01C00
000FC01800
000FC03800
000F803800
000F807800
001F81F800
001FFFF000
001FFFF000
001F03F000
003F00F000
003E00E000
003E00E000
007E00E000
007E00E000
007C00E000
007C00C000
00FC000000
00FC000000
00F8000038
00F8000038
01F8000070
01F8000070
01F80000F0
03F80001E0
03F80003E0
07FC000FE0
1FFFC3FFC0
FFFFFFFFC0
FFFFFFFF80
ENDCHAR
STARTCHAR 011B
ENCODING 283
SWIDTH 444 0
DWIDTH 24 0
BBX 28 43 1 -1
BITMAP
001C0070
000E03C0
000F8F80
0007FF00
0007FE00
0003FC00
0001F000
00000000
00000000
00000000
00000000
00000000
00000000
0007F000
001FFC00
003E7C00
00F83E00
01F03E00
03E03E00
07C03E00
07807C00
0F807800
1F00F800
1F01F000
3E03E000
3E0F8000
7C3F0000
7CFC0000
FFF00000
FF800000
FC000000
F8000000
F8000000
F8000000
F8006000
F800E000
F801C000
FC038000
7C070000
7FBE0000
3FFC0000
1FF00000
01000000
ENDCHAR
STARTCHAR 011C
ENCODING 284
SWIDTH 796 0
DWIDTH 43 0
BBX 39 53 4 -1
BITMAP
000001FC00
000003FE00
000007FF00
00000F9F00
00003E0780
00007001C0
0000000000
0000000000
0000000000
0000000000
00001FF806
0000FFFF0E
0003FFFFDC
000FF007FC
001F8001FC
003F0000FC
00FC00007C
01F800003C
03F0000038
03F0000038
07E0000038
0FC0000018
0FC0000000
1F80000000
1F80000000
3F00000000
3F00000000
7F00000000
7E00000000
7E00000000
FE00000000
FE00000000
FE00000000
FE00000000
FC0001FFFC
FC0001FFFC
FC00003FE0
FE00001FC0
FE00001F80
FE00001F80
FE00001F80
7E00001F00
7E00001F00
7F00001F00
3F00003F00
3F80003E00
1F80007E00
0FC000FE00
07F003FE00
03FE1FFC00
01FFFFE000
007FFF0000
0001000000
ENDCHAR
STARTCHAR 011D
ENCODING 285
SWIDTH 537 0
DWIDTH 29 0
BBX 36 56 -4 -14
BITMAP
00000FC000
00001FE000
00003FF000
00007DF000
0000F07800
0003C03C00
0007000C00
0000000000
0000000000
0000000000
0000000000
0000000000
0000000000
0000FF07C0
0003FFCFE0
000FC7FFF0
001F83FFF0
003F01F1F0
007E01F0E0
007C01F000
00FC01F000
00F801F000
00F801F000
01F801F000
01F803F000
01F003F000
01F003E000
00F007E000
00F807C000
00F80F8000
00781F8000
003E7E0000
001FFC0000
007FE00000
01F8000000
03E0000000
07E0000000
07F0000000
07FE000000
07FFF00000
03FFFE0000
00FFFF8000
001FFFC000
0C01FFE000
3E001FE000
7C0007E000
F80001E000
F80001E000
F80001E000
F80001E000
F80003C000
7C0007C000
3E001F8000
1FF3FE0000
07FFFC0000
00FFE00000
ENDCHAR
STARTCHAR 011E
ENCODING 286
SWIDTH 796 0
DWIDTH 43 0
BBX 39 53 4 -1
BITMAP
00000C00C0
00001C01C0
00000F8F80
00000FFF00
000007FE00
000003F800
0000000000
0000000000
0000000000
0000000000
00001FF806
0000FFFF0E
0003FFFFDC
000FF007FC
001F8001FC
003F0000FC
00FC00007C
01F800003C
03F0000038
03F0000038
07E0000038
0FC0000018
0FC0000000
1F80000000
1F80000000
3F00000000
3F00000000
7F00000000
7E00000000
7E00000000
FE00000000
FE00000000
FE00000000
FE00000000
FC0001FFFC
FC0001FFFC
FC00003FE0
FE00001FC0
FE00001F80
FE00001F80
FE00001F80
7E00001F00
7E00001F00
7F00001F00
3F00003F00
3F80003E00
1F80007E00
0FC000FE00
07F003FE00
03FE1FFC00
01FFFFE000
007FFF0000
0001000000
ENDCHAR
STARTCHAR 011F
ENCODING 287
SWIDTH 537 0
DWIDTH 29 0
BBX 36 56 -4 -14
BITMAP
0000C00600
0000C00C00
0000E03C00
0000FFF800
0000FFF000
00007FE000
00001F8000
0000000000
0000000000
0000000000
0000000000
0000000000
0000000000
0000FF07C0
0003FFCFE0
000FC7FFF0
001F83FFF0
003F01F1F0
007E01F0E0
007C01F000
00FC01F000
00F801F000
00F801F000
01F801F000
01F803F000
01F003F000
01F003E000
00F007E000
00F807C000
00F80F8000
00781F8000
003E7E0000
001FFC0000
007FE00000
01F8000000
03E0000000
07E0000000
07F0000000
07FE000000
07FFF00000
03FFFE0000
00FFFF8000
001FFFC000
0C01FFE000
3E001FE000
7C0007E000
F80001E000
F80001E000
F80001E000
F80001E000
F80003C000
7C0007C000
3E001F8000
1FF3FE0000
07FFFC0000
00FFE00000
ENDCHAR
STARTCHAR 0120
ENCODING 288
SWIDTH 796 0
DWIDTH 43 0
BBX 39 53 4 -1
BITMAP
0000007000
000000F800
000000F800
000000FC00
000000F800
0000007000
0000000000
0000000000
0000000000
0000000000
00001FF806
0000FFFF0E
0003FFFFDC
000FF007FC
001F8001FC
003F0000FC
00FC00007C
01F800003C
03F0000038
03F0000038
07E0000038
0FC0000018
0FC0000000
1F80000000
1F80000000
3F00000000
3F00000000
7F00000000
7E00000000
7E00000000
FE00000000
FE00000000
FE00000000
FE00000000
FC0001FFFC
FC0001FFFC
FC00003FE0
FE00001FC0
FE00001F80
FE00001F80
FE00001F80
7E00001F00
7E00001F00
7F00001F00
3F00003F00
3F80003E00
1F80007E00
0FC000FE00
07F003FE00
03FE1FFC00
01FFFFE000
007FFF0000
0001000000
ENDCHAR
STARTCHAR 0121
ENCODING 289
SWIDTH 537 0
DWIDTH 29 0
BBX 36 57 -4 -14
BITMAP
00000F8000
00001FC000
00001FC000
00001FC000
00000FC000
00000F8000
0000000000
0000000000
0000000000
0000000000
0000000000
0000000000
0000000000
0000000000
0000FF07C0
0003FFCFE0
000FC7FFF0
001F83FFF0
003F01F1F0
007E01F0E0
007C01F000
00FC01F000
00F801F000
00F801F000
01F801F000
01F803F000
01F003F000
01F003E000
00F007E000
00F807C000
00F80F8000
00781F8000
003E7E0000
001FFC0000
007FE00000
01F8000000
03E0000000
07E0000000
07F0000000
07FE000000
07FFF00000
03FFFE0000
00FFFF8000
001FFFC000
0C01FFE000
3E001FE000
7C0007E000
F80001E000
F80001E000
F80001E000
F80001E000
F80003C000
7C0007C000
3E001F8000
1FF3FE0000
07FFFC0000
00FFE00000
ENDCHAR
STARTCHAR 0122
ENCODING 290
SWIDTH 796 0
DWIDTH 43 0
BBX 39 55 4 -14
BITMAP
00001FF806
0000FFFF0E
0003FFFFDC
000FF007FC
001F8001FC
003F0000FC
00FC00007C
01F800003C
03F0000038
03F0000038
07E0000038
0FC0000018
0FC0000000
1F80000000
1F80000000
3F00000000
3F00000000
7F00000000
7E00000000
7E00000000
FE00000000
FE00000000
FE00000000
FE00000000
FC0001FFFC
FC0001FFFC
FC00003FE0
FE00001FC0
FE00001F80
FE00001F80
FE00001F80
7E00001F00
7E00001F00
7F00001F00
3F00003F00
3F80003E00
1F80007E00
0FC000FE00
07F003FE00
03FE1FFC00
01FFFFE000
007FFF0000
0001000000
0000000000
0000000000
000F000000
000F800000
001FC00000
001FC00000
000FC00000
0001C00000
0001800000
0003800000
000F000000
000C000000
ENDCHAR
STARTCHAR 0123
ENCODING 291
SWIDTH 537 0
DWIDTH 29 0
BBX 36 60 -4 -14
BITMAP
0000008000
0000038000
0000070000
00000E0000
00000C0000
00001D0000
00001F8000
00001FC000
00001FC000
00000F8000
0000070000
0000000000
0000000000
0000000000
0000000000
0000000000
0000000000
0000FF07C0
0003FFCFE0
000FC7FFF0
001F83FFF0
003F01F1F0
007E01F0E0
007C01F000
00FC01F000
00F801F000
00F801F000
01F801F000
01F803F000
01F003F000
01F003E000
00F007E000
00F807C000
00F80F8000
00781F8000
003E7E0000
001FFC0000
007FE00000
01F8000000
03E0000000
07E0000000
07F0000000
07FE000000
07FFF00000
03FFFE0000
00FFFF8000
001FFFC000
0C01FFE000
3E001FE000
7C0007E000
F80001E000
F80001E000
F80001E000
F80001E000
F80003C000
7C0007C000
3E001F8000
1FF3FE0000
07FFFC0000
00FFE00000
ENDCHAR
STARTCHAR 0124
ENCODING 292
SWIDTH 907 0
DWIDTH 49 0
BBX 54 52 -1 0
BITMAP
00000001FC0000
00000003FE0000
00000007FF0000
0000000F9F0000
0000003E078000
0000007001C000
00000000000000
00000000000000
00000000000000
00000000000000
003FFFE00FFFFC
007FFFE00FFFFC
007FFFE00FFFF8
0003FE0000FF80
0003F800007F00
0003F800007E00
0003F000007E00
0003F000007C00
0003F00000FC00
0003E00000FC00
0007E00000FC00
0007E00000F800
0007E00001F800
0007C00001F800
000FC00001F000
000FC00001F000
000F800003F000
000F800003F000
001F800003E000
001FFFFFFFE000
001FFFFFFFE000
001FFFFFFFE000
003F000007C000
003F00000FC000
003E00000FC000
007E00000FC000
007E00000F8000
007E00001F8000
007C00001F8000
00FC00001F8000
00FC00001F0000
00F800003F0000
00F800003F0000
01F800003E0000
01F800003E0000
01F800007E0000
03F000007E0000
03F80000FE0000
07F80001FE0000
1FFE0003FF8000
FFFF803FFFF000
FFFF803FFFE000
ENDCHAR
STARTCHAR 0125
ENCODING 293
SWIDTH 574 0
DWIDTH 31 0
BBX 32 46 0 -1
BITMAP
01FFC000
03FF8000
00FF8000
001F81F8
001F03F8
001F07FC
001F0FFC
001F1E1E
003E380E
003E6007
003E0000
007C0000
007C0000
007C0000
007C0000
00F80000
00F87E00
00F9FF80
01F3FF80
01F78780
01FE07C0
03FC07C0
03FC07C0
03F807C0
03F00F80
07F00F80
07E00F80
07E01F80
0FC01F80
0FC01F00
0F803F00
0F803E00
1F803E00
1F007E00
1F007C00
3E007C00
3E00FC00
3E00F818
3C00F838
7C00F870
7C00F8E0
7801FFC0
F801FF80
F800FF00
F000FC00
00006000
ENDCHAR
STARTCHAR 0126
ENCODING 294
SWIDTH 907 0
DWIDTH 49 0
BBX 54 42 -1 0
BITMAP
003FFFE00FFFFC
003FFFE00FFFFC
007FFFE00FFFF8
0003FE00007F80
0001FC00007F00
0001F800007E00
0003F000007E00
0003F000007E00
0003F000007C00
0003E00000FC00
00FFFFFFFFFFF0
00FFFFFFFFFFF0
01FFFFFFFFFFE0
0007C00001F800
000FC00001F800
000FC00001F000
000FC00003F000
000F800003F000
001F800003F000
001FFFFFFFE000
001FFFFFFFE000
001FFFFFFFE000
003F000007C000
003F000007C000
003E00000FC000
003E00000FC000
007E00000F8000
007E00000F8000
007C00001F8000
007C00001F8000
00FC00001F0000
00FC00003F0000
00F800003F0000
01F800003F0000
01F800003E0000
01F800007E0000
03F800007E0000
03F80000FE0000
07F80000FE0000
1FFE0003FF8000
FFFF801FFFF000
FFFF803FFFE000
ENDCHAR
STARTCHAR 0127
ENCODING 295
SWIDTH 574 0
DWIDTH 31 0
BBX 29 46 0 -1
BITMAP
01FFC000
03FF8000
00FF8000
001F8000
001F0000
001F0000
001F0000
001F0000
07FFFC00
07FFF800
07FFF800
007C0000
007C0000
007C0000
007C0000
00F80000
00F87E00
00F9FF80
01F3FF80
01F78780
01FE07C0
03FC07C0
03FC07C0
03F807C0
03F00F80
07F00F80
07E00F80
07E01F80
0FC01F80
0FC01F00
0F803F00
0F803E00
1F803E00
1F007E00
1F007C00
3E007C00
3E00FC00
3E00F818
3C00F838
7C00F870
7C00F8E0
7801FFC0
F801FF80
F800FF00
F000FC00
00006000
ENDCHAR
STARTCHAR 0128
ENCODING 296
SWIDTH 407 0
DWIDTH 22 0
BBX 30 52 -1 0
BITMAP
0001E00C
0003FC18
0007FFB8
000FFFF8
000C7FF0
00180FE0
000001C0
00000000
00000000
00000000
003FFFE0
007FFFE0
007FFFE0
0003FE00
0003F800
0003F800
0003F000
0003F000
0003F000
0003E000
0007E000
0007E000
0007E000
0007C000
000FC000
000FC000
000F8000
000F8000
001F8000
001F8000
001F0000
001F0000
003F0000
003F0000
003E0000
007E0000
007E0000
007E0000
007C0000
00FC0000
00FC0000
00F80000
00F80000
01F80000
01F80000
01F80000
03F00000
03F80000
07F80000
1FFE0000
FFFF8000
FFFF8000
ENDCHAR
STARTCHAR 0129
ENCODING 297
SWIDTH 333 0
DWIDTH 18 0
BBX 21 43 2 -1
BITMAP
01E008
07F818
07FF38
0FFFF8
1C7FF0
180FE0
0003C0
000000
000000
000000
000000
000000
000000
01F000
03F000
0FF800
1FF800
3FF000
73F000
E3F000
C3F000
83E000
03E000
07E000
07C000
07C000
0FC000
0F8000
0F8000
1F0000
1F0000
3F0000
3E0000
3E0C00
7E0C00
7C1C00
7C3800
7C7000
7FE000
7FC000
7F8000
7F0000
100000
ENDCHAR
STARTCHAR 012A
ENCODING 298
SWIDTH 407 0
DWIDTH 22 0
BBX 28 50 -1 0
BITMAP
0007FFF0
0007FFF0
00000000
00000000
00000000
00000000
00000000
00000000
003FFFE0
007FFFE0
007FFFE0
0003FE00
0003F800
0003F800
0003F000
0003F000
0003F000
0003E000
0007E000
0007E000
0007E000
0007C000
000FC000
000FC000
000F8000
000F8000
001F8000
001F8000
001F0000
001F0000
003F0000
003F0000
003E0000
007E0000
007E0000
007E0000
007C0000
00FC0000
00FC0000
00F80000
00F80000
01F80000
01F80000
01F80000
03F00000
03F80000
07F80000
1FFE0000
FFFF8000
FFFF8000
ENDCHAR
STARTCHAR 012B
ENCODING 299
SWIDTH 333 0
DWIDTH 18 0
BBX 20 42 2 -1
BITMAP
07FFF0
07FFF0
07FFE0
000000
000000
000000
000000
000000
000000
000000
000000
000000
01F000
03F000
0FF800
1FF800
3FF000
73F000
E3F000
C3F000
83E000
03E000
07E000
07C000
07C000
0FC000
0F8000
0F8000
1F0000
1F0000
3F0000
3E0000
3E0C00
7E0C00
7C1C00
7C3800
7C7000
7FE000
7FC000
7F8000
7F0000
100000
ENDCHAR
STARTCHAR 012C
ENCODING 300
SWIDTH 407 0
DWIDTH 22 0
BBX 29 52 -1 0
BITMAP
00030018
00038038
0003E1F0
0003FFE0
0001FFC0
0000FF00
00000000
00000000
00000000
00000000
003FFFE0
007FFFE0
007FFFE0
0003FE00
0003F800
0003F800
0003F000
0003F000
0003F000
0003E000
0007E000
0007E000
0007E000
0007C000
000FC000
000FC000
000F8000
000F8000
001F8000
001F8000
001F0000
001F0000
003F0000
003F0000
003E0000
007E0000
007E0000
007E0000
007C0000
00FC0000
00FC0000
00F80000
00F80000
01F80000
01F80000
01F80000
03F00000
03F80000
07F80000
1FFE0000
FFFF8000
FFFF8000
ENDCHAR
STARTCHAR 012D
ENCODING 301
SWIDTH 333 0
DWIDTH 18 0
BBX 20 43 2 -1
BITMAP
030030
070070
0380E0
03FFE0
03FFC0
01FF00
00FE00
000000
000000
000000
000000
000000
000000
01F000
03F000
0FF800
1FF800
3FF000
73F000
E3F000
C3F000
83E000
03E000
07E000
07C000
07C000
0FC000
0F8000
0F8000
1F0000
1F0000
3F0000
3E0000
3E0C00
7E0C00
7C1C00
7C3800
7C7000
7FE000
7FC000
7F8000
7F0000
100000
ENDCHAR
STARTCHAR 012E
ENCODING 302
SWIDTH 407 0
DWIDTH 22 0
BBX 28 55 -2 -13
BITMAP
001FFFF0
003FFFF0
003FFFF0
0001FF00
0001FC00
0001FC00
0001F800
0001F800
0001F800
0001F000
0003F000
0003F000
0003F000
0003E000
0007E000
0007E000
0007C000
0007C000
000FC000
000FC000
000F8000
000F8000
001F8000
001F8000
001F0000
003F0000
003F0000
003F0000
003E0000
007E0000
007E0000
007C0000
007C0000
00FC0000
00FC0000
00FC0000
01F80000
01FC0000
03FC0000
0FFF0000
7FFFC000
7FFFC000
07800000
0F000000
1C000000
38000000
78000000
F0000000
F0000000
F0180000
F8780000
FFF00000
FFE00000
7FC00000
0C000000
ENDCHAR
STARTCHAR 012F
ENCODING 303
SWIDTH 333 0
DWIDTH 18 0
BBX 21 58 -3 -13
BITMAP
000070
0001F8
0001F8
0001F8
0001F8
0001F8
0000F0
000000
000000
000000
000000
000000
000000
000000
000000
000000
000F80
001F80
007FC0
00FFC0
01FF80
039F80
071F80
061F80
041F00
001F00
003F00
003E00
003E00
007E00
007C00
007C00
00F800
00F800
01F800
01F000
01F060
03F060
03E0E0
03E1C0
03E380
03FF00
03FE00
03FC00
03F000
038000
0F0000
1C0000
3C0000
780000
F00000
F00000
F01800
F87800
FFF000
FFE000
7FC000
0C0000
ENDCHAR
STARTCHAR 0130
ENCODING 304
SWIDTH 407 0
DWIDTH 22 0
BBX 27 52 -1 0
BITMAP
00000C00
00001E00
00003F00
00003F00
00003E00
00001E00
00000000
00000000
00000000
00000000
003FFFE0
007FFFE0
007FFFE0
0003FE00
0003F800
0003F800
0003F000
0003F000
0003F000
0003E000
0007E000
0007E000
0007E000
0007C000
000FC000
000FC000
000F8000
000F8000
001F8000
001F8000
001F0000
001F0000
003F0000
003F0000
003E0000
007E0000
007E0000
007E0000
007C0000
00FC0000
00FC0000
00F80000
00F80000
01F80000
01F80000
01F80000
03F00000
03F80000
07F80000
1FFE0000
FFFF8000
FFFF8000
ENDCHAR
STARTCHAR 0131
ENCODING 305
SWIDTH 333 0
DWIDTH 18 0
BBX 14 30 2 -1
BITMAP
01F0
03F0
0FF8
1FF8
3FF0
73F0
E3F0
C3F0
83E0
03E0
07E0
07C0
07C0
0FC0
0F80
0F80
1F00
1F00
3F00
3E00
3E0C
7E0C
7C1C
7C38
7C70
7FE0
7FC0
7F80
7F00
1000
ENDCHAR
STARTCHAR 0132
ENCODING 306
SWIDTH 962 0
DWIDTH 52 0
BBX 57 43 -1 -1
BITMAP
003FFFE000FFFF80
007FFFE001FFFF80
007FFFE001FFFF80
0003FE00000FF800
0003F8000007F000
0003F8000007E000
0003F0000007E000
0003F0000007C000
0003F0000007C000
0003E000000FC000
0007E000000FC000
0007E000000F8000
0007E000001F8000
0007C000001F8000
000FC000001F8000
000FC000001F0000
000F8000003F0000
000F8000003F0000
001F8000003E0000
001F8000003E0000
001F0000007E0000
001F0000007E0000
003F0000007C0000
003F0000007C0000
003E000000FC0000
007E000000FC0000
007E000000F80000
007E000000F80000
007C000001F80000
00FC000001F80000
00FC00FC01F00000
00F800FC03F00000
00F801FE03F00000
01F801FC03E00000
01F803FC07E00000
01F803F807E00000
03F003F00FC00000
03F801F01F800000
07F801F03F800000
1FFE00FCFF000000
FFFF80FFFC000000
FFFF803FF0000000
0000000500000000
ENDCHAR
STARTCHAR 0133
ENCODING 307
SWIDTH 629 0
DWIDTH 34 0
BBX 33 59 2 -14
BITMAP
000E000E00
003F001F00
003F003F80
003F003F80
003F003F80
003F001F00
001E000E00
0000000000
0000000000
0000000000
0000000000
0000000000
0000000000
0000000000
0000000000
0000000000
01F0007C00
03F001FC00
0FF803FC00
1FF807FC00
3FF00FFC00
73F01CFC00
E3F038FC00
C3F030FC00
83E020F800
03E000F800
07E001F800
07C001F800
07C001F000
0FC001F000
0F8003F000
0F8003F000
1F0003E000
1F0003E000
3F0007E000
3E0007C000
3E0C07C000
7E0C07C000
7C1C0FC000
7C380F8000
7C700F8000
7FE00F8000
7FC01F8000
7F801F0000
7F001F0000
10001F0000
00003E0000
00003E0000
00003E0000
00003C0000
00007C0000
0000780000
01E0780000
03E0F00000
03F0E00000
03FBC00000
01FF800000
01FF000000
007C000000
ENDCHAR
STARTCHAR 0134
ENCODING 308
SWIDTH 537 0
DWIDTH 29 0
BBX 35 53 -1 -1
BITMAP
0000007F00
000000FF80
000001FF80
000007EFC0
00000F03E0
00001C00E0
0000000000
0000000000
0000000000
0000000000
00007FFFE0
00007FFFC0
00007FFFC0
000003FC00
000003F800
000003F800
000003F000
000003F000
000003E000
000003E000
000007E000
000007E000
000007C000
000007C000
00000FC000
00000FC000
00000F8000
00001F8000
00001F8000
00001F8000
00001F0000
00003F0000
00003F0000
00003E0000
00003E0000
00007E0000
00007E0000
00007C0000
00007C0000
0000FC0000
3E00FC0000
7F00F80000
FF01F80000
FF01F80000
FE01F00000
FC03F00000
F807E00000
F807E00000
F80FC00000
7E3F800000
3FFF000000
1FFC000000
0080000000
ENDCHAR
STARTCHAR 0135
ENCODING 309
SWIDTH 296 0
DWIDTH 16 0
BBX 31 56 -10 -14
BITMAP
000003F0
00000FF0
00001FF8
00003EFC
0000783C
0000E01E
00038006
00000000
00000000
00000000
00000000
00000000
00000000
00001E00
00007F00
0001FF00
0003FF00
0007FF00
000E3F00
000C3E00
00187E00
00187E00
00007E00
00007C00
0000FC00
0000FC00
0000FC00
0000F800
0001F800
0001F800
0001F000
0001F000
0003F000
0003F000
0003E000
0003E000
0007E000
0007E000
0007C000
0007C000
000FC000
000F8000
000F8000
000F8000
001F8000
001F0000
001F0000
001E0000
003E0000
703C0000
F83C0000
F8780000
FCF00000
FFE00000
7F800000
3F000000
ENDCHAR
STARTCHAR 0136
ENCODING 310
SWIDTH 814 0
DWIDTH 44 0
BBX 47 55 -1 -14
BITMAP
003FFFE1FFFE
007FFFE1FFFC
007FFFE1FFFC
0003FC003FE0
0003F8003FC0
0003F8003F00
0003F0007E00
0003F000F800
0003F001F000
0003E003E000
0007E00F8000
0007E01F0000
0007C03C0000
0007C0F80000
000FC1E00000
000FC3C00000
000F8F800000
000F9E000000
001FFE000000
001FFF000000
001FFF000000
003FBF800000
003F1FC00000
003F0FE00000
003E0FE00000
007E07F00000
007E03F80000
007C01FC0000
007C01FE0000
00FC00FE0000
00FC007F0000
00F8003F8000
00F8003FC000
01F8001FC000
01F8000FE000
01F0000FF000
03F00007F800
03F00007F800
07F80007FE00
1FFE0007FF00
FFFFC07FFFC0
FFFF807FFFC0
000000000000
000000000000
000000000000
00003C000000
00007E000000
00007F000000
00007F000000
00003F000000
000007000000
00000E000000
00000E000000
00003C000000
000030000000
ENDCHAR
STARTCHAR 0137
ENCODING 311
SWIDTH 500 0
DWIDTH 27 0
BBX 25 58 0 -14
BITMAP
001F8000
03FF8000
01FF0000
001F0000
001F0000
001F0000
003E0000
003E0000
003E0000
007C0000
007C0000
007C0000
007C0000
00F80000
00F80000
00F80000
00F8FE00
01F1FF00
01F7FF80
01F7BF80
01EE1F80
03FC0F80
03F81F00
03F01F00
07E03E00
07E07C00
07C0F800
07C1F000
0F87C000
0F9F0000
0FFC0000
0FFC0000
1FFE0000
1F3E0000
1F3F0000
1F1F0000
3E1F0000
3E1F8180
3E0F8380
7C0FC700
7C07EE00
7C07FE00
7C03FC00
F803F800
F801F000
00000000
00000000
00000000
01E00000
03F00000
03F00000
03F00000
03F00000
00700000
00700000
00E00000
01C00000
03800000
ENDCHAR
STARTCHAR 0138
ENCODING 312
SWIDTH 537 0
DWIDTH 29 0
BBX 25 30 2 -1
BITMAP
3FF0FC00
7FF3FF00
07F7FF00
03EFFF00
03FC1F80
03F81F00
03F01F00
07F01E00
07E03E00
07C07C00
0FC0F800
0F81E000
0F87C000
0F9F0000
1FFC0000
1FFC0000
1FFC0000
1F7E0000
3E3E0000
3E3F0000
3E1F0000
3E1F0180
7C1F8300
7C0F8700
7C0FDE00
F807FC00
F807FC00
F803F800
F803F000
00008000
ENDCHAR
STARTCHAR 0139
ENCODING 313
SWIDTH 685 0
DWIDTH 37 0
BBX 36 52 -1 0
BITMAP
0000007000
000003F000
00000FF000
00003FE000
0000FF0000
0003E00000
0000000000
0000000000
0000000000
0000000000
003FFFE000
007FFFE000
007FFFE000
0003FC0000
0003F80000
0003F80000
0003F00000
0003F00000
0003E00000
0003E00000
0007E00000
0007E00000
0007C00000
0007C00000
000FC00000
000FC00000
000F800000
000F800000
001F800000
001F800000
001F000000
001F000000
003F000000
003F000000
003E000000
003E000000
007E000000
007C000000
007C000000
00FC000000
00FC000070
00F8000070
00F80000E0
01F80000E0
01F80001E0
01F80003C0
03F80007C0
03F8000F80
07FC003F80
1FFF03FF80
FFFFFFFF00
FFFFFFFF00
ENDCHAR
STARTCHAR 013A
ENCODING 314
SWIDTH 296 0
DWIDTH 16 0
BBX 23 53 1 -1
BITMAP
00000E
00007E
0001FE
0007FC
001FE0
007C00
000000
003F00
03FF00
01FE00
007E00
003E00
007C00
007C00
007C00
007C00
00F800
00F800
00F800
00F800
01F000
01F000
01F000
03E000
03E000
03E000
03E000
07C000
07C000
07C000
07C000
0F8000
0F8000
0F8000
1F0000
1F0000
1F0000
1F0000
3E0000
3E0000
3E0000
3E0000
7C0000
7C0C00
7C1C00
7C1800
F83000
F87000
FFE000
FFC000
FF8000
7E0000
080000
ENDCHAR
STARTCHAR 013B
ENCODING 315
SWIDTH 685 0
DWIDTH 37 0
BBX 36 55 -1 -14
BITMAP
003FFFE000
007FFFE000
007FFFE000
0003FC0000
0003F80000
0003F80000
0003F00000
0003F00000
0003E00000
0003E00000
0007E00000
0007E00000
0007C00000
0007C00000
000FC00000
000FC00000
000F800000
000F800000
001F800000
001F800000
001F000000
001F000000
003F000000
003F000000
003E000000
003E000000
007E000000
007C000000
007C000000
00FC000000
00FC000070
00F8000070
00F80000E0
01F80000E0
01F80001E0
01F80003C0
03F80007C0
03F8000F80
07FC003F80
1FFF03FF80
FFFFFFFF00
FFFFFFFF00
0000000000
0000000000
0000000000
0003C00000
0007E00000
0007E00000
0007E00000
0007E00000
0000600000
0000E00000
0001C00000
0003800000
0007000000
ENDCHAR
STARTCHAR 013C
ENCODING 316
SWIDTH 296 0
DWIDTH 16 0
BBX 17 58 0 -14
BITMAP
001F80
01FF80
00FF00
003F00
001F00
003E00
003E00
003E00
003E00
007C00
007C00
007C00
007C00
00F800
00F800
00F800
01F000
01F000
01F000
01F000
03E000
03E000
03E000
03E000
07C000
07C000
07C000
0F8000
0F8000
0F8000
0F8000
1F0000
1F0000
1F0000
1F0000
3E0000
3E0600
3E0E00
3E0C00
7C1800
7C3800
7FF000
7FE000
7FC000
3F0000
040000
000000
000000
780000
FC0000
FC0000
FC0000
FC0000
1C0000
1C0000
380000
700000
E00000
ENDCHAR
STARTCHAR 013D
ENCODING 317
SWIDTH 685 0
DWIDTH 37 0
BBX 36 52 -1 0
BITMAP
001C003000
000F01E000
0007C7C000
0003FF8000
0003FE0000
0001FC0000
0000000000
0000000000
0000000000
0000000000
003FFFE000
007FFFE000
007FFFE000
0003FC0000
0003F80000
0003F80000
0003F00000
0003F00000
0003E00000
0003E00000
0007E00000
0007E00000
0007C00000
0007C00000
000FC00000
000FC00000
000F800000
000F800000
001F800000
001F800000
001F000000
001F000000
003F000000
003F000000
003E000000
003E000000
007E000000
007C000000
007C000000
00FC000000
00FC000070
00F8000070
00F80000E0
01F80000E0
01F80001E0
01F80003C0
03F80007C0
03F8000F80
07FC003F80
1FFF03FF80
FFFFFFFF00
FFFFFFFF00
ENDCHAR
STARTCHAR 013E
ENCODING 318
SWIDTH 296 0
DWIDTH 16 0
BBX 25 46 1 -1
BITMAP
003F0000
03FF0000
01FE0000
007E0F00
003E1F80
007C3F80
007C3F80
007C3F00
007C0700
00F80E00
00F81C00
00F83800
00F86000
01F00000
01F00000
01F00000
03E00000
03E00000
03E00000
03E00000
07C00000
07C00000
07C00000
07C00000
0F800000
0F800000
0F800000
1F000000
1F000000
1F000000
1F000000
3E000000
3E000000
3E000000
3E000000
7C000000
7C0C0000
7C1C0000
7C180000
F8300000
F8700000
FFE00000
FFC00000
FF800000
7E000000
08000000
ENDCHAR
STARTCHAR 013F
ENCODING 319
SWIDTH 685 0
DWIDTH 37 0
BBX 36 42 -1 0
BITMAP
003FFFE000
007FFFE000
007FFFE000
0003FC0000
0003F80000
0003F80000
0003F00000
0003F00000
0003E00000
0003E00000
0007E00000
0007E00000
0007C00000
0007C00000
000FC00000
000FC00000
000F800000
000F807800
001F80FC00
001F80FC00
001F01FC00
001F00FC00
003F00F800
003F007000
003E000000
003E000000
007E000000
007C000000
007C000000
00FC000000
00FC000070
00F8000070
00F80000E0
01F80000E0
01F80001E0
01F80003C0
03F80007C0
03F8000F80
07FC003F80
1FFF03FF80
FFFFFFFF00
FFFFFFFF00
ENDCHAR
STARTCHAR 0140
ENCODING 320
SWIDTH 370 0
DWIDTH 20 0
BBX 21 46 1 -1
BITMAP
003F00
03FF00
01FE00
007E00
003E00
007C00
007C00
007C00
007C00
00F800
00F800
00F800
00F800
01F000
01F000
01F000
03E000
03E000
03E000
03E1F0
07C1F8
07C1F8
07C1F8
07C1F8
0F80F0
0F8000
0F8000
1F0000
1F0000
1F0000
1F0000
3E0000
3E0000
3E0000
3E0000
7C0000
7C0C00
7C1C00
7C1800
F83000
F87000
FFE000
FFC000
FF8000
7E0000
080000
ENDCHAR
STARTCHAR 0141
ENCODING 321
SWIDTH 703 0
DWIDTH 38 0
BBX 36 42 -1 0
BITMAP
003FFFE000
007FFFE000
007FFFE000
0003FE0000
0003F80000
0003F80000
0003F00000
0003F00000
0003F00000
0003E00000
0007E00000
0007E00000
0007E00000
0007C00000
000FC60000
000FDE0000
000FBC0000
000FF80000
001FE00000
001FC00000
003F000000
00FF000000
03FF000000
03FF000000
033E000000
003E000000
007E000000
007E000000
007C000000
007C000000
00FC000030
00FC000070
00F8000060
00F80000E0
01F80001E0
01F80001C0
01F80003C0
03F8000FC0
07FC003F80
1FFF83FF80
FFFFFFFF00
FFFFFFFF00
ENDCHAR
STARTCHAR 0142
ENCODING 322
SWIDTH 314 0
DWIDTH 17 0
BBX 16 46 2 -1
BITMAP
003F
03FE
03FE
007E
007E
007C
007C
007C
00F8
00F8
00F8
00F8
01F0
01F0
01F1
01F3
03EF
03FE
03FC
07F0
0FC0
3FC0
FFC0
FF80
CF80
8F80
0F80
1F00
1F00
1F00
3E00
3E00
3E00
3E00
7C00
7C08
7C0C
7C1C
F838
F870
F8E0
FFE0
FFC0
FF00
7E00
1000
ENDCHAR
STARTCHAR 0143
ENCODING 323
SWIDTH 833 0
DWIDTH 45 0
BBX 49 52 0 0
BITMAP
000000001C0000
000000007E0000
00000001FC0000
00000007F80000
0000001FC00000
0000007C000000
00000000000000
00000000000000
00000000000000
00000000000000
01FFE0001FFF80
03FFF0001FFF80
03FFF0001FFF00
001FF80007FC00
0007F80003F800
0007FC0001F000
0003FC0001E000
0003FC0001E000
0003FE0001C000
0003FE0001C000
0007BF0001C000
00073F0003C000
00073F80038000
00071F80038000
000F1FC0078000
000E0FC0078000
000E0FC0070000
000E07E0070000
001E07E00F0000
001C03F00E0000
001C03F00E0000
001C03F80E0000
003C01F81E0000
003801F81C0000
003800FC1C0000
007800FC1C0000
0078007E3C0000
0070007E380000
0070007F380000
00F0003F380000
00E0003FF80000
00E0001FF00000
00E0001FF00000
01E0000FF00000
01E0000FE00000
01C0000FE00000
03E00007E00000
07E00007E00000
0FF00003C00000
3FF80003C00000
FFFE0001C00000
FFFE0001C00000
ENDCHAR
STARTCHAR 0144
ENCODING 324
SWIDTH 611 0
DWIDTH 33 0
BBX 31 44 1 -1
BITMAP
000001E0
000003F0
000007E0
00000FC0
00003F00
00007C00
0000F000
0001C000
00000000
00000000
00000000
00000000
00000000
00000000
01F00FE0
07F03FF0
0FF87FF0
1CF8F1F8
18F9C1F8
30FB81F0
30FB01F0
60F701F0
60FE01F0
C1FC03F0
C1FC03E0
01F803E0
03F007E0
03F007C0
03E00FC0
07E00FC0
07C00F80
07C01F80
0FC01F80
0F801F00
0F803F04
1F803F0E
1F003E1C
1F003E38
3E007E70
3E007FE0
3E003FC0
7C003F80
7C003E00
00000800
ENDCHAR
STARTCHAR 0145
ENCODING 325
SWIDTH 833 0
DWIDTH 45 0
BBX 49 55 0 -14
BITMAP
01FFE0001FFF80
03FFF0001FFF80
03FFF0001FFF00
001FF80007FC00
0007F80003F800
0007FC0001F000
0003FC0001E000
0003FC0001E000
0003FE0001C000
0003FE0001C000
0007BF0001C000
00073F0003C000
00073F80038000
00071F80038000
000F1FC0078000
000E0FC0078000
000E0FC0070000
000E07E0070000
001E07E00F0000
001C03F00E0000
001C03F00E0000
001C03F80E0000
003C01F81E0000
003801F81C0000
003800FC1C0000
007800FC1C0000
0078007E3C0000
0070007E380000
0070007F380000
00F0003F380000
00E0003FF80000
00E0001FF00000
00E0001FF00000
01E0000FF00000
01E0000FE00000
01C0000FE00000
03E00007E00000
07E00007E00000
0FF00003C00000
3FF80003C00000
FFFE0001C00000
FFFE0001C00000
00000000000000
00000000000000
00000000000000
00001E00000000
00003F00000000
00003F00000000
00003F00000000
00003F00000000
00000700000000
00000700000000
00000E00000000
00001C00000000
00003800000000
ENDCHAR
STARTCHAR 0146
ENCODING 326
SWIDTH 611 0
DWIDTH 33 0
BBX 31 42 1 -14
BITMAP
01F00FE0
07F03FF0
0FF87FF0
1CF8F1F8
18F9C1F8
30FB81F0
30FB01F0
60F701F0
60FE01F0
C1FC03F0
C1FC03E0
01F803E0
03F007E0
03F007C0
03E00FC0
07E00FC0
07C00F80
07C01F80
0FC01F80
0F801F00
0F803F04
1F803F0E
1F003E1C
1F003E38
3E007E70
3E007FE0
3E003FC0
7C003F80
7C003E00
00000800
00000000
00000000
003C0000
007C0000
00FE0000
007E0000
007E0000
000E0000
000C0000
001C0000
00380000
00700000
ENDCHAR
STARTCHAR 0147
ENCODING 327
SWIDTH 833 0
DWIDTH 45 0
BBX 49 52 0 0
BITMAP
000003800E0000
000001E03C0000
000000F9F80000
000000FFE00000
0000007FC00000
0000003F800000
00000000000000
00000000000000
00000000000000
00000000000000
01FFE0001FFF80
03FFF0001FFF80
03FFF0001FFF00
001FF80007FC00
0007F80003F800
0007FC0001F000
0003FC0001E000
0003FC0001E000
0003FE0001C000
0003FE0001C000
0007BF0001C000
00073F0003C000
00073F80038000
00071F80038000
000F1FC0078000
000E0FC0078000
000E0FC0070000
000E07E0070000
001E07E00F0000
001C03F00E0000
001C03F00E0000
001C03F80E0000
003C01F81E0000
003801F81C0000
003800FC1C0000
007800FC1C0000
0078007E3C0000
0070007E380000
0070007F380000
00F0003F380000
00E0003FF80000
00E0001FF00000
00E0001FF00000
01E0000FF00000
01E0000FE00000
01C0000FE00000
03E00007E00000
07E00007E00000
0FF00003C00000
3FF80003C00000
FFFE0001C00000
FFFE0001C00000
ENDCHAR
STARTCHAR 0148
ENCODING 328
SWIDTH 611 0
DWIDTH 33 0
BBX 31 43 1 -1
BITMAP
000E0038
000780F0
0007C3C0
0003FF80
0001FF00
0001FE00
0000FC00
00000000
00000000
00000000
00000000
00000000
00000000
01F00FE0
07F03FF0
0FF87FF0
1CF8F1F8
18F9C1F8
30FB81F0
30FB01F0
60F701F0
60FE01F0
C1FC03F0
C1FC03E0
01F803E0
03F007E0
03F007C0
03E00FC0
07E00FC0
07C00F80
07C01F80
0FC01F80
0F801F00
0F803F04
1F803F0E
1F003E1C
1F003E38
3E007E70
3E007FE0
3E003FC0
7C003F80
7C003E00
00000800
ENDCHAR
STARTCHAR 0149
ENCODING 329
SWIDTH 777 0
DWIDTH 42 0
BBX 32 46 7 -1
BITMAP
38000000
7C000000
7C000000
78000000
F8000000
F8000000
F0000000
F0000000
E0000000
E0000000
C0000000
C0000000
00000000
00000000
00000000
00000000
00F803F0
01FC0FF8
03FC1FFC
073C387C
0E3C707C
0C3CE07C
183DC07C
187D80FC
307F80F8
307F00F8
307E01F8
00FE01F0
00FC01F0
00F803F0
01F803E0
01F003E0
01F007E0
03F007C0
03E007C0
03E00FC0
07E00F81
07C00F83
07C01F87
0F801F8E
0F801F1C
0F801FF8
1F001FF0
1F001FE0
1F000F80
00000200
ENDCHAR
STARTCHAR 014A
ENCODING 330
SWIDTH 833 0
DWIDTH 45 0
BBX 49 56 0 -14
BITMAP
01FFE0001FFF80
03FFF0001FFF80
03FFF0001FFF00
001FF80007FC00
0007F80003F800
0007FC0001F000
0003FC0001E000
0003FC0001E000
0003FE0001C000
0003FE0001C000
0007BF0001C000
00073F0003C000
00073F80038000
00071F80038000
000F1FC0078000
000E0FC0078000
000E0FC0070000
000E07E0070000
001E07E00F0000
001C03F00E0000
001C03F00E0000
001C03F80E0000
003C01F81E0000
003801F81C0000
003800FC1C0000
007800FC1C0000
0078007E3C0000
0070007E380000
0070007F380000
00F0003F380000
00E0003FF80000
00E0001FF00000
00E0001FF00000
01E0000FF00000
01E0000FF00000
01C0000FE00000
03E00007E00000
07E00007E00000
0FF00003E00000
3FF80003C00000
FFFE0001C00000
FFFE0003C00000
00000003800000
00000003800000
00007803800000
0001F807800000
0001FC07000000
0003FC07000000
0003F80F000000
0003F01E000000
0003E01E000000
0003E03C000000
0001F078000000
0001FFF0000000
0000FFE0000000
00003F80000000
ENDCHAR
STARTCHAR 014B
ENCODING 331
SWIDTH 574 0
DWIDTH 31 0
BBX 29 43 1 -14
BITMAP
01F00FE0
07F03FF0
0FF87FF0
1CF8F1F8
18F9C1F8
30FB81F0
30FB81F0
60F701F0
60FE03F0
C1FC03F0
C1FC03E0
01F803E0
03F007E0
03F007C0
03E007C0
07E007C0
07C00FC0
07C00F80
0FC00F80
0F801F80
0F801F00
1F801F00
1F001F00
1F003F00
3E003E00
3E003E00
3E003E00
7C007C00
7C007C00
00007C00
0000F800
0000F800
0000F800
0000F000
0001F000
0001E000
0781E000
0F83C000
0FC38000
0FE70000
07FE0000
07FC0000
01F00000
ENDCHAR
STARTCHAR 014C
ENCODING 332
SWIDTH 814 0
DWIDTH 44 0
BBX 38 51 4 -1
BITMAP
00003FFF80
00003FFF80
0000000000
0000000000
0000000000
0000000000
0000000000
0000000000
00003FF000
0001FFFC00
0007FFFF00
000FE01F80
003F8007C0
007E0003E0
00FC0003F0
01F80001F0
03F00001F8
07E00001F8
07E00001FC
0FC00000FC
1FC00000FC
1F800000FC
3F800000FC
3F000000FC
3F000000FC
7F000000FC
7E000000FC
7E000000FC
FE000001FC
FE000001FC
FE000001FC
FE000001F8
FE000001F8
FE000003F8
FE000003F8
FE000003F0
FE000007F0
FE000007E0
FE000007E0
7E00000FC0
7E00001F80
7F00001F80
3F00003F00
3F80007E00
1F8000FC00
0FC001F800
07E007E000
03FE7FC000
01FFFF0000
007FFC0000
0001800000
ENDCHAR
STARTCHAR 014D
ENCODING 333
SWIDTH 518 0
DWIDTH 28 0
BBX 27 41 1 -1
BITMAP
0007FFE0
000FFFE0
000FFFE0
00000000
00000000
00000000
00000000
00000000
00000000
00000000
00000000
00000000
000FE000
003FF800
00FEFC00
01F81E00
03F01E00
07E01F00
0FC01F00
0FC01F00
1F801F80
1F801F80
3F001F80
3F001F80
7F001F80
7E001F00
7E003F00
7E003F00
FC003F00
FC007E00
FC007E00
FC007C00
FC00FC00
7C00F800
7C01F000
7C03F000
7C07E000
3E0FC000
1F1F8000
0FFE0000
07FC0000
ENDCHAR
STARTCHAR 014E
ENCODING 334
SWIDTH 814 0
DWIDTH 44 0
BBX 38 53 4 -1
BITMAP
00000C0060
00000E00C0
00000F87C0
00000FFF80
000007FF00
000003FC00
0000000000
0000000000
0000000000
0000000000
00003FF000
0001FFFC00
0007FFFF00
000FE01F80
003F8007C0
007E0003E0
00FC0003F0
01F80001F0
03F00001F8
07E00001F8
07E00001FC
0FC00000FC
1FC00000FC
1F800000FC
3F800000FC
3F000000FC
3F000000FC
7F000000FC
7E000000FC
7E000000FC
FE000001FC
FE000001FC
FE000001FC
FE000001F8
FE000001F8
FE000003F8
FE000003F8
FE000003F0
FE000007F0
FE000007E0
FE000007E0
7E00000FC0
7E00001F80
7F00001F80
3F00003F00
3F80007E00
1F8000FC00
0FC001F800
07E007E000
03FE7FC000
01FFFF0000
007FFC0000
0001800000
ENDCHAR
STARTCHAR 014F
ENCODING 335
SWIDTH 518 0
DWIDTH 28 0
BBX 27 42 1 -1
BITMAP
000C0060
000E00E0
000F01C0
000FFF80
0007FF00
0007FE00
0001F800
00000000
00000000
00000000
00000000
00000000
00000000
000FE000
003FF800
00FEFC00
01F81E00
03F01E00
07E01F00
0FC01F00
0FC01F00
1F801F80
1F801F80
3F001F80
3F001F80
7F001F80
7E001F00
7E003F00
7E003F00
FC003F00
FC007E00
FC007E00
FC007C00
FC00FC00
7C00F800
7C01F000
7C03F000
7C07E000
3E0FC000
1F1F8000
0FFE0000
07FC0000
ENDCHAR
STARTCHAR 0150
ENCODING 336
SWIDTH 814 0
DWIDTH 44 0
BBX 39 53 4 -1
BITMAP
000000701C
000001F87E
000007F9FE
00000FF3FC
00003F8FE0
0000F81E00
0000002000
0000000000
0000000000
0000000000
00003FF000
0001FFFC00
0007FFFF00
000FE01F80
003F8007C0
007E0003E0
00FC0003F0
01F80001F0
03F00001F8
07E00001F8
07E00001FC
0FC00000FC
1FC00000FC
1F800000FC
3F800000FC
3F000000FC
3F000000FC
7F000000FC
7E000000FC
7E000000FC
FE000001FC
FE000001FC
FE000001FC
FE000001F8
FE000001F8
FE000003F8
FE000003F8
FE000003F0
FE000007F0
FE000007E0
FE000007E0
7E00000FC0
7E00001F80
7F00001F80
3F00003F00
3F80007E00
1F8000FC00
0FC001F800
07E007E000
03FE7FC000
01FFFF0000
007FFC0000
0001800000
ENDCHAR
STARTCHAR 0151
ENCODING 337
SWIDTH 518 0
DWIDTH 28 0
BBX 31 43 1 -1
BITMAP
0000F01E
0001F83E
0003F0FE
0007E1FC
000FC3F0
001E07C0
00780F00
00E01C00
00000000
00000000
00000000
00000000
00000000
00000000
000FE000
003FF800
00FEFC00
01F81E00
03F01E00
07E01F00
0FC01F00
0FC01F00
1F801F80
1F801F80
3F001F80
3F001F80
7F001F80
7E001F00
7E003F00
7E003F00
FC003F00
FC007E00
FC007E00
FC007C00
FC00FC00
7C00F800
7C01F000
7C03F000
7C07E000
3E0FC000
1F1F8000
0FFE0000
07FC0000
ENDCHAR
STARTCHAR 0152
ENCODING 338
SWIDTH 1148 0
DWIDTH 62 0
BBX 57 42 4 0
BITMAP
0000003FFFFFFF80
00000FFFFFFFFF80
00007FFFFFFFFF80
0001F801FC007F80
0007E000FC001F80
000F8000FC000F80
003F0000FC000780
007E0000F8000780
00FC0001F8000380
01F80001F8000380
03F00001F8000380
07E00001F0000000
0FE00001F0000000
0FC00003F0060000
1FC00003F00E0000
3F800003E00E0000
3F800003E01C0000
7F000007E03C0000
7F000007E0FC0000
7F000007FFFC0000
FE000007FFFC0000
FE00000FC1F80000
FE00000FC0780000
FE00000FC0380000
FE00000F80380000
FE00001F80380000
FC00001F80300000
FC00001F80300000
FC00001F00300000
FC00001F00000000
FE00003F00000000
7E00003F00000E00
7E00003E00000C00
7E00003E00001C00
3F00007E00003C00
1F80007E00003800
0F80007E00007800
07E000FE0001F000
03F000FF0003F000
01FF03FFF03FF000
007FFFFFFFFFE000
0007FFFFFFFFE000
ENDCHAR
STARTCHAR 0153
ENCODING 339
SWIDTH 777 0
DWIDTH 42 0
BBX 41 30 1 -1
BITMAP
000FE000FC00
003FF807FF00
00FEFC0F9F80
01F81E3E0F80
03F01E7C0F80
07E01FF80F80
0FC01FF00F80
0FC01FE01F00
1F801FE01F00
1F801FC03E00
3F001FC07C00
3F001F80F800
7F001F83E000
7E001F07C000
7E003F3F0000
7E003FFC0000
FC003FF00000
FC007F000000
FC007E000000
FC007E000000
FC00FE000000
7C00FE001800
7C01FE003800
7C03FF007000
7C07FF00E000
3E0FDF81C000
1F1F9FEF8000
0FFE0FFF0000
07FC07FC0000
000000400000
ENDCHAR
STARTCHAR 0154
ENCODING 340
SWIDTH 759 0
DWIDTH 41 0
BBX 39 52 -1 0
BITMAP
00000001C0
00000007E0
0000001FC0
0000007F80
000001FC00
000007C000
0000000000
0000000000
0000000000
0000000000
007FFFE000
007FFFFF00
007FFFFFC0
0003FC07F0
0003F803F8
0003F001F8
0003F000FC
0003F000FC
0003F000FC
0003E000FC
0003E000FC
0007E000FC
0007E000FC
0007C001FC
000FC001F8
000FC003F8
000F8007F0
000F801FE0
001F80FF80
001FFFFF00
001FFFF800
001FFFE000
003F07E000
003F03F000
003E03F000
003E03F000
007E01F800
007E01F800
007C00FC00
00FC00FC00
00FC00FC00
00F8007E00
00F8007E00
01F8007F00
01F8003F00
01F8003F80
03F8001F80
03F8001FC0
07FC001FE0
1FFFC00FF8
FFFFC00FFE
FFFFC007FE
ENDCHAR
STARTCHAR 0155
ENCODING 341
SWIDTH 462 0
DWIDTH 25 0
BBX 26 43 1 0
BITMAP
00000F00
00001F80
00003F00
00007E00
0000FC00
0003E000
00078000
000E0000
00000000
00000000
00000000
00000000
00000000
00000600
00F01F80
03F07FC0
07F0FFC0
1FF1FFC0
39F3CF80
30F70700
60F70000
C1FE0000
41FC0000
01F80000
01F80000
03F00000
03F00000
03E00000
07E00000
07C00000
07C00000
0FC00000
0F800000
0F800000
1F800000
1F000000
1F000000
3F000000
3E000000
3E000000
3E000000
7C000000
7C000000
ENDCHAR
STARTCHAR 0156
ENCODING 342
SWIDTH 759 0
DWIDTH 41 0
BBX 39 55 -1 -14
BITMAP
007FFFE000
007FFFFF00
007FFFFFC0
0003FC07F0
0003F803F8
0003F001F8
0003F000FC
0003F000FC
0003F000FC
0003E000FC
0003E000FC
0007E000FC
0007E000FC
0007C001FC
000FC001F8
000FC003F8
000F8007F0
000F801FE0
001F80FF80
001FFFFF00
001FFFF800
001FFFE000
003F07E000
003F03F000
003E03F000
003E03F000
007E01F800
007E01F800
007C00FC00
00FC00FC00
00FC00FC00
00F8007E00
00F8007E00
01F8007F00
01F8003F00
01F8003F80
03F8001F80
03F8001FC0
07FC001FE0
1FFFC00FF8
FFFFC00FFE
FFFFC007FE
0000000000
0000000000
0000000000
0000780000
0000FC0000
0000FC0000
0000FE0000
00007E0000
00000C0000
00001C0000
0000180000
0000700000
0000600000
ENDCHAR
STARTCHAR 0157
ENCODING 343
SWIDTH 462 0
DWIDTH 25 0
BBX 27 43 0 -14
BITMAP
00000300
00780FC0
01F83FE0
03F87FE0
0FF8FFE0
1CF9E7C0
187B8380
307B8000
60FF0000
20FE0000
00FC0000
00FC0000
01F80000
01F80000
01F00000
03F00000
03E00000
03E00000
07E00000
07C00000
07C00000
0FC00000
0F800000
0F800000
1F800000
1F000000
1F000000
1F000000
3E000000
3E000000
00000000
00000000
00000000
78000000
FC000000
FC000000
FC000000
FC000000
0C000000
1C000000
38000000
70000000
E0000000
ENDCHAR
STARTCHAR 0158
ENCODING 344
SWIDTH 759 0
DWIDTH 41 0
BBX 39 52 -1 0
BITMAP
00003800E0
00001E03C0
00000F9F80
00000FFE00
000007FC00
000003F800
0000000000
0000000000
0000000000
0000000000
007FFFE000
007FFFFF00
007FFFFFC0
0003FC07F0
0003F803F8
0003F001F8
0003F000FC
0003F000FC
0003F000FC
0003E000FC
0003E000FC
0007E000FC
0007E000FC
0007C001FC
000FC001F8
000FC003F8
000F8007F0
000F801FE0
001F80FF80
001FFFFF00
001FFFF800
001FFFE000
003F07E000
003F03F000
003E03F000
003E03F000
007E01F800
007E01F800
007C00FC00
00FC00FC00
00FC00FC00
00F8007E00
00F8007E00
01F8007F00
01F8003F00
01F8003F80
03F8001F80
03F8001FC0
07FC001FE0
1FFFC00FF8
FFFFC00FFE
FFFFC007FE
ENDCHAR
STARTCHAR 0159
ENCODING 345
SWIDTH 462 0
DWIDTH 25 0
BBX 26 42 1 0
BITMAP
007001C0
003C0780
001E1E00
001FFC00
000FF800
000FF000
0007E000
00000000
00000000
00000000
00000000
00000000
00000600
00F01F80
03F07FC0
07F0FFC0
1FF1FFC0
39F3CF80
30F70700
60F70000
C1FE0000
41FC0000
01F80000
01F80000
03F00000
03F00000
03E00000
07E00000
07C00000
07C00000
0FC00000
0F800000
0F800000
1F800000
1F000000
1F000000
3F000000
3E000000
3E000000
3E000000
7C000000
7C000000
ENDCHAR
STARTCHAR 015A
ENCODING 346
SWIDTH 592 0
DWIDTH 32 0
BBX 31 53 1 -1
BITMAP
00000038
000000FC
000003FC
00000FF0
00003FC0
0000F800
00000000
00000000
00000000
00000000
0001FF00
0007FFC6
001FFFE4
003F01FC
007C007C
0078007C
00F8003C
00F00038
01F00038
01F00038
01F00018
01F80018
01F80000
01FC0000
00FE0000
00FF0000
007FC000
007FE000
003FF000
001FFC00
000FFE00
0003FF00
0001FF80
0000FF80
00003FC0
00001FC0
00000FE0
00000FE0
300007E0
300003E0
300003E0
300003E0
780003E0
780003C0
780003C0
7C000780
7C000780
7E000F00
FF803E00
C7E1FC00
C3FFF800
C0FFE000
00040000
ENDCHAR
STARTCHAR 015B
ENCODING 347
SWIDTH 370 0
DWIDTH 20 0
BBX 24 44 -1 -1
BITMAP
00000F
00003F
00007F
0000FE
0001F8
0003E0
000780
000E00
000000
000000
000000
000000
000000
000000
003F80
007FE0
01F3F0
01E1F0
03C1F0
03C0F0
07C0E0
07C000
07E000
07E000
07F000
03F800
03FC00
01FC00
00FE00
00FF00
007F00
003F00
001F80
001F80
000F80
300F80
780F80
FC0F00
FC0F00
FC1E00
7C3C00
7FF800
1FF000
010000
ENDCHAR
STARTCHAR 015C
ENCODING 348
SWIDTH 592 0
DWIDTH 32 0
BBX 31 53 1 -1
BITMAP
00001FC0
00003FC0
0000FFE0
0001FBF0
0003C0F8
00070038
00000000
00000000
00000000
00000000
0001FF00
0007FFC6
001FFFE4
003F01FC
007C007C
0078007C
00F8003C
00F00038
01F00038
01F00038
01F00018
01F80018
01F80000
01FC0000
00FE0000
00FF0000
007FC000
007FE000
003FF000
001FFC00
000FFE00
0003FF00
0001FF80
0000FF80
00003FC0
00001FC0
00000FE0
00000FE0
300007E0
300003E0
300003E0
300003E0
780003E0
780003C0
780003C0
7C000780
7C000780
7E000F00
FF803E00
C7E1FC00
C3FFF800
C0FFE000
00040000
ENDCHAR
STARTCHAR 015D
ENCODING 349
SWIDTH 370 0
DWIDTH 20 0
BBX 24 43 -1 -1
BITMAP
0003F0
0007F8
000FF8
003F7C
007C3E
00F00E
01C007
000000
000000
000000
000000
000000
000000
003F80
007FE0
01F3F0
01E1F0
03C1F0
03C0F0
07C0E0
07C000
07E000
07E000
07F000
03F800
03FC00
01FC00
00FE00
00FF00
007F00
003F00
001F80
001F80
000F80
300F80
780F80
FC0F00
FC0F00
FC1E00
7C3C00
7FF800
1FF000
010000
ENDCHAR
STARTCHAR 015E
ENCODING 350
SWIDTH 592 0
DWIDTH 32 0
BBX 31 56 1 -14
BITMAP
0001FF00
0007FFC6
001FFFE4
003F01FC
007C007C
0078007C
00F8003C
00F00038
01F00038
01F00038
01F00018
01F80018
01F80000
01FC0000
00FE0000
00FF0000
007FC000
007FE000
003FF000
001FFC00
000FFE00
0003FF00
0001FF80
0000FF80
00003FC0
00001FC0
00000FE0
00000FE0
300007E0
300003E0
300003E0
300003E0
780003E0
780003C0
780003C0
7C000780
7C000780
7E000F00
FF803E00
C7E1FC00
C3FFF800
C0FFE000
001E0000
00380000
00700000
00700000
00FE0000
01FF8000
001F8000
000F8000
0E078000
0E0F8000
0E0F0000
0F3E0000
0FFC0000
03F00000
ENDCHAR
STARTCHAR 015F
ENCODING 351
SWIDTH 370 0
DWIDTH 20 0
BBX 23 43 -4 -14
BITMAP
0007F0
000FFC
003E7E
003C3E
00783E
00781E
00F81C
00F800
00FC00
00FC00
00FE00
007F00
007F80
003F80
001FC0
001FE0
000FE0
0007E0
0003F0
0003F0
0001F0
0601F0
0F01F0
1F81E0
1F81E0
1F83C0
0F8780
0FFF00
03FE00
01E000
038000
038000
070000
0FF000
0FF800
00F800
007C00
607800
E07800
F0F000
F9F000
7FC000
3F0000
ENDCHAR
STARTCHAR 0160
ENCODING 352
SWIDTH 592 0
DWIDTH 32 0
BBX 31 53 1 -1
BITMAP
0003800E
0003E07C
0001F1F0
0000FFE0
00007FC0
00007F00
00000000
00000000
00000000
00000000
0001FF00
0007FFC6
001FFFE4
003F01FC
007C007C
0078007C
00F8003C
00F00038
01F00038
01F00038
01F00018
01F80018
01F80000
01FC0000
00FE0000
00FF0000
007FC000
007FE000
003FF000
001FFC00
000FFE00
0003FF00
0001FF80
0000FF80
00003FC0
00001FC0
00000FE0
00000FE0
300007E0
300003E0
300003E0
300003E0
780003E0
780003C0
780003C0
7C000780
7C000780
7E000F00
FF803E00
C7E1FC00
C3FFF800
C0FFE000
00040000
ENDCHAR
STARTCHAR 0161
ENCODING 353
SWIDTH 370 0
DWIDTH 20 0
BBX 25 43 -1 -1
BITMAP
00700380
00780F00
003E3E00
001FFC00
001FF000
000FE000
0007C000
00000000
00000000
00000000
00000000
00000000
00000000
003F8000
007FE000
01F3F000
01E1F000
03C1F000
03C0F000
07C0E000
07C00000
07E00000
07E00000
07F00000
03F80000
03FC0000
01FC0000
00FE0000
00FF0000
007F0000
003F0000
001F8000
001F8000
000F8000
300F8000
780F8000
FC0F0000
FC0F0000
FC1E0000
7C3C0000
7FF80000
1FF00000
01000000
ENDCHAR
STARTCHAR 0162
ENCODING 354
SWIDTH 777 0
DWIDTH 42 0
BBX 41 56 4 -14
BITMAP
07FFFFFFFF80
07FFFFFFFF80
0FFFFFFFFF80
0FE01FE01F80
0F801FC00F80
1F001FC00780
1C001F800780
38001F800380
38001F800380
70001F000380
60003F000300
E0003F000300
00003E000000
00003E000000
00007E000000
00007E000000
00007C000000
00007C000000
0000FC000000
0000FC000000
0000F8000000
0000F8000000
0001F8000000
0001F8000000
0001F0000000
0003F0000000
0003F0000000
0003E0000000
0003E0000000
0007E0000000
0007E0000000
0007C0000000
0007C0000000
000FC0000000
000FC0000000
000F80000000
001F80000000
001F80000000
003FC0000000
00FFF0000000
0FFFFE000000
0FFFFE000000
000700000000
000E00000000
001C00000000
001C00000000
003F80000000
007FC0000000
0007E0000000
0003E0000000
0303E0000000
0383E0000000
0783C0000000
03CF80000000
03FF00000000
00FC00000000
ENDCHAR
STARTCHAR 0163
ENCODING 355
SWIDTH 351 0
DWIDTH 19 0
BBX 22 50 -3 -14
BITMAP
0003E0
0003E0
0003E0
0007C0
0007C0
0007C0
000F80
000F80
000F80
01FFFC
03FFFC
03FFFC
001F00
003E00
003E00
003E00
007C00
007C00
007C00
00F800
00F800
00F800
01F000
01F000
01F000
01F000
03E020
03E070
03E060
03C0E0
07C1C0
07C380
07FF00
07FE00
07FC00
03F000
01C000
038000
038000
070000
0FE000
0FF800
01F800
007800
607800
E07800
F0F000
F3E000
7FC000
3F0000
ENDCHAR
STARTCHAR 0164
ENCODING 356
SWIDTH 777 0
DWIDTH 42 0
BBX 41 52 4 0
BITMAP
00003800E000
00003C078000
00001F1F0000
00000FFE0000
000007FC0000
000007F00000
000000000000
000000000000
000000000000
000000000000
07FFFFFFFF80
07FFFFFFFF80
0FFFFFFFFF80
0FE01FE01F80
0F801FC00F80
1F001FC00780
1C001F800780
38001F800380
38001F800380
70001F000380
60003F000300
E0003F000300
00003E000000
00003E000000
00007E000000
00007E000000
00007C000000
00007C000000
0000FC000000
0000FC000000
0000F8000000
0000F8000000
0001F8000000
0001F8000000
0001F0000000
0003F0000000
0003F0000000
0003E0000000
0003E0000000
0007E0000000
0007E0000000
0007C0000000
0007C0000000
000FC0000000
000FC0000000
000F80000000
001F80000000
001F80000000
003FC0000000
00FFF0000000
0FFFFE000000
0FFFFE000000
ENDCHAR
STARTCHAR 0165
ENCODING 357
SWIDTH 351 0
DWIDTH 19 0
BBX 25 43 2 -1
BITMAP
00000F00
00001F80
00001F80
00001F80
00001F80
00000300
007C0700
007C0E00
007C3C00
00F87000
00F80000
00F80000
01F00000
01F00000
01F00000
3FFF8000
7FFF8000
7FFF8000
03E00000
07C00000
07C00000
07C00000
0F800000
0F800000
0F800000
1F000000
1F000000
1F000000
3E000000
3E000000
3E000000
3E000000
7C040000
7C0E0000
7C0C0000
781C0000
F8380000
F8700000
FFE00000
FFC00000
FF800000
7E000000
10000000
ENDCHAR
STARTCHAR 0166
ENCODING 358
SWIDTH 796 0
DWIDTH 43 0
BBX 41 42 5 0
BITMAP
07FFFFFFFF80
0FFFFFFFFF80
0FFFFFFFFF00
1FE03FC03F00
1F003F801F00
3E001F800F00
3C001F000700
78003F000700
70003F000700
E0003E000700
C0003E000700
C0007E000700
00007E000000
00007C000000
00007C000000
0000FC000000
0000FC000000
0000F8000000
7FFFFFFFF000
7FFFFFFFE000
0001F0000000
0001F0000000
0003F0000000
0003F0000000
0003E0000000
0003E0000000
0007E0000000
0007E0000000
0007C0000000
0007C0000000
000FC0000000
000FC0000000
000F80000000
000F80000000
001F80000000
001F00000000
003F00000000
003F00000000
007F80000000
01FFE0000000
1FFFFC000000
1FFFFC000000
ENDCHAR
STARTCHAR 0167
ENCODING 359
SWIDTH 351 0
DWIDTH 19 0
BBX 17 37 2 -1
BITMAP
007C00
007C00
007C00
00F800
00F800
00F800
01F000
01F000
01F000
3FFF80
3FFF80
7FFF80
03E000
07C000
07C000
7FFF00
FFFE00
FFFE00
0F8000
1F0000
1F0000
1F0000
1F0000
3E0000
3E0000
3E0000
7C0400
7C0600
7C0C00
7C1C00
F83800
F87000
FFE000
FFC000
FF8000
7E0000
100000
ENDCHAR
STARTCHAR 0168
ENCODING 360
SWIDTH 796 0
DWIDTH 43 0
BBX 41 53 6 -1
BITMAP
00003C010000
0000FF830000
0000FFF70000
0001FFFF0000
00018FFE0000
000303FC0000
000000300000
000000000000
000000000000
000000000000
7FFFC01FFF80
7FFFC01FFF80
FFFFC03FFF80
07F80003F800
07F00000F000
07F00000F000
07E00000F000
07E00000E000
07E00000E000
07C00001E000
07C00001E000
0FC00001C000
0FC00001C000
0F800001C000
1F800001C000
1F800003C000
1F0000038000
1F0000038000
3F0000038000
3F0000078000
3E0000070000
3E0000070000
7E0000070000
7E00000F0000
7C00000E0000
7C00000E0000
FC00000E0000
FC00001C0000
FC00001C0000
FC00003C0000
FC0000380000
FC0000380000
FC0000700000
FC0000F00000
7C0000E00000
7E0001E00000
7E0003C00000
3F0007800000
1FC01F000000
0FFFFE000000
07FFF8000000
01FFE0000000
000400000000
ENDCHAR
STARTCHAR 0169
ENCODING 361
SWIDTH 592 0
DWIDTH 32 0
BBX 29 42 1 -1
BITMAP
0003C030
000FF030
001FFE70
001FFFE0
0038FFE0
00303FC0
00000780
00000000
00000000
00000000
00000000
00000000
00000000
00F001F0
03F803F0
07F803E0
0FF803E0
1CF807E0
39F807C0
71F807C0
61F00FC0
C1F00F80
03F00F80
03E01F80
07E01F00
07C03F00
07C03F00
0FC07E00
0F807E00
1F80FE00
1F80FC00
1F01FC00
3F01FC10
3E03FC18
3E07F830
3E0EF870
7E1EF860
7E3CF8E0
7F78FFC0
3FF0FF80
3FE0FF00
1FC07C00
ENDCHAR
STARTCHAR 016A
ENCODING 362
SWIDTH 796 0
DWIDTH 43 0
BBX 41 51 6 -1
BITMAP
0000FFFE0000
0000FFFE0000
000000000000
000000000000
000000000000
000000000000
000000000000
000000000000
7FFFC01FFF80
7FFFC01FFF80
FFFFC03FFF80
07F80003F800
07F00000F000
07F00000F000
07E00000F000
07E00000E000
07E00000E000
07C00001E000
07C00001E000
0FC00001C000
0FC00001C000
0F800001C000
1F800001C000
1F800003C000
1F0000038000
1F0000038000
3F0000038000
3F0000078000
3E0000070000
3E0000070000
7E0000070000
7E00000F0000
7C00000E0000
7C00000E0000
FC00000E0000
FC00001C0000
FC00001C0000
FC00003C0000
FC0000380000
FC0000380000
FC0000700000
FC0000F00000
7C0000E00000
7E0001E00000
7E0003C00000
3F0007800000
1FC01F000000
0FFFFE000000
07FFF8000000
01FFE0000000
000400000000
ENDCHAR
STARTCHAR 016B
ENCODING 363
SWIDTH 592 0
DWIDTH 32 0
BBX 29 41 1 -1
BITMAP
000FFFE0
000FFFC0
000FFFC0
00000000
00000000
00000000
00000000
00000000
00000000
00000000
00000000
00000000
00F001F0
03F803F0
07F803E0
0FF803E0
1CF807E0
39F807C0
71F807C0
61F00FC0
C1F00F80
03F00F80
03E01F80
07E01F00
07C03F00
07C03F00
0FC07E00
0F807E00
1F80FE00
1F80FC00
1F01FC00
3F01FC10
3E03FC18
3E07F830
3E0EF870
7E1EF860
7E3CF8E0
7F78FFC0
3FF0FF80
3FE0FF00
1FC07C00
ENDCHAR
STARTCHAR 016C
ENCODING 364
SWIDTH 796 0
DWIDTH 43 0
BBX 41 53 6 -1
BITMAP
000060060000
0000600E0000
00007C7C0000
00007FF80000
00003FF00000
00001FE00000
000000000000
000000000000
000000000000
000000000000
7FFFC01FFF80
7FFFC01FFF80
FFFFC03FFF80
07F80003F800
07F00000F000
07F00000F000
07E00000F000
07E00000E000
07E00000E000
07C00001E000
07C00001E000
0FC00001C000
0FC00001C000
0F800001C000
1F800001C000
1F800003C000
1F0000038000
1F0000038000
3F0000038000
3F0000078000
3E0000070000
3E0000070000
7E0000070000
7E00000F0000
7C00000E0000
7C00000E0000
FC00000E0000
FC00001C0000
FC00001C0000
FC00003C0000
FC0000380000
FC0000380000
FC0000700000
FC0000F00000
7C0000E00000
7E0001E00000
7E0003C00000
3F0007800000
1FC01F000000
0FFFFE000000
07FFF8000000
01FFE0000000
000400000000
ENDCHAR
STARTCHAR 016D
ENCODING 365
SWIDTH 592 0
DWIDTH 32 0
BBX 29 42 1 -1
BITMAP
000E0060
000E00E0
000F01C0
0007FFC0
0007FF80
0003FE00
0001F800
00000000
00000000
00000000
00000000
00000000
00000000
00F001F0
03F803F0
07F803E0
0FF803E0
1CF807E0
39F807C0
71F807C0
61F00FC0
C1F00F80
03F00F80
03E01F80
07E01F00
07C03F00
07C03F00
0FC07E00
0F807E00
1F80FE00
1F80FC00
1F01FC00
3F01FC10
3E03FC18
3E07F830
3E0EF870
7E1EF860
7E3CF8E0
7F78FFC0
3FF0FF80
3FE0FF00
1FC07C00
ENDCHAR
STARTCHAR 016E
ENCODING 366
SWIDTH 796 0
DWIDTH 43 0
BBX 41 53 6 -1
BITMAP
000001C00000
000007E00000
00000C600000
00000C600000
000008600000
00000FC00000
00000F800000
000000000000
000000000000
000000000000
7FFFC01FFF80
7FFFC01FFF80
FFFFC03FFF80
07F80003F800
07F00000F000
07F00000F000
07E00000F000
07E00000E000
07E00000E000
07C00001E000
07C00001E000
0FC00001C000
0FC00001C000
0F800001C000
1F800001C000
1F800003C000
1F0000038000
1F0000038000
3F0000038000
3F0000078000
3E0000070000
3E0000070000
7E0000070000
7E00000F0000
7C00000E0000
7C00000E0000
FC00000E0000
FC00001C0000
FC00001C0000
FC00003C0000
FC0000380000
FC0000380000
FC0000700000
FC0000F00000
7C0000E00000
7E0001E00000
7E0003C00000
3F0007800000
1FC01F000000
0FFFFE000000
07FFF8000000
01FFE0000000
000400000000
ENDCHAR
STARTCHAR 016F
ENCODING 367
SWIDTH 592 0
DWIDTH 32 0
BBX 29 45 1 -1
BITMAP
00003C00
00007E00
0000FF00
00018300
00018300
00038700
00038600
0003FC00
0001F800
00004000
00000000
00000000
00000000
00000000
00000000
00000000
00F001F0
03F803F0
07F803E0
0FF803E0
1CF807E0
39F807C0
71F807C0
61F00FC0
C1F00F80
03F00F80
03E01F80
07E01F00
07C03F00
07C03F00
0FC07E00
0F807E00
1F80FE00
1F80FC00
1F01FC00
3F01FC10
3E03FC18
3E07F830
3E0EF870
7E1EF860
7E3CF8E0
7F78FFC0
3FF0FF80
3FE0FF00
1FC07C00
ENDCHAR
STARTCHAR 0170
ENCODING 368
SWIDTH 796 0
DWIDTH 43 0
BBX 41 53 6 -1
BITMAP
000001C07000
000007C1F800
00001FC7F800
00007FDFF000
0000FE3F8000
0003E0F80000
000000000000
000000000000
000000000000
000000000000
7FFFC01FFF80
7FFFC01FFF80
FFFFC03FFF80
07F80003F800
07F00000F000
07F00000F000
07E00000F000
07E00000E000
07E00000E000
07C00001E000
07C00001E000
0FC00001C000
0FC00001C000
0F800001C000
1F800001C000
1F800003C000
1F0000038000
1F0000038000
3F0000038000
3F0000078000
3E0000070000
3E0000070000
7E0000070000
7E00000F0000
7C00000E0000
7C00000E0000
FC00000E0000
FC00001C0000
FC00001C0000
FC00003C0000
FC0000380000
FC0000380000
FC0000700000
FC0000F00000
7C0000E00000
7E0001E00000
7E0003C00000
3F0007800000
1FC01F000000
0FFFFE000000
07FFF8000000
01FFE0000000
000400000000
ENDCHAR
STARTCHAR 0171
ENCODING 369
SWIDTH 592 0
DWIDTH 32 0
BBX 32 43 1 -1
BITMAP
00007C0F
0000FC1F
0001FC3F
0003F87E
0007E1F8
000F83E0
001C0780
00700E00
00000000
00000000
00000000
00000000
00000000
00000000
00F001F0
03F803F0
07F803E0
0FF803E0
1CF807E0
39F807C0
71F807C0
61F00FC0
C1F00F80
03F00F80
03E01F80
07E01F00
07C03F00
07C03F00
0FC07E00
0F807E00
1F80FE00
1F80FC00
1F01FC00
3F01FC10
3E03FC18
3E07F830
3E0EF870
7E1EF860
7E3CF8E0
7F78FFC0
3FF0FF80
3FE0FF00
1FC07C00
ENDCHAR
STARTCHAR 0172
ENCODING 370
SWIDTH 796 0
DWIDTH 43 0
BBX 41 55 6 -13
BITMAP
7FFFC01FFF80
7FFFC01FFF80
FFFFC03FFF80
07F80003F800
07F00000F000
07F00000F000
07E00000F000
07E00000E000
07E00000E000
07C00001E000
07C00001E000
0FC00001C000
0FC00001C000
0F800001C000
1F800001C000
1F800003C000
1F0000038000
1F0000038000
3F0000038000
3F0000078000
3E0000070000
3E0000070000
7E0000070000
7E00000F0000
7C00000E0000
7C00000E0000
FC00000E0000
FC00001C0000
FC00001C0000
FC00003C0000
FC0000380000
FC0000380000
FC0000700000
FC0000F00000
7C0000E00000
7E0001E00000
7E0003C00000
3F0007800000
1FC01F000000
0FFFFE000000
07FFF8000000
01FFE0000000
007C00000000
00F000000000
03C000000000
078000000000
078000000000
0F0000000000
0F0000000000
0F0180000000
0F8780000000
0FFF00000000
0FFE00000000
07FC00000000
00C000000000
ENDCHAR
STARTCHAR 0173
ENCODING 371
SWIDTH 592 0
DWIDTH 32 0
BBX 29 42 1 -13
BITMAP
00F001F0
03F803F0
07F803E0
0FF803E0
1CF807E0
39F807C0
71F807C0
61F00FC0
C1F00F80
03F00F80
03E01F80
07E01F00
07C03F00
07C03F00
0FC07E00
0F807E00
1F80FE00
1F80FC00
1F01FC00
3F01FC10
3E03FC18
3E07F830
3E0EF870
7E1EF860
7E3CF8E0
7F78FFC0
3FF0FF80
3FE0FF00
1FC07C00
0001E000
00078000
000F0000
001E0000
003C0000
003C0000
003C0000
007C0C00
007C1E00
003FFC00
003FF800
001FE000
00030000
ENDCHAR
STARTCHAR 0174
ENCODING 372
SWIDTH 1055 0
DWIDTH 57 0
BBX 59 53 6 -1
BITMAP
0000000FE0000000
0000001FF0000000
0000003FF0000000
000000FCF8000000
000001E07C000000
000003801E000000
0000000000000000
0000000000000000
0000000000000000
0000000000000000
1FFFC3FFFC07FFE0
1FFFC3FFFC07FFE0
1FFFC3FFF807FFE0
01FE003F8000FE00
00FC003F8000F800
00FC003F0001F000
00F8003F0001E000
00F8003E0003C000
00F8003E00078000
01F8003E00070000
01F0007E000E0000
01F0007E001E0000
01F000FC003C0000
03F001FC00380000
03E003FC00700000
03E003FC00F00000
03E007F801E00000
07E00FF803C00000
07E01EF803800000
07C03DF807800000
07C039F80F000000
07C079F01E000000
0FC0F1F01C000000
0F81E1F038000000
0F81C3F078000000
0F8383E0F0000000
1F8783E1E0000000
1F0F03E1C0000000
1F1E07E3C0000000
1F1C07E780000000
1F3C07CF00000000
3F7807CE00000000
3EF007DE00000000
3EE00FFC00000000
3FE00FF800000000
7FC00FF000000000
7F800FE000000000
7F001FE000000000
7E001FC000000000
7E001F8000000000
FC001F0000000000
F8001F0000000000
F0003E0000000000
ENDCHAR
STARTCHAR 0175
ENCODING 373
SWIDTH 833 0
DWIDTH 45 0
BBX 43 43 1 -1
BITMAP
0000001F8000
0000003FC000
0000007FE000
000000FBE000
000003E1F000
000007807800
00000E003800
000000000000
000000000000
000000000000
000000000000
000000000000
000000000000
0F81C03C03C0
1FE3C07C07E0
3FFF80FE07E0
73FF01FE07E0
71FF01DE07E0
F87E039E03E0
F81C039E03E0
FC38071C03E0
7C38071C03E0
3870071C03E0
00F0073C03E0
00E00F3803C0
01E00F3803C0
01E00F7003C0
03C00F700380
03C00FE00780
07C00FC00780
07C00FC00700
07800F800F00
07800F800E00
0F800F801E00
0F801F803C00
0FC03FC03C00
0FC07FE07800
0FE0F7F1F000
07FFE3FFE000
07FFC3FFC000
03FF81FF8000
01FE00FE0000
006000100000
ENDCHAR
STARTCHAR 0176
ENCODING 374
SWIDTH 685 0
DWIDTH 37 0
BBX 37 52 5 0
BITMAP
00001FC000
00003FC000
0000FFE000
0001FBF000
0003C0F800
0007003800
0000000000
0000000000
0000000000
0000000000
FFFF00FFF8
FFFE01FFF8
FFFE01FFF8
0FE0001F80
07E0001F00
07E0001E00
03F0001E00
03F0003C00
01F0003800
01F8007800
01F800F000
00FC01E000
00FC01C000
007E03C000
007E078000
007E070000
003F0F0000
003F1E0000
001F9C0000
001FB80000
000FF80000
000FF00000
000FE00000
0007E00000
0007C00000
0007C00000
000FC00000
000FC00000
000F800000
000F800000
001F800000
001F800000
001F000000
003F000000
003F000000
003F000000
007F000000
007F000000
00FF000000
03FFC00000
3FFFF80000
3FFFF80000
ENDCHAR
STARTCHAR 0177
ENCODING 375
SWIDTH 500 0
DWIDTH 27 0
BBX 33 56 -6 -14
BITMAP
000003F000
00000FF000
00001FF800
00003EFC00
0000783C00
0000E01E00
0003800600
0000000000
0000000000
0000000000
0000000000
0000000000
0000000000
001E000700
003F000F80
007F001F80
007F801F80
00FF801F80
01FF801F80
0187C00F80
0187C00F00
0383C00F00
0303E00F00
0303E00F00
0303E00E00
0001E01E00
0001F01C00
0001F01C00
0001F03800
0001F03800
0000F07000
0000F87000
0000F8E000
0000F8E000
0000F9C000
0000FBC000
00007F8000
00007F8000
00007F0000
00007E0000
00007E0000
00003C0000
0000780000
0000780000
0000F00000
0001E00000
0001C00000
0003C00000
0007800000
700F000000
F81E000000
FC3C000000
FCF8000000
FFE0000000
7FC0000000
3F00000000
ENDCHAR
STARTCHAR 0178
ENCODING 376
SWIDTH 685 0
DWIDTH 37 0
BBX 37 52 5 0
BITMAP
0000E03800
0001F07800
0003F0FC00
0003E0F800
0003E0F000
0001806000
0000000000
0000000000
0000000000
0000000000
FFFF00FFF8
FFFE01FFF8
FFFE01FFF8
0FE0001F80
07E0001F00
07E0001E00
03F0001E00
03F0003C00
01F0003800
01F8007800
01F800F000
00FC01E000
00FC01C000
007E03C000
007E078000
007E070000
003F0F0000
003F1E0000
001F9C0000
001FB80000
000FF80000
000FF00000
000FE00000
0007E00000
0007C00000
0007C00000
000FC00000
000FC00000
000F800000
000F800000
001F800000
001F800000
001F000000
003F000000
003F000000
003F000000
007F000000
007F000000
00FF000000
03FFC00000
3FFFF80000
3FFFF80000
ENDCHAR
STARTCHAR 0179
ENCODING 377
SWIDTH 666 0
DWIDTH 36 0
BBX 38 52 0 0
BITMAP
00000001C0
0000000FC0
0000003FC0
000000FF00
000003FC00
00000F8000
0000000000
0000000000
0000000000
0000000000
001FFFFFFC
001FFFFFFC
003FFFFFF8
003F8007F0
007C000FE0
0078001FC0
00F0003FC0
00E0007F80
01C0007F00
018000FE00
038001FE00
000003FC00
000003F800
000007F000
00000FF000
00001FE000
00003FC000
00003F8000
00007F8000
0000FF0000
0001FE0000
0001FC0000
0003F80000
0007F80000
000FF00000
000FE00000
001FC00000
003FC00000
007F800000
00FF000000
00FE000380
01FE000300
03FC000700
07F8000F00
07F0000E00
0FE0001E00
1FE0007C00
3FC000FC00
7F8007FC00
7FFFFFF800
FFFFFFF800
FFFFFFF000
ENDCHAR
STARTCHAR 017A
ENCODING 378
SWIDTH 518 0
DWIDTH 28 0
BBX 26 43 0 -1
BITMAP
00000780
00000F80
00001F80
00003F00
0000FC00
0001F000
0003C000
00070000
00000000
00000000
00000000
00000000
00000000
00000000
00FE0080
03FF01C0
07FFC1C0
0F7FE3C0
1C1FFF80
1C07FF00
1E01FE00
1F00FC00
1F807800
1F80F000
0F81E000
0203C000
00078000
000F0000
001E0000
003C0000
00780000
00F00000
01E00000
03C00000
07800180
0FF00180
1FFC0380
3FFF0700
7FFFFF00
F0FFFE00
F07FFC00
E01FF800
E00FF000
ENDCHAR
STARTCHAR 017B
ENCODING 379
SWIDTH 666 0
DWIDTH 36 0
BBX 38 52 0 0
BITMAP
000000E000
000001F000
000001F000
000003F000
000001F000
000000E000
0000000000
0000000000
0000000000
0000000000
001FFFFFFC
001FFFFFFC
003FFFFFF8
003F8007F0
007C000FE0
0078001FC0
00F0003FC0
00E0007F80
01C0007F00
018000FE00
038001FE00
000003FC00
000003F800
000007F000
00000FF000
00001FE000
00003FC000
00003F8000
00007F8000
0000FF0000
0001FE0000
0001FC0000
0003F80000
0007F80000
000FF00000
000FE00000
001FC00000
003FC00000
007F800000
00FF000000
00FE000380
01FE000300
03FC000700
07F8000F00
07F0000E00
0FE0001E00
1FE0007C00
3FC000FC00
7F8007FC00
7FFFFFF800
FFFFFFF800
FFFFFFF000
ENDCHAR
STARTCHAR 017C
ENCODING 380
SWIDTH 518 0
DWIDTH 28 0
BBX 26 43 0 -1
BITMAP
0001F000
0001F800
0003F800
0003F800
0001F800
0000F000
00000000
00000000
00000000
00000000
00000000
00000000
00000000
00000000
00FE0080
03FF01C0
07FFC1C0
0F7FE3C0
1C1FFF80
1C07FF00
1E01FE00
1F00FC00
1F807800
1F80F000
0F81E000
0203C000
00078000
000F0000
001E0000
003C0000
00780000
00F00000
01E00000
03C00000
07800180
0FF00180
1FFC0380
3FFF0700
7FFFFF00
F0FFFE00
F07FFC00
E01FF800
E00FF000
ENDCHAR
STARTCHAR 017D
ENCODING 381
SWIDTH 666 0
DWIDTH 36 0
BBX 38 52 0 0
BITMAP
00007000C0
00003C0780
00001F1F00
00000FFE00
00000FF800
000007F000
0000000000
0000000000
0000000000
0000000000
001FFFFFFC
001FFFFFFC
003FFFFFF8
003F8007F0
007C000FE0
0078001FC0
00F0003FC0
00E0007F80
01C0007F00
018000FE00
038001FE00
000003FC00
000003F800
000007F000
00000FF000
00001FE000
00003FC000
00003F8000
00007F8000
0000FF0000
0001FE0000
0001FC0000
0003F80000
0007F80000
000FF00000
000FE00000
001FC00000
003FC00000
007F800000
00FF000000
00FE000380
01FE000300
03FC000700
07F8000F00
07F0000E00
0FE0001E00
1FE0007C00
3FC000FC00
7F8007FC00
7FFFFFF800
FFFFFFF800
FFFFFFF000
ENDCHAR
STARTCHAR 017E
ENCODING 382
SWIDTH 518 0
DWIDTH 28 0
BBX 27 42 0 -1
BITMAP
003800E0
001E03C0
001F0F00
000FFE00
0007FC00
0007F800
0003F000
00000000
00000000
00000000
00000000
00000000
00000000
00FE0080
03FF01C0
07FFC1C0
0F7FE3C0
1C1FFF80
1C07FF00
1E01FE00
1F00FC00
1F807800
1F80F000
0F81E000
0203C000
00078000
000F0000
001E0000
003C0000
00780000
00F00000
01E00000
03C00000
07800180
0FF00180
1FFC0380
3FFF0700
7FFFFF00
F0FFFE00
F07FFC00
E01FF800
E00FF000
ENDCHAR
STARTCHAR 018F
ENCODING 399
SWIDTH 629 0
DWIDTH 34 0
BBX 33 43 1 -1
BITMAP
00007FC000
0001FFF000
0007FFFC00
000FC3FC00
003F00FE00
007C007F00
00F8007F00
00F0003F00
01E0003F80
03C0003F80
0180003F80
0000003F80
0000003F80
0000003F80
0000003F80
0000003F80
0000003F80
000001FF00
00000FFF00
00007FFF00
0001FFFF00
0007FC7E00
001FE07E00
007F80FE00
00FE00FC00
01FC01FC00
07F001F800
0FE003F800
1FC003F000
3F8007E000
3F8007E000
7F000FC000
7E001F8000
FE001F8000
FE003F0000
FE007E0000
FE00FC0000
FE01F00000
FE07E00000
7FFFC00000
3FFF000000
0FFC000000
00C0000000
ENDCHAR
STARTCHAR 0192
ENCODING 402
SWIDTH 444 0
DWIDTH 24 0
BBX 32 53 -2 -8
BITMAP
000001F0
000007FC
00000FBE
00001E0F
00003C0F
00003C0F
0000781F
0000783E
0000F03C
0000F000
0000F000
0001F000
0001F000
0001E000
0001E000
0001E000
003FFF00
003FFF00
003FFE00
0003C000
0003C000
0003C000
0007C000
0007C000
0007C000
0007C000
00078000
00078000
000F8000
000F8000
000F8000
000F8000
000F0000
000F0000
001F0000
001F0000
001F0000
001F0000
001E0000
001E0000
003E0000
003E0000
003C0000
003C0000
783C0000
F87C0000
F0780000
F0780000
F0700000
F0F00000
FFE00000
7FC00000
1F000000
ENDCHAR
STARTCHAR 01C4
ENCODING 452
SWIDTH 1500 0
DWIDTH 81 0
BBX 84 52 -1 0
BITMAP
0000000000000000C00380
0000000000000000F01E00
00000000000000007C7C00
00000000000000003FF800
00000000000000003FF000
00000000000000001FC000
0000000000000000000000
0000000000000000000000
0000000000000000000000
0000000000000000000000
003FFFC00000007FFFFFF0
003FFFFF0000007FFFFFF0
007FFFFFE00000FFFFFFE0
0003FC0FF80000FE001FC0
0001F801FC0001F0003F80
0001F0007E0001E0007F80
0003F0003F0003C000FF00
0003F0001F80038000FE00
0003E0001FC0070001FC00
0003E0000FC0060003FC00
0007E00007E00E0007F800
0007E00007E0000007F000
0007C00007E000000FE000
000FC00007F000001FE000
000FC00003F000003FC000
000FC00003F000007F8000
000F800003F000007F0000
001F800003F00000FE0000
001F800003F00001FE0000
001F800003F00003FC0000
001F000003F00003F80000
003F000007F00007F00000
003F000007F0000FF00000
003E000007E0001FE00000
003E000007E0003FC00000
007E00000FE0003F800000
007E00000FC0007F800000
007C00000FC000FF000000
007C00001F8001FE000000
00FC00001F8001FC000000
00FC00003F0003F8000E00
00F800007F0007F8000C00
00F800007E000FF0001C00
01F80000FC001FE0001C00
01F80001F8001FC0003800
01F00003F8003FC0007800
03F80007E0007F8000F800
03F8001FC000FF0003F000
07FC007F8000FE001FF000
1FFF0FFE0001FFFFFFE000
FFFFFFF80003FFFFFFE000
FFFFFF800003FFFFFFE000
ENDCHAR
STARTCHAR 01C5
ENCODING 453
SWIDTH 1351 0
DWIDTH 73 0
BBX 73 43 -1 -1
BITMAP
003FFFC0000000E00380
003FFFFF000000780F00
007FFFFFE000003C3C00
0003FC0FF800003FF800
0001F801FC00001FF000
0001F0007E00000FE000
0003F0003F00000FC000
0003F0001F8000000000
0003E0001FC000000000
0003E0000FC000000000
0007E00007E000000000
0007E00007E000000000
0007C00007E000000000
000FC00007F003F80200
000FC00003F00FFC0780
000FC00003F01FFF0780
000F800003F03DFF8F00
001F800003F0703FFE00
001F800003F0701FFE00
001F800003F07807FC00
001F000003F07E03F800
003F000007F07E00E000
003F000007F07E01C000
003E000007E03E038000
003E000007E00C0F0000
007E00000FE0001E0000
007E00000FC0003C0000
007C00000FC000780000
007C00001F8000F00000
00FC00001F8001E00000
00FC00003F0003C00000
00F800007F0007800000
00F800007E000F000000
01F80000FC001E000300
01F80001F8003FC00600
01F00003F8007FF00600
03F80007E000FFFC0E00
03F8001FC001FFFFFC00
07FC007F8003C3FFF800
1FFF0FFE0003C0FFF800
FFFFFFF80003807FE000
FFFFFF800003803FC000
00000000000000020000
ENDCHAR
STARTCHAR 01C6
ENCODING 454
SWIDTH 1111 0
DWIDTH 60 0
BBX 58 46 1 -1
BITMAP
000007FE00000000
00000FFE00000000
000003FE00000000
0000007C007001C0
0000007C003C0780
0000007C001E1F00
00000078001FFC00
000000F8000FF800
000000F80007F000
000000F80007E000
000001F000000000
000001F000000000
000001F000000000
000001F000000000
000003E000000000
000003E000000000
0007E3E001FC0180
001FF7C007FF03C0
003FFFC00FFF83C0
007C1FC01E7FC780
01F81FC01C1FFF80
01F00F803C0FFF00
03E00F803C03FE00
07C01F803F00FC00
0F801F803F007800
1F801F003F00F000
1F001F001F01E000
3F001F0004038000
3E003E0000070000
7E003E00000E0000
7C003E00001C0000
7C007E0000380000
FC007E0000F00000
F800FC0001E00000
F800FC0003C00000
F801FC1C07800000
F801FC180F000180
F803F8181FE00380
F80778303FF80300
F80778707FFE0700
FC0E7860FFFFFE00
FE3C7CE1E1FFFC00
7FF87FC1E07FFC00
3FF07F81E03FF800
1FC03F01C01FE000
00000C0000010000
ENDCHAR
STARTCHAR 01C7
ENCODING 455
SWIDTH 1240 0
DWIDTH 67 0
BBX 73 43 -1 -1
BITMAP
003FFFE0000001FFFF80
007FFFE0000001FFFF00
007FFFE0000003FFFF00
0003FC000000000FF000
0003F8000000000FE000
0003F8000000000FE000
0003F0000000000FC000
0003F0000000000FC000
0003E0000000000F8000
0003E0000000001F8000
0007E0000000001F8000
0007E0000000001F8000
0007C0000000001F0000
0007C0000000003F0000
000FC0000000003F0000
000FC0000000003F0000
000F80000000003E0000
000F80000000007E0000
001F80000000007E0000
001F80000000007C0000
001F00000000007C0000
001F0000000000FC0000
003F0000000000FC0000
003F0000000000F80000
003E0000000000F80000
003E0000000001F80000
007E0000000001F80000
007C0000000001F00000
007C0000000001F00000
00FC0000000003F00000
00FC000070F803F00000
00F8000071FC03E00000
00F80000E3FC07E00000
01F80000E3FC07E00000
01F80001E3F80FC00000
01F80003C3F00FC00000
03F80007C3E01F800000
03F8000F83E01F800000
07FC003F83E07F000000
1FFF03FF81F9FE000000
FFFFFFFF00FFFC000000
FFFFFFFF007FF0000000
00000000000300000000
ENDCHAR
STARTCHAR 01C8
ENCODING 456
SWIDTH 962 0
DWIDTH 52 0
BBX 54 59 -1 -14
BITMAP
00000000000070
000000000000F8
000000000001FC
003FFFE00001FC
007FFFE00001FC
007FFFE00000F8
0003FC00000070
0003F800000000
0003F800000000
0003F000000000
0003F000000000
0003E000000000
0003E000000000
0007E000000000
0007E000000000
0007C000000000
0007C0000003E0
000FC000000FE0
000FC000001FE0
000F8000003FE0
000F80000077E0
001F800000E7E0
001F800001C7E0
001F00000187E0
001F00000107C0
003F00000007C0
003F0000000FC0
003E0000000FC0
003E0000000F80
007E0000000F80
007C0000001F80
007C0000001F80
00FC0000001F00
00FC0000701F00
00F80000703F00
00F80000E03F00
01F80000E03E00
01F80001E03E00
01F80003C07E00
03F80007C07C00
03F8000F807C00
07FC003F807C00
1FFF03FF80FC00
FFFFFFFF00F800
FFFFFFFF00F800
0000000000F800
0000000001F000
0000000001F000
0000000001F000
0000000001E000
0000000003E000
0000000003C000
0000000F03C000
0000000F078000
0000001F870000
0000001FCE0000
0000000FFC0000
0000000FF80000
00000003E00000
ENDCHAR
STARTCHAR 01C9
ENCODING 457
SWIDTH 611 0
DWIDTH 33 0
BBX 32 59 1 -14
BITMAP
003F001C
03FF003E
01FE003F
007E007F
003E007F
007C003F
007C001C
007C0000
007C0000
00F80000
00F80000
00F80000
00F80000
01F00000
01F00000
01F00000
03E000F8
03E001FC
03E007FC
03E00FFC
07C01FFC
07C038F8
07C030F8
07C061F8
0F8061F8
0F8001F0
0F8001F0
1F0003F0
1F0003F0
1F0003E0
1F0003E0
3E0007E0
3E0007E0
3E0007C0
3E0007C0
7C000FC0
7C0C0FC0
7C1C0F80
7C180F80
F8301F80
F8701F00
FFE01F00
FFC01F00
FF803F00
7E003E00
08003E00
00003E00
00007C00
00007C00
00007C00
00007800
0000F800
03C0F000
03E0E000
03E1E000
03F3C000
03FF8000
01FE0000
00F80000
ENDCHAR
STARTCHAR 01CA
ENCODING 458
SWIDTH 1370 0
DWIDTH 74 0
BBX 79 43 0 -1
BITMAP
01FFE0001FFF8003FFFE
03FFF0001FFF8007FFFE
03FFF0001FFF0007FFFE
001FF80007FC00003FE0
0007F80003F800001FC0
0007FC0001F000001F80
0003FC0001E000001F80
0003FC0001E000001F00
0003FE0001C000003F00
0003FE0001C000003F00
0007BF0001C000003E00
00073F0003C000003E00
00073F80038000007E00
00071F80038000007E00
000F1FC0078000007C00
000E0FC007800000FC00
000E0FC007000000FC00
000E07E007000000FC00
001E07E00F000000F800
001C03F00E000001F800
001C03F00E000001F800
001C03F80E000001F000
003C01F81E000001F000
003801F81C000003F000
003800FC1C000003F000
007800FC1C000003E000
0078007E3C000003E000
0070007E38000007E000
0070007F38000007E000
00F0003F38000007C000
00E0003FF803E007C000
00E0001FF007F00FC000
00E0001FF007F00FC000
01E0000FF00FF01F8000
01E0000FE00FF01F8000
01C0000FE00FE03F0000
03E00007E00FC03F0000
07E00007E00FC07E0000
0FF00003C007C0FC0000
3FF80003C007E3F80000
FFFE0001C003FFF00000
FFFE0001C000FFC00000
00000000000008000000
ENDCHAR
STARTCHAR 01CB
ENCODING 459
SWIDTH 1129 0
DWIDTH 61 0
BBX 61 59 0 -14
BITMAP
0000000000000060
00000000000001F8
00000000000001F8
01FFE0001FFF81F8
03FFF0001FFF81F8
03FFF0001FFF01F8
001FF80007FC00F0
0007F80003F80000
0007FC0001F00000
0003FC0001E00000
0003FC0001E00000
0003FE0001C00000
0003FE0001C00000
0007BF0001C00000
00073F0003C00000
00073F8003800000
00071F80038003C0
000F1FC007800FE0
000E0FC007801FE0
000E0FC007007FE0
000E07E007007FE0
001E07E00F00C7E0
001C03F00E0187E0
001C03F00E0307C0
001C03F80E010FC0
003C01F81E000FC0
003801F81C000FC0
003800FC1C000F80
007800FC1C001F80
0078007E3C001F80
0070007E38001F00
0070007F38001F00
00F0003F38003F00
00E0003FF8003F00
00E0001FF0003E00
00E0001FF0003E00
01E0000FF0007E00
01E0000FE0007E00
01C0000FE0007C00
03E00007E0007C00
07E00007E000FC00
0FF00003C000F800
3FF80003C000F800
FFFE0001C000F800
FFFE0001C001F800
000000000001F000
000000000001F000
000000000001F000
000000000003E000
000000000003E000
000000000003E000
000000000003C000
000000000E078000
000000001F078000
000000001F0F0000
000000001F9E0000
000000001FFC0000
000000000FF80000
0000000007E00000
ENDCHAR
STARTCHAR 01CC
ENCODING 460
SWIDTH 925 0
DWIDTH 50 0
BBX 49 59 1 -14
BITMAP
00000000000E00
00000000001F00
00000000003F80
00000000003F80
00000000003F80
00000000001F80
00000000000E00
00000000000000
00000000000000
00000000000000
00000000000000
00000000000000
00000000000000
00000000000000
00000000000000
00000000000000
01F00FE0007C00
07F03FF000FE00
0FF87FF003FE00
1CF8F1F807FE00
18F9C1F80FFE00
30FB81F01C7C00
30FB01F018FC00
60F701F030FC00
60FE01F020FC00
C1FC03F000F800
C1FC03E000F800
01F803E001F800
03F007E001F800
03F007C001F000
03E00FC001F000
07E00FC003F000
07C00F8003F000
07C01F8003E000
0FC01F8003E000
0F801F0007E000
0F803F0407C000
1F803F0E07C000
1F003E1C07C000
1F003E380FC000
3E007E700F8000
3E007FE00F8000
3E003FC00F8000
7C003F801F8000
7C003E001F0000
000008001F0000
000000001F0000
000000003E0000
000000003E0000
000000003E0000
000000003C0000
000000007C0000
000001E0780000
000001F0700000
000001F0F00000
000001F9E00000
000001FFC00000
000000FF000000
0000007E000000
ENDCHAR
STARTCHAR 01EA
ENCODING 490
SWIDTH 814 0
DWIDTH 44 0
BBX 38 55 4 -13
BITMAP
00003FF000
0001FFFC00
0007FFFF00
000FE01F80
003F8007C0
007E0003E0
00FC0003F0
01F80001F0
03F00001F8
07E00001F8
07E00001FC
0FC00000FC
1FC00000FC
1F800000FC
3F800000FC
3F000000FC
3F000000FC
7F000000FC
7E000000FC
7E000000FC
FE000001FC
FE000001FC
FE000001FC
FE000001F8
FE000001F8
FE000003F8
FE000003F8
FE000003F0
FE000007F0
FE000007E0
FE000007E0
7E00000FC0
7E00001F80
7F00001F80
3F00003F00
3F80007E00
1F8000FC00
0FC001F800
07E007E000
03FE7FC000
01FFFF0000
007FFC0000
003F800000
0070000000
01E0000000
03C0000000
03C0000000
0780000000
0780000000
0780C00000
0783C00000
07FF800000
07FF000000
03FC000000
0060000000
ENDCHAR
STARTCHAR 01EB
ENCODING 491
SWIDTH 518 0
DWIDTH 28 0
BBX 25 42 1 -13
BITMAP
000FE000
003FF800
00FEFC00
01F81E00
03F01E00
07E01F00
0FC01F00
0FC01F00
1F801F80
1F801F80
3F001F80
3F001F80
7F001F80
7E001F00
7E003F00
7E003F00
FC003F00
FC007E00
FC007E00
FC007C00
FC00FC00
FC00F800
7C01F000
7C03F000
7C07E000
3E0FC000
1F1F8000
0FFE0000
07FC0000
03C00000
07000000
1E000000
3C000000
3C000000
78000000
78000000
780C0000
7C3C0000
7FF80000
7FF00000
3FE00000
06000000
ENDCHAR
STARTCHAR 01F1
ENCODING 497
SWIDTH 1481 0
DWIDTH 80 0
BBX 83 42 -1 0
BITMAP
003FFFC00000007FFFFFE0
003FFFFF000000FFFFFFE0
007FFFFFE00000FFFFFFC0
0003FC0FF80001FE003FC0
0001F801FC0001F0007F80
0001F0007E0003C0007F00
0003F0003F00038000FE00
0003F0001F80070001FE00
0003E0001FC0070003FC00
0003E0000FC00E0003F800
0007E00007E00C0007F000
0007E00007E000000FF000
0007C00007E000001FE000
000FC00007F000003FC000
000FC00003F000003F8000
000FC00003F000007F0000
000F800003F00000FF0000
001F800003F00001FE0000
001F800003F00001FC0000
001F800003F00003F80000
001F000003F00007F80000
003F000007F0000FF00000
003F000007F0001FE00000
003E000007E0001FC00000
003E000007E0003FC00000
007E00000FE0007F800000
007E00000FC000FF000000
007C00000FC000FE000000
007C00001F8001FC000000
00FC00001F8003FC000000
00FC00003F0007F8000C00
00F800007F0007F0001C00
00F800007E000FE0001C00
01F80000FC001FE0003800
01F80001F8003FC0007800
01F00003F8007F8000F000
03F80007E0007F0001F000
03F8001FC000FF0007F000
07FC007F8001FE001FE000
1FFF0FFE0003FFFFFFE000
FFFFFFF80003FFFFFFE000
FFFFFF800007FFFFFFC000
ENDCHAR
STARTCHAR 01F2
ENCODING 498
SWIDTH 1333 0
DWIDTH 72 0
BBX 72 43 -1 -1
BITMAP
003FFFC00000000000
003FFFFF0000000000
007FFFFFE000000000
0003FC0FF800000000
0001F801FC00000000
0001F0007E00000000
0003F0003F00000000
0003F0001F80000000
0003E0001FC0000000
0003E0000FC0000000
0007E00007E0000000
0007E00007E0000000
0007C00007E0000000
000FC00007F003F002
000FC00003F00FFC07
000FC00003F01FFE07
000F800003F039FF8F
001F800003F0707FFE
001F800003F0701FFC
001F800003F0780FF8
001F000003F07C03F0
003F000007F07E01E0
003F000007F07E03C0
003E000007E03E0780
003E000007E0080F00
007E00000FE0001E00
007E00000FC0003C00
007C00000FC0007800
007C00001F8000F000
00FC00001F8001E000
00FC00003F0003C000
00F800007F00078000
00F800007E000F0000
01F80000FC001E0006
01F80001F8003F8006
01F00003F8007FE00E
03F80007E000FFF81C
03F8001FC001FFFFFC
07FC007F8003C3FFF8
1FFF0FFE0003C1FFF0
FFFFFFF80007807FE0
FFFFFF800003803FC0
000000000000000400
ENDCHAR
STARTCHAR 01F3
ENCODING 499
SWIDTH 1111 0
DWIDTH 60 0
BBX 58 46 1 -1
BITMAP
000007FE00000000
00000FFE00000000
000003FE00000000
0000007C00000000
0000007C00000000
0000007C00000000
0000007800000000
000000F800000000
000000F800000000
000000F800000000
000001F000000000
000001F000000000
000001F000000000
000001F000000000
000003E000000000
000003E000000000
0007E3E001FC0180
001FF7C007FF03C0
003FFFC00FFF83C0
007C1FC01E7FC780
01F81FC01C1FFF80
01F00F803C0FFF00
03E00F803C03FE00
07C01F803F00FC00
0F801F803F007800
1F801F003F00F000
1F001F001F01E000
3F001F0004038000
3E003E0000070000
7E003E00000E0000
7C003E00001C0000
7C007E0000380000
FC007E0000F00000
F800FC0001E00000
F800FC0003C00000
F801FC1C07800000
F801FC180F000180
F803F8181FE00380
F80778303FF80300
F80778707FFE0700
FC0E7860FFFFFE00
FE3C7CE1E1FFFC00
7FF87FC1E07FFC00
3FF07F81E03FF800
1FC03F01C01FE000
00000C0000010000
ENDCHAR
STARTCHAR 01FA
ENCODING 506
SWIDTH 759 0
DWIDTH 41 0
BBX 50 52 -6 0
BITMAP
000000000038C0
00000000007FC0
0000000000C7C0
00000000008700
00000000038400
000000001FFC00
0000000000F800
00000000000000
00000000000000
00000000000000
0000000003E000
0000000007E000
0000000007E000
000000000FC000
000000001FC000
000000003FC000
000000007FC000
00000000F7C000
00000001EF8000
00000001EF8000
00000003CF8000
000000078F8000
0000000F1F0000
0000001E1F0000
0000003C1F0000
0000003C1F0000
000000783F0000
000000F03E0000
000001E03E0000
000003C03E0000
000007807E0000
000007807C0000
00000F007C0000
00001E007C0000
00003FFFFC0000
00007FFFF80000
0000F000F80000
0000E000F80000
0001C000F80000
00038001F80000
00070001F00000
000E0001F00000
001E0001F00000
003C0003F00000
00780003E00000
00F00003E00000
01E00003E00000
03E00007E00000
07E00007E00000
1FF0001FF80000
7FFE00FFFF0000
FFFC00FFFF0000
ENDCHAR
STARTCHAR 01FB
ENCODING 507
SWIDTH 555 0
DWIDTH 30 0
BBX 29 52 1 -1
BITMAP
00000038
000000F8
000001F8
000003F8
000007E0
00000F80
00001E00
00003800
00004000
00000000
00001E00
00003F00
00007780
0000C180
0001C180
0001C380
0001C300
0001FE00
0000FC00
00000000
00000000
00000000
0007E3E0
001FF3E0
003FFBC0
007C1FC0
01F81F80
03F01F80
03E01F80
07C01F00
0F801F00
1F801F00
1F003E00
3E003E00
3E003E00
7E007C00
7C007C00
7C007C00
F800F800
F800F800
F801F800
F801F800
F803F020
F807F070
F807F0E0
F80FF0C0
F81DF1C0
FE79FF80
FFF1FF00
7FE1FE00
3F80F800
0C002000
ENDCHAR
STARTCHAR 01FC
ENCODING 508
SWIDTH 1055 0
DWIDTH 57 0
BBX 60 52 -4 0
BITMAP
0000000000003800
000000000000FC00
000000000003F800
00000000000FF000
00000000003F8000
0000000000F80000
0000000000000000
0000000000000000
0000000000000000
0000000000000000
00000007FFFFFFF0
00000007FFFFFFF0
0000000FFFFFFFF0
000000003FC007F0
000000003F8003F0
000000007F8001F0
00000000FF8000F0
00000000EF800070
00000001EF800070
00000003DF000070
000000079F000030
0000000F1F000000
0000001E1F000000
0000003C3E00C000
0000003C3E00C000
000000783E01C000
000000F03E03C000
000001E07E03C000
000003C07C0F8000
000007807FFF8000
000007807FFF8000
00000F00FC1F8000
00001E00F8078000
00003C00F8070000
00007FFFF8070000
0000FFFFF8070000
0000F001F0070000
0001E001F0070000
0003C001F0060000
00078001F0000000
000F0003F0000000
001E0003E00001C0
003C0003E00001C0
00380003E0000380
00700007E0000380
00E00007E0000780
01C00007C0000F00
07C0000FC0001F00
0FC0000FE0007E00
3FE0003FFC1FFE00
FFFC01FFFFFFFE00
FFFC01FFFFFFFC00
ENDCHAR
STARTCHAR 01FD
ENCODING 509
SWIDTH 740 0
DWIDTH 40 0
BBX 39 44 1 -1
BITMAP
00000003C0
0000000FC0
0000001FC0
0000003F80
0000007E00
000000F800
000001E000
0000038000
0000000000
0000000000
0000000000
0000000000
0000000000
000001E000
0007E3E3F0
001FF3CFFC
003FFBDE7E
007C1FF83E
01F81FF03E
03F01FE03E
03E01FC03E
07C01FC07C
0F801F807C
1F801F00F8
1F001F01F0
3E003E03E0
3E003E0F80
7E003E1F00
7C007CFC00
7C007FF000
F8007FC000
F800FC0000
F800F80000
F801F80000
F803F80000
F803F80060
F807F800E0
F80EFC01C0
F81CFC0380
FE7C7E0780
FFF07FBE00
7FE03FFC00
3F801FF800
0C00010000
ENDCHAR
STARTCHAR 01FE
ENCODING 510
SWIDTH 814 0
DWIDTH 44 0
BBX 41 55 3 -3
BITMAP
00000000E000
00000007E000
0000001FE000
0000007FC000
000001FE0000
000007C00000
000000000000
000000000780
000000000F00
000000000E00
00001FF81E00
0000FFFE3C00
0003FFFFF800
0007F00FF000
001FC003E000
003F0001F000
007E0003F800
00FC0007F800
01F80007FC00
03F0000EFC00
03F0001EFC00
07E0003C7E00
0FE000787E00
0FC000707E00
1FC000F07E00
1F8001E07E00
1F8003C07E00
3F8007807E00
3F0007007E00
3F000F007E00
7F001E00FE00
7F003C00FE00
7F003800FE00
7F007000FC00
7F00F000FC00
7F01E001FC00
7F03C001FC00
7F038001F800
7F070003F800
7F0F0003F000
7F1E0003F000
3F3C0007E000
3F38000FC000
3FF8000FC000
1FF0001F8000
1FE0003F0000
0FC0007E0000
07E000FC0000
07F803F00000
0FFF3FE00000
1EFFFF800000
1C3FFE000000
3801C0000000
780000000000
F00000000000
ENDCHAR
STARTCHAR 01FF
ENCODING 511
SWIDTH 518 0
DWIDTH 28 0
BBX 31 46 -2 -3
BITMAP
00000078
000000F8
000001F8
000007F0
00000FC0
00001F00
00003C00
00007000
00000000
00000000
00000000
0000001E
0000003C
00000038
0001FC78
0007FFF0
001FDFE0
003F07C0
007E03C0
00FC07E0
01F80FE0
01F81FE0
03F03FF0
03F03BF0
07E07BF0
07E0F3F0
0FE1E3F0
0FC1C3E0
0FC387E0
0FC787E0
1F8F07E0
1F9E0FC0
1F9C0FC0
1FBC0F80
1FF81F80
0FF01F00
0FE03E00
0FC07E00
0FC0FC00
07C1F800
0FE3F000
1FFFC000
1CFF8000
3C000000
78000000
F0000000
ENDCHAR
STARTCHAR 0218
ENCODING 536
SWIDTH 592 0
DWIDTH 32 0
BBX 31 55 1 -14
BITMAP
0001FF00
0007FFC6
001FFFE4
003F01FC
007C007C
0078007C
00F8003C
00F00038
01F00038
01F00038
01F00018
01F80018
01F80000
01FC0000
00FE0000
00FF0000
007FC000
007FE000
003FF000
001FFC00
000FFE00
0003FF00
0001FF80
0000FF80
00003FC0
00001FC0
00000FE0
00000FE0
300007E0
300003E0
300003E0
300003E0
780003E0
780003C0
780003C0
7C000780
7C000780
7E000F00
FF803E00
C7E1FC00
C3FFF800
C0FFE000
00040000
00000000
00000000
003C0000
007E0000
007E0000
007E0000
007E0000
000E0000
000E0000
001C0000
00380000
00700000
ENDCHAR
STARTCHAR 0219
ENCODING 537
SWIDTH 370 0
DWIDTH 20 0
BBX 20 42 -1 -14
BITMAP
003F80
007FE0
01F3F0
01E1F0
03C1F0
03C0F0
07C0E0
07C000
07E000
07E000
07F000
03F800
03FC00
01FC00
00FE00
00FF00
007F00
003F00
001F80
001F80
000F80
300F80
780F80
FC0F00
FC0F00
FC1E00
7C3C00
7FF800
1FF000
010000
000000
000000
1E0000
1F0000
3F8000
3F8000
1F8000
038000
030000
070000
0E0000
180000
ENDCHAR
STARTCHAR 021A
ENCODING 538
SWIDTH 777 0
DWIDTH 42 0
BBX 41 55 4 -14
BITMAP
07FFFFFFFF80
07FFFFFFFF80
0FFFFFFFFF80
0FE01FE01F80
0F801FC00F80
1F001FC00780
1C001F800780
38001F800380
38001F800380
70001F000380
60003F000300
E0003F000300
00003E000000
00003E000000
00007E000000
00007E000000
00007C000000
00007C000000
0000FC000000
0000FC000000
0000F8000000
0000F8000000
0001F8000000
0001F8000000
0001F0000000
0003F0000000
0003F0000000
0003E0000000
0003E0000000
0007E0000000
0007E0000000
0007C0000000
0007C0000000
000FC0000000
000FC0000000
000F80000000
001F80000000
001F80000000
003FC0000000
00FFF0000000
0FFFFE000000
0FFFFE000000
000000000000
000000000000
000000000000
001E00000000
003E00000000
007F00000000
003F00000000
003F00000000
000700000000
000600000000
000E00000000
001C00000000
003800000000
ENDCHAR
STARTCHAR 021B
ENCODING 539
SWIDTH 351 0
DWIDTH 19 0
BBX 18 49 1 -14
BITMAP
003E00
003E00
003E00
007C00
007C00
007C00
00F800
00F800
00F800
1FFFC0
3FFFC0
3FFFC0
01F000
03E000
03E000
03E000
07C000
07C000
07C000
0F8000
0F8000
0F8000
1F0000
1F0000
1F0000
1F0000
3E0200
3E0700
3E0600
3C0E00
7C1C00
7C3800
7FF000
7FE000
7FC000
3F0000
080000
000000
000000
780000
FC0000
FC0000
FC0000
FC0000
1C0000
1C0000
380000
700000
E00000
ENDCHAR
STARTCHAR 0237
ENCODING 567
SWIDTH 296 0
DWIDTH 16 0
BBX 24 43 -10 -14
BITMAP
00001E
00007F
0001FF
0003FF
0007FF
000E3F
000C3E
00187E
00187E
00007E
00007C
0000FC
0000FC
0000FC
0000F8
0001F8
0001F8
0001F0
0001F0
0003F0
0003F0
0003E0
0003E0
0007E0
0007E0
0007C0
0007C0
000FC0
000F80
000F80
000F80
001F80
001F00
001F00
001E00
003E00
703C00
F83C00
F87800
FCF000
FFE000
7F8000
3F0000
ENDCHAR
STARTCHAR 0259
ENCODING 601
SWIDTH 444 0
DWIDTH 24 0
BBX 24 30 -1 -1
BITMAP
000FE0
003FF8
00FFFC
01E0FC
03C07E
03803E
07003E
0E003E
00003F
00003F
00003E
00003E
0001FE
000FFE
003F7E
00FC7C
01F07C
07C0F8
0F80F8
1F01F0
3E01F0
7C03E0
7C07C0
7C0780
F80F00
F81E00
7C7C00
7FF800
3FE000
020000
ENDCHAR
STARTCHAR 02BC
ENCODING 700
SWIDTH 185 0
DWIDTH 10 0
BBX 6 12 3 33
BITMAP
38
7C
7C
F8
F8
F0
F0
F0
E0
E0
C0
C0
ENDCHAR
STARTCHAR 02C6
ENCODING 710
SWIDTH 351 0
DWIDTH 19 0
BBX 17 7 1 35
BITMAP
01F800
07F800
0FFC00
1F7E00
3C1E00
700F00
C00380
ENDCHAR
STARTCHAR 02C7
ENCODING 711
SWIDTH 351 0
DWIDTH 19 0
BBX 17 7 2 35
BITMAP
E00380
780F00
3C3E00
3FF800
1FF000
0FE000
0FC000
ENDCHAR
STARTCHAR 02D8
ENCODING 728
SWIDTH 314 0
DWIDTH 17 0
BBX 15 7 2 35
BITMAP
C006
C00C
E03C
FFF8
FFF0
7FE0
1F80
ENDCHAR
STARTCHAR 02D9
ENCODING 729
SWIDTH 148 0
DWIDTH 8 0
BBX 7 6 1 37
BITMAP
7C
FC
FE
FE
FC
7C
ENDCHAR
STARTCHAR 02DA
ENCODING 730
SWIDTH 203 0
DWIDTH 11 0
BBX 10 10 1 35
BITMAP
0F00
3F80
7BC0
61C0
C1C0
C180
C380
FF00
7E00
1000
ENDCHAR
STARTCHAR 02DB
ENCODING 731
SWIDTH 259 0
DWIDTH 14 0
BBX 13 14 0 -13
BITMAP
00E0
0380
0F00
1E00
3C00
7800
7800
F000
F018
F838
FFF8
7FE0
7FC0
0C00
ENDCHAR
STARTCHAR 02DC
ENCODING 732
SWIDTH 370 0
DWIDTH 20 0
BBX 19 7 1 35
BITMAP
0F0060
1FC0C0
3FF9C0
7FFFC0
63FF80
C07F00
001E00
ENDCHAR
STARTCHAR 02DD
ENCODING 733
SWIDTH 462 0
DWIDTH 25 0
BBX 23 8 1 35
BITMAP
00F81E
01F83E
03F07E
07F0FC
0FC3F0
1F07C0
380F00
E01C00
ENDCHAR
STARTCHAR 03BC
ENCODING 956
SWIDTH 629 0
DWIDTH 34 0
BBX 32 43 -1 -14
BITMAP
001E003E
007F003E
00FF003E
01FF007C
03FF007C
073F007C
0E3E00F8
1C3E00F8
187E01F8
007C01F8
007C01F0
007C03F0
00F803F0
00F807E0
00F807E0
01F007E0
01F00FC0
01F00FC0
03E01FC0
03E03F80
03E03F83
07E07F83
07E0EF86
07E1EF0E
0FE3CF1C
0FE7CFF8
0FFF8FF0
0FFF0FE0
1F7E0FC0
1F100200
1F000000
3F000000
3E000000
3E000000
3E000000
7E000000
7E000000
7E000000
FC000000
FC000000
FC000000
F8000000
78000000
ENDCHAR
STARTCHAR 1E0C
ENCODING 7692
SWIDTH 833 0
DWIDTH 45 0
BBX 44 54 -1 -13
BITMAP
003FFFC00000
003FFFFF0000
007FFFFFE000
0003FC0FF800
0001F801FC00
0001F0007E00
0003F0003F00
0003F0001F80
0003E0001FC0
0003E0000FC0
0007E00007E0
0007E00007E0
0007C00007E0
000FC00007F0
000FC00003F0
000FC00003F0
000F800003F0
001F800003F0
001F800003F0
001F800003F0
001F000003F0
003F000007F0
003F000007F0
003E000007E0
003E000007E0
007E00000FE0
007E00000FC0
007C00000FC0
007C00001F80
00FC00001F80
00FC00003F00
00F800007F00
00F800007E00
01F80000FC00
01F80001F800
01F00003F800
03F80007E000
03F8001FC000
07FC007F8000
1FFF0FFE0000
FFFFFFF80000
FFFFFF800000
000000000000
000000000000
000000000000
000000000000
000000000000
000000000000
0001E0000000
0003F0000000
0007F0000000
0007F0000000
0003F0000000
0003E0000000
ENDCHAR
STARTCHAR 1E0D
ENCODING 7693
SWIDTH 592 0
DWIDTH 32 0
BBX 31 57 1 -12
BITMAP
000007FE
00000FFE
000003FE
0000007C
0000007C
0000007C
00000078
000000F8
000000F8
000000F8
000001F0
000001F0
000001F0
000001F0
000003E0
000003E0
0007E3E0
001FF7C0
003FFFC0
007C1FC0
01F81FC0
01F00F80
03E00F80
07C01F80
0F801F80
1F801F00
1F001F00
3F001F00
3E003E00
7E003E00
7C003E00
7C007E00
FC007E00
F800FC00
F800FC00
F801FC1C
F801FC18
F803F818
F8077830
F8077870
FC0E7860
FE3C7CE0
7FF87FC0
3FF07F80
1FC03F00
00000C00
00000000
00000000
00000000
00000000
00000000
00F00000
01F80000
01F80000
01FC0000
01F80000
00F80000
ENDCHAR
STARTCHAR 1E24
ENCODING 7716
SWIDTH 907 0
DWIDTH 49 0
BBX 54 54 -1 -12
BITMAP
003FFFE00FFFFC
007FFFE00FFFFC
007FFFE00FFFF8
0003FE0000FF80
0003F800007F00
0003F800007E00
0003F000007E00
0003F000007C00
0003F00000FC00
0003E00000FC00
0007E00000FC00
0007E00000F800
0007E00001F800
0007C00001F800
000FC00001F000
000FC00001F000
000F800003F000
000F800003F000
001F800003E000
001FFFFFFFE000
001FFFFFFFE000
001FFFFFFFE000
003F000007C000
003F00000FC000
003E00000FC000
007E00000FC000
007E00000F8000
007E00001F8000
007C00001F8000
00FC00001F8000
00FC00001F0000
00F800003F0000
00F800003F0000
01F800003E0000
01F800003E0000
01F800007E0000
03F000007E0000
03F80000FE0000
07F80001FE0000
1FFE0003FF8000
FFFF803FFFF000
FFFF803FFFE000
00000000000000
00000000000000
00000000000000
00000000000000
00000000000000
00000000000000
00001F00000000
00003F00000000
00003F80000000
00003F80000000
00003F00000000
00001F00000000
ENDCHAR
STARTCHAR 1E25
ENCODING 7717
SWIDTH 574 0
DWIDTH 31 0
BBX 29 57 0 -12
BITMAP
01FFC000
03FF8000
00FF8000
001F8000
001F0000
001F0000
001F0000
001F0000
003E0000
003E0000
003E0000
007C0000
007C0000
007C0000
007C0000
00F80000
00F87E00
00F9FF80
01F3FF80
01F78780
01FE07C0
03FC07C0
03FC07C0
03F807C0
03F00F80
07F00F80
07E00F80
07E01F80
0FC01F80
0FC01F00
0F803F00
0F803E00
1F803E00
1F007E00
1F007C00
3E007C00
3E00FC00
3E00F818
3C00F838
7C00F870
7C00F8E0
7801FFC0
F801FF80
F800FF00
F000FC00
00006000
00000000
00000000
00000000
00000000
00000000
07800000
0FC00000
0FE00000
0FE00000
0FC00000
07C00000
ENDCHAR
STARTCHAR 1E44
ENCODING 7748
SWIDTH 833 0
DWIDTH 45 0
BBX 49 52 0 0
BITMAP
00000006000000
0000000F800000
0000001F800000
0000001F800000
0000000F800000
0000000F000000
00000000000000
00000000000000
00000000000000
00000000000000
01FFE0001FFF80
03FFF0001FFF80
03FFF0001FFF00
001FF80007FC00
0007F80003F800
0007FC0001F000
0003FC0001E000
0003FC0001E000
0003FE0001C000
0003FE0001C000
0007BF0001C000
00073F0003C000
00073F80038000
00071F80038000
000F1FC0078000
000E0FC0078000
000E0FC0070000
000E07E0070000
001E07E00F0000
001C03F00E0000
001C03F00E0000
001C03F80E0000
003C01F81E0000
003801F81C0000
003800FC1C0000
007800FC1C0000
0078007E3C0000
0070007E380000
0070007F380000
00F0003F380000
00E0003FF80000
00E0001FF00000
00E0001FF00000
01E0000FF00000
01E0000FE00000
01C0000FE00000
03E00007E00000
07E00007E00000
0FF00003C00000
3FF80003C00000
FFFE0001C00000
FFFE0001C00000
ENDCHAR
STARTCHAR 1E45
ENCODING 7749
SWIDTH 611 0
DWIDTH 33 0
BBX 31 44 1 -1
BITMAP
00001F00
00003F00
00003F80
00003F80
00003F00
00001E00
00000000
00000000
00000000
00000000
00000000
00000000
00000000
00000000
01F00FE0
07F03FF0
0FF87FF0
1CF8F1F8
18F9C1F8
30FB81F0
30FB01F0
60F701F0
60FE01F0
C1FC03F0
C1FC03E0
01F803E0
03F007E0
03F007C0
03E00FC0
07E00FC0
07C00F80
07C01F80
0FC01F80
0F801F00
0F803F04
1F803F0E
1F003E1C
1F003E38
3E007E70
3E007FE0
3E003FC0
7C003F80
7C003E00
00000800
ENDCHAR
STARTCHAR 1E5A
ENCODING 7770
SWIDTH 759 0
DWIDTH 41 0
BBX 39 54 -1 -12
BITMAP
007FFFE000
007FFFFF00
007FFFFFC0
0003FC07F0
0003F803F8
0003F001F8
0003F000FC
0003F000FC
0003F000FC
0003E000FC
0003E000FC
0007E000FC
0007E000FC
0007C001FC
000FC001F8
000FC003F8
000F8007F0
000F801FE0
001F80FF80
001FFFFF00
001FFFF800
001FFFE000
003F07E000
003F03F000
003E03F000
003E03F000
007E01F800
007E01F800
007C00FC00
00FC00FC00
00FC00FC00
00F8007E00
00F8007E00
01F8007F00
01F8003F00
01F8003F80
03F8001F80
03F8001FC0
07FC001FE0
1FFFC00FF8
FFFFC00FFE
FFFFC007FE
0000000000
0000000000
0000000000
0000000000
0000000000
0000000000
0000780000
0000FC0000
0000FE0000
0000FE0000
0000FC0000
00007C0000
ENDCHAR
STARTCHAR 1E5B
ENCODING 7771
SWIDTH 462 0
DWIDTH 25 0
BBX 28 42 -1 -12
BITMAP
00000180
003C07E0
00FC1FF0
01FC3FF0
07FC7FF0
0E7CF3E0
0C3DC1C0
183DC000
307F8000
107F0000
007E0000
007E0000
00FC0000
00FC0000
00F80000
01F80000
01F00000
01F00000
03F00000
03E00000
03E00000
07E00000
07C00000
07C00000
0FC00000
0F800000
0F800000
0F800000
1F000000
1F000000
00000000
00000000
00000000
00000000
00000000
00000000
78000000
FC000000
FC000000
FC000000
FC000000
78000000
ENDCHAR
STARTCHAR 1E62
ENCODING 7778
SWIDTH 592 0
DWIDTH 32 0
BBX 31 54 1 -12
BITMAP
0001FF00
0007FFC6
001FFFE4
003F01FC
007C007C
0078007C
00F8003C
00F00038
01F00038
01F00038
01F00018
01F80018
01F80000
01FC0000
00FE0000
00FF0000
007FC000
007FE000
003FF000
001FFC00
000FFE00
0003FF00
0001FF80
0000FF80
00003FC0
00001FC0
00000FE0
00000FE0
300007E0
300003E0
300003E0
300003E0
780003E0
780003C0
780003C0
7C000780
7C000780
7E000F00
FF803E00
C7E1FC00
C3FFF800
C0FFE000
00040000
00000000
00000000
00000000
00000000
00000000
00780000
00FC0000
00FC0000
00FC0000
00FC0000
00780000
ENDCHAR
STARTCHAR 1E63
ENCODING 7779
SWIDTH 370 0
DWIDTH 20 0
BBX 20 41 -1 -12
BITMAP
003F80
007FE0
01F3F0
01E1F0
03C1F0
03C0F0
07C0E0
07C000
07E000
07E000
07F000
03F800
03FC00
01FC00
00FE00
00FF00
007F00
003F00
001F80
001F80
000F80
300F80
780F80
FC0F00
FC0F00
FC1E00
7C3C00
7FF800
1FF000
010000
000000
000000
000000
000000
000000
078000
0FC000
0FC000
1FC000
0FC000
0F8000
ENDCHAR
STARTCHAR 1E6C
ENCODING 7788
SWIDTH 777 0
DWIDTH 42 0
BBX 41 54 4 -12
BITMAP
07FFFFFFFF80
07FFFFFFFF80
0FFFFFFFFF80
0FE01FE01F80
0F801FC00F80
1F001FC00780
1C001F800780
38001F800380
38001F800380
70001F000380
60003F000300
E0003F000300
00003E000000
00003E000000
00007E000000
00007E000000
00007C000000
00007C000000
0000FC000000
0000FC000000
0000F8000000
0000F8000000
0001F8000000
0001F8000000
0001F0000000
0003F0000000
0003F0000000
0003E0000000
0003E0000000
0007E0000000
0007E0000000
0007C0000000
0007C0000000
000FC0000000
000FC0000000
000F80000000
001F80000000
001F80000000
003FC0000000
00FFF0000000
0FFFFE000000
0FFFFE000000
000000000000
000000000000
000000000000
000000000000
000000000000
000000000000
007C00000000
007E00000000
00FE00000000
00FE00000000
00FE00000000
007C00000000
ENDCHAR
STARTCHAR 1E6D
ENCODING 7789
SWIDTH 351 0
DWIDTH 19 0
BBX 19 48 0 -12
BITMAP
001F00
001F00
001F00
003E00
003E00
003E00
007C00
007C00
007C00
0FFFE0
1FFFE0
1FFFE0
00F800
01F000
01F000
01F000
03E000
03E000
03E000
07C000
07C000
07C000
0F8000
0F8000
0F8000
0F8000
1F0100
1F0380
1F0300
1E0700
3E0E00
3E1C00
3FF800
3FF000
3FE000
1F8000
040000
000000
000000
000000
000000
000000
7C0000
FC0000
FE0000
FE0000
FC0000
7C0000
ENDCHAR
STARTCHAR 1E80
ENCODING 7808
SWIDTH 1055 0
DWIDTH 57 0
BBX 59 53 6 -1
BITMAP
000000E000000000
000001F800000000
000001FE00000000
000000FF00000000
0000003FC0000000
00000003E0000000
0000000000000000
0000000000000000
0000000000000000
0000000000000000
1FFFC3FFFC07FFE0
1FFFC3FFFC07FFE0
1FFFC3FFF807FFE0
01FE003F8000FE00
00FC003F8000F800
00FC003F0001F000
00F8003F0001E000
00F8003E0003C000
00F8003E00078000
01F8003E00070000
01F0007E000E0000
01F0007E001E0000
01F000FC003C0000
03F001FC00380000
03E003FC00700000
03E003FC00F00000
03E007F801E00000
07E00FF803C00000
07E01EF803800000
07C03DF807800000
07C039F80F000000
07C079F01E000000
0FC0F1F01C000000
0F81E1F038000000
0F81C3F078000000
0F8383E0F0000000
1F8783E1E0000000
1F0F03E1C0000000
1F1E07E3C0000000
1F1C07E780000000
1F3C07CF00000000
3F7807CE00000000
3EF007DE00000000
3EE00FFC00000000
3FE00FF800000000
7FC00FF000000000
7F800FE000000000
7F001FE000000000
7E001FC000000000
7E001F8000000000
FC001F0000000000
F8001F0000000000
F0003E0000000000
ENDCHAR
STARTCHAR 1E81
ENCODING 7809
SWIDTH 833 0
DWIDTH 45 0
BBX 43 44 1 -1
BITMAP
000001F00000
000001F80000
000001F80000
000000FC0000
0000007E0000
0000001F0000
000000078000
000000018000
000000000000
000000000000
000000000000
000000000000
000000000000
000000000000
0F81C03C03C0
1FE3C07C07E0
3FFF80FE07E0
73FF01FE07E0
71FF01DE07E0
F87E039E03E0
F81C039E03E0
FC38071C03E0
7C38071C03E0
3870071C03E0
00F0073C03E0
00E00F3803C0
01E00F3803C0
01E00F7003C0
03C00F700380
03C00FE00780
07C00FC00780
07C00FC00700
07800F800F00
07800F800E00
0F800F801E00
0F801F803C00
0FC03FC03C00
0FC07FE07800
0FE0F7F1F000
07FFE3FFE000
07FFC3FFC000
03FF81FF8000
01FE00FE0000
006000100000
ENDCHAR
STARTCHAR 1E82
ENCODING 7810
SWIDTH 1055 0
DWIDTH 57 0
BBX 59 53 6 -1
BITMAP
000000000E000000
000000003F000000
00000000FE000000
00000003FC000000
0000000FE0000000
0000003E00000000
0000000000000000
0000000000000000
0000000000000000
0000000000000000
1FFFC3FFFC07FFE0
1FFFC3FFFC07FFE0
1FFFC3FFF807FFE0
01FE003F8000FE00
00FC003F8000F800
00FC003F0001F000
00F8003F0001E000
00F8003E0003C000
00F8003E00078000
01F8003E00070000
01F0007E000E0000
01F0007E001E0000
01F000FC003C0000
03F001FC00380000
03E003FC00700000
03E003FC00F00000
03E007F801E00000
07E00FF803C00000
07E01EF803800000
07C03DF807800000
07C039F80F000000
07C079F01E000000
0FC0F1F01C000000
0F81E1F038000000
0F81C3F078000000
0F8383E0F0000000
1F8783E1E0000000
1F0F03E1C0000000
1F1E07E3C0000000
1F1C07E780000000
1F3C07CF00000000
3F7807CE00000000
3EF007DE00000000
3EE00FFC00000000
3FE00FF800000000
7FC00FF000000000
7F800FE000000000
7F001FE000000000
7E001FC000000000
7E001F8000000000
FC001F0000000000
F8001F0000000000
F0003E0000000000
ENDCHAR
STARTCHAR 1E83
ENCODING 7811
SWIDTH 833 0
DWIDTH 45 0
BBX 43 44 1 -1
BITMAP
000000007800
00000000F800
00000003F800
00000007F000
0000000FC000
0000001F0000
0000003C0000
000000700000
000000000000
000000000000
000000000000
000000000000
000000000000
000000000000
0F81C03C03C0
1FE3C07C07E0
3FFF80FE07E0
73FF01FE07E0
71FF01DE07E0
F87E039E03E0
F81C039E03E0
FC38071C03E0
7C38071C03E0
3870071C03E0
00F0073C03E0
00E00F3803C0
01E00F3803C0
01E00F7003C0
03C00F700380
03C00FE00780
07C00FC00780
07C00FC00700
07800F800F00
07800F800E00
0F800F801E00
0F801F803C00
0FC03FC03C00
0FC07FE07800
0FE0F7F1F000
07FFE3FFE000
07FFC3FFC000
03FF81FF8000
01FE00FE0000
006000100000
ENDCHAR
STARTCHAR 1E84
ENCODING 7812
SWIDTH 1055 0
DWIDTH 57 0
BBX 59 53 6 -1
BITMAP
000000701C000000
000000F83E000000
000001F87E000000
000001F87C000000
000001F07C000000
000000C030000000
0000000000000000
0000000000000000
0000000000000000
0000000000000000
1FFFC3FFFC07FFE0
1FFFC3FFFC07FFE0
1FFFC3FFF807FFE0
01FE003F8000FE00
00FC003F8000F800
00FC003F0001F000
00F8003F0001E000
00F8003E0003C000
00F8003E00078000
01F8003E00070000
01F0007E000E0000
01F0007E001E0000
01F000FC003C0000
03F001FC00380000
03E003FC00700000
03E003FC00F00000
03E007F801E00000
07E00FF803C00000
07E01EF803800000
07C03DF807800000
07C039F80F000000
07C079F01E000000
0FC0F1F01C000000
0F81E1F038000000
0F81C3F078000000
0F8383E0F0000000
1F8783E1E0000000
1F0F03E1C0000000
1F1E07E3C0000000
1F1C07E780000000
1F3C07CF00000000
3F7807CE00000000
3EF007DE00000000
3EE00FFC00000000
3FE00FF800000000
7FC00FF000000000
7F800FE000000000
7F001FE000000000
7E001FC000000000
7E001F8000000000
FC001F0000000000
F8001F0000000000
F0003E0000000000
ENDCHAR
ENDFONT
